<?xml version="1.0" encoding="UTF-8"?>
<svg width="83px" height="84px" viewBox="0 0 83 84" version="1.1" xmlns="http://www.w3.org/2000/svg" xmlns:xlink="http://www.w3.org/1999/xlink">
    <title>football</title>
    <defs>
        <linearGradient x1="50%" y1="0%" x2="50%" y2="100%" id="linearGradient-1">
            <stop stop-color="#EFCBA0" offset="0.0628277972%"></stop>
            <stop stop-color="#FFB863" offset="100%"></stop>
        </linearGradient>
    </defs>
    <g id="Page-1" stroke="none" stroke-width="1" fill="none" fill-rule="evenodd">
        <g id="football" transform="translate(0.000000, 0.350000)">
            <rect id="Rectangle-Copy" fill="#FFFFFF" x="0" y="0" width="83" height="83"></rect>
            <path d="M41.5,13.5 C26.1,13.5 13.5,26.1 13.5,41.5 C13.5,56.9 26.1,69.5 41.5,69.5 C56.9,69.5 69.5,56.9 69.5,41.5 C69.5,26.1 56.9,13.5 41.5,13.5 Z M64.4583333,34.25 L53.5833333,37.875 L41.7416667,28.2083333 L41.7416667,17.575 C52.375,17.3333333 61.5583333,24.3416667 64.4583333,34.25 Z M48.025,51.1666667 L34.975,51.1666667 L30.8666667,39.5666667 L41.5,30.8666667 L52.1333333,39.8083333 L48.025,51.1666667 Z M39.325,17.3333333 L39.325,29.6583333 L29.4166667,37.6333333 L29.4166667,37.6333333 L18.5416667,34.0083333 C21.4416667,25.0666667 29.4166667,18.3 39.325,17.3333333 Z M17.3333333,41.5 C17.3333333,39.8083333 17.575,38.1166667 17.8166667,36.425 L28.45,39.8083333 L33.0416667,53.1 L27.2416667,61.075 C21.2,56.725 17.3333333,49.475 17.3333333,41.5 Z M29.175,62.2833333 L35.7,53.5833333 L49.9583333,53.5833333 L49.9583333,53.3416667 L55.5166667,61.075 C51.65,63.975 46.8166667,65.6666667 41.5,65.6666667 C37.15,65.6666667 32.8,64.4583333 29.175,62.2833333 Z M57.45,59.625 L50.925,50.6833333 L54.55,40.05 L65.1833333,36.6666667 C65.425,38.3583333 65.6666667,40.05 65.6666667,41.7416667 C65.6666667,48.75 62.525,55.275 57.45,59.625 Z" id="Shape" fill="url(#linearGradient-1)" fill-rule="nonzero"></path>
        </g>
    </g>
</svg>