<?xml version="1.0" encoding="UTF-8"?>
<svg width="102px" height="22px" viewBox="0 0 102 22" version="1.1" xmlns="http://www.w3.org/2000/svg" xmlns:xlink="http://www.w3.org/1999/xlink">
    <title>Nuxt3</title>
    <g id="Page-1" stroke="none" stroke-width="1" fill="none" fill-rule="evenodd">
        <g id="Nuxt3" transform="translate(0.087612, 0.500000)" fill="#2A1111" fill-rule="nonzero">
            <path d="M37.9100649,4.36438327 L41.2800803,4.36438327 L48.4219265,15.7835371 L48.4219265,4.36438327 L51.5331572,4.36438327 L51.5331572,20.544814 L48.1860803,20.544814 L41.0209265,9.14938327 L41.0209265,20.544814 L37.9100649,20.544814 L37.9100649,4.36438327 Z M65.438388,20.5447679 L62.5390034,20.5447679 L62.5390034,18.7373833 C61.8794649,20.0093371 60.536388,20.7255063 58.8397726,20.7255063 C56.1526957,20.7255063 54.4076188,18.830014 54.4076188,16.1020448 L54.4076188,8.89401404 L57.3070034,8.89401404 L57.3070034,15.5055987 C57.3070034,17.1005833 58.2974649,18.2098448 59.7817726,18.2098448 C61.4082342,18.2098448 62.5390034,16.9616602 62.5390034,15.2514294 L62.5390034,8.89401404 L65.438388,8.89401404 L65.438388,20.5447679 Z M75.5262342,20.3605679 L72.7450034,16.4769987 L69.9633111,20.3605679 L66.8756188,20.3605679 L71.1660803,14.2810448 L67.2060803,8.70986019 L70.364388,8.70986019 L72.7450034,12.0625217 L75.1016188,8.70986019 L78.2839265,8.70986019 L74.2999265,14.2810448 L78.5899265,20.3605679 L75.5262342,20.3605679 L75.5262342,20.3605679 Z M84.482388,5.38073712 L84.482388,8.89378327 L87.7819265,8.89378327 L87.7819265,11.2749987 L84.482388,11.2749987 L84.482388,17.0585833 C84.482388,17.2527987 84.5608495,17.4391217 84.7006957,17.5765679 C84.8405419,17.714014 85.0306957,17.7913679 85.2286957,17.791691 L87.7819265,17.791691 L87.7819265,20.540014 L85.8725419,20.540014 C83.2800803,20.540014 81.5834649,19.0602294 81.5834649,16.4734448 L81.5834649,11.2772602 L79.2499265,11.2772602 L79.2499265,8.89378327 L80.7139265,8.89378327 C81.3965419,8.89378327 81.7939265,8.49506019 81.7939265,7.83538327 L81.7939265,5.38073712 L84.482388,5.38073712 Z" id="Shape"></path>
            <path d="M13.7052342,1.12212173 C12.8350957,-0.374038269 10.6596803,-0.374042885 9.78954186,1.12212173 L0.306251087,17.4278602 C-0.563898451,18.9240294 0.52378801,20.7942294 2.26409263,20.7942294 L9.66723416,20.7942294 C8.9236034,20.1443371 8.6482034,19.0200294 9.21095724,18.055414 L16.393188,5.74387558 L13.7052342,1.12212173 Z" id="Path"></path>
            <path d="M19.7139572,4.69886019 C20.4340957,3.47472173 22.2344188,3.47472173 22.9545111,4.69886019 L30.8027419,18.0399525 C31.5228803,19.2640448 30.6227419,20.7942294 29.1824649,20.7942294 L13.4860034,20.7942294 C12.0457265,20.7942294 11.145588,19.2640448 11.8657265,18.0399525 L19.7139572,4.69886019 Z M96.3462342,20.6243833 L91.4119265,20.6243833 C91.4119265,19.769891 91.4428495,19.0308756 91.4119265,17.8453217 L96.3231572,17.8453217 C97.1853111,17.8453217 97.8706957,17.8915217 98.3326957,17.4142448 C98.7942342,16.9369679 99.0254649,16.3365063 99.0254649,15.6129063 C99.0254649,14.7661217 98.7176188,14.1271679 98.1014649,13.6960448 C97.5010034,13.2495525 96.7237726,13.0263063 95.7688495,13.0263063 L94.568388,13.0263063 L94.568388,10.6014294 L95.792388,10.6014294 C96.5774649,10.6014294 97.2319265,10.4166756 97.7553111,10.0471679 C98.2786957,9.67766019 98.540388,9.13106019 98.540388,8.40746019 C98.540388,7.80699865 98.3400803,7.32972173 97.9399265,6.97562942 C97.5550034,6.60607558 97.016388,6.42132173 96.3231572,6.42132173 C95.5690034,6.42132173 94.976388,6.64456788 94.5448495,7.09106019 C94.1294649,7.5375525 93.8982342,8.0841525 93.8520803,8.73076788 L90.9656188,8.73076788 C91.0270034,7.23732173 91.5430034,6.05952173 92.5126957,5.19732173 C93.4980803,4.33516788 94.7682342,3.90404481 96.3231572,3.90404481 C97.4317726,3.90404481 98.3631572,4.10421404 99.1177726,4.50450635 C99.8876188,4.88942942 100.465003,5.40519865 100.849926,6.05181404 C101.25008,6.69847558 101.450388,7.41441404 101.450388,8.19962942 C101.450388,9.10798327 101.19608,9.87778327 100.688388,10.5090294 C100.195465,11.1249063 99.5797726,11.5405679 98.840388,11.7561525 C99.7491572,11.9409063 100.48808,12.3873987 101.057619,13.0956294 C101.627157,13.7884448 101.912388,14.666014 101.912388,15.7283833 C101.912388,16.6213217 101.696388,17.4373679 101.265311,18.1763833 C100.834234,18.9153987 100.203311,19.5081525 99.3716188,19.9546448 C98.5556188,20.4011371 97.5471572,20.6243833 96.3462342,20.6243833 L96.3462342,20.6243833 Z" id="Shape"></path>
        </g>
    </g>
</svg>