<?xml version="1.0" encoding="UTF-8"?>
<svg width="84px" height="84px" viewBox="0 0 84 84" version="1.1" xmlns="http://www.w3.org/2000/svg" xmlns:xlink="http://www.w3.org/1999/xlink">
    <title>sandwich</title>
    <defs>
        <linearGradient x1="50%" y1="0%" x2="50%" y2="100%" id="linearGradient-1">
            <stop stop-color="#EFCBA0" offset="0.0628277972%"></stop>
            <stop stop-color="#FFB863" offset="100%"></stop>
        </linearGradient>
    </defs>
    <g id="Page-1" stroke="none" stroke-width="1" fill="none" fill-rule="evenodd">
        <g id="sandwich" transform="translate(0.250000, 0.350000)">
            <rect id="Rectangle" fill="#FFFFFF" x="0" y="0" width="83" height="83"></rect>
            <path d="M42.65,41.25 C42.45,41.25 42.25,41.25 42.05,41.25 L40.85,41.25 C30.45,41.25 21.45,41.25 14.75,40.35 C9.55,39.65 2.75,38.15 2.75,32.85 C2.75,27.55 10.25,22.45 22.35,19.75 C24.75,19.25 27.15,18.75 29.65,18.45 C32.45,18.05 35.35,17.85 38.35,17.75 C39.45,17.75 40.45,17.65 41.55,17.65 C42.95,17.65 44.25,17.65 45.55,17.75 C48.55,17.85 51.55,18.15 54.55,18.55 C57.15,18.95 59.55,19.35 61.75,19.95 C73.35,22.75 80.25,27.65 80.25,32.85 C80.25,38.15 73.35,39.65 68.25,40.35 C61.55,41.15 52.75,41.25 42.65,41.25 Z M41.45,38.25 L42.05,38.25 C51.95,38.25 61.25,38.25 67.75,37.45 C73.95,36.65 77.15,35.15 77.15,32.95 C77.15,29.95 72.15,25.75 60.95,22.95 C58.85,22.45 56.45,21.95 54.05,21.65 C51.15,21.25 48.25,20.95 45.35,20.85 C44.15,20.75 42.85,20.75 41.55,20.75 C40.55,20.75 39.45,20.75 38.45,20.85 C35.65,20.95 32.85,21.15 30.05,21.55 C27.75,21.85 25.35,22.25 23.05,22.75 C11.15,25.35 5.75,29.85 5.75,32.85 C5.75,35.05 8.95,36.55 15.15,37.35 C21.65,38.25 30.95,38.25 40.85,38.25 L41.45,38.25 Z M65.65,65.35 L16.85,65.35 C11.35,65.35 6.85,60.85 6.85,55.35 L6.85,55.25 C6.85,54.45 7.55,53.75 8.35,53.75 L74.15,53.75 C74.95,53.75 75.65,54.45 75.65,55.25 L75.65,55.35 C75.65,60.85 71.15,65.35 65.65,65.35 Z M10.05,56.65 C10.65,59.85 13.55,62.35 16.95,62.35 L65.75,62.35 C69.15,62.35 71.95,59.95 72.65,56.65 L10.05,56.65 Z M74.45,56.65 L9.05,56.65 C5.95,56.65 3.35,54.15 3.35,50.95 C3.35,49.45 3.95,48.05 5.05,46.95 C6.15,45.85 7.55,45.25 9.05,45.25 L11.35,45.25 C12.15,45.25 12.85,45.95 12.85,46.75 C12.85,49.25 14.85,51.25 17.35,51.25 C19.85,51.25 21.85,49.25 21.85,46.75 C21.85,45.95 22.55,45.25 23.35,45.25 L35.75,45.25 C36.55,45.25 37.25,45.95 37.25,46.75 C37.25,49.25 39.25,51.25 41.75,51.25 C44.25,51.25 46.25,49.25 46.25,46.75 C46.25,45.95 46.95,45.25 47.75,45.25 L59.75,45.25 C60.55,45.25 61.25,45.95 61.25,46.75 C61.25,49.25 63.25,51.25 65.75,51.25 C68.25,51.25 70.25,49.25 70.25,46.75 C70.25,45.95 70.95,45.25 71.75,45.25 L74.45,45.25 C77.55,45.25 80.15,47.85 80.15,50.95 C80.15,52.45 79.55,53.85 78.45,54.95 C77.35,56.05 75.95,56.65 74.45,56.65 Z M68.75,53.65 L74.45,53.65 C75.15,53.65 75.85,53.35 76.35,52.85 C76.85,52.35 77.15,51.65 77.15,50.95 C77.15,49.45 75.95,48.25 74.45,48.25 L73.15,48.25 C72.65,50.65 70.95,52.65 68.75,53.65 Z M44.75,53.65 L62.75,53.65 C60.55,52.65 58.85,50.65 58.45,48.25 L49.15,48.25 C48.65,50.65 46.95,52.65 44.75,53.65 Z M20.35,53.65 L38.75,53.65 C36.55,52.65 34.85,50.65 34.45,48.25 L24.75,48.25 C24.25,50.65 22.55,52.65 20.35,53.65 Z M9.05,48.25 C8.35,48.25 7.65,48.55 7.15,49.05 C6.65,49.55 6.35,50.25 6.35,50.95 C6.35,52.45 7.55,53.65 9.05,53.65 L14.35,53.65 C12.15,52.65 10.45,50.65 10.05,48.25 L9.05,48.25 Z M65.75,54.25 C62.15,54.25 59.05,51.65 58.45,48.25 L49.15,48.25 C48.45,51.65 45.45,54.25 41.85,54.25 C38.25,54.25 35.15,51.65 34.55,48.25 L24.75,48.25 C24.05,51.65 21.05,54.25 17.45,54.25 C13.35,54.25 9.95,50.85 9.95,46.75 L9.95,39.65 C9.95,38.85 10.65,38.15 11.45,38.15 L71.75,38.15 C72.55,38.15 73.25,38.85 73.25,39.65 L73.25,46.75 C73.25,50.85 69.85,54.25 65.75,54.25 Z M47.75,45.25 L59.75,45.25 C60.55,45.25 61.25,45.95 61.25,46.75 C61.25,49.25 63.25,51.25 65.75,51.25 C68.25,51.25 70.25,49.25 70.25,46.75 L70.25,41.15 L12.85,41.15 L12.85,46.75 C12.85,49.25 14.85,51.25 17.35,51.25 C19.85,51.25 21.85,49.25 21.85,46.75 C21.85,45.95 22.55,45.25 23.35,45.25 L35.75,45.25 C36.55,45.25 37.25,45.95 37.25,46.75 C37.25,49.25 39.25,51.25 41.75,51.25 C44.25,51.25 46.25,49.25 46.25,46.75 C46.25,45.95 46.95,45.25 47.75,45.25 Z M26.15,32.85 C23.35,32.85 21.05,30.55 21.05,27.75 L21.05,21.15 C21.05,20.45 21.55,19.85 22.25,19.65 C24.65,19.15 27.05,18.65 29.55,18.35 C29.95,18.25 30.45,18.45 30.75,18.75 C31.05,19.05 31.25,19.45 31.25,19.85 L31.25,27.75 C31.25,30.55 28.95,32.85 26.15,32.85 Z M24.15,22.45 L24.15,27.85 C24.15,28.95 25.05,29.95 26.25,29.95 C27.35,29.95 28.35,29.05 28.35,27.85 L28.35,21.75 C26.85,21.85 25.45,22.15 24.15,22.45 Z M41.75,32.85 C38.95,32.85 36.75,30.55 36.75,27.75 L36.75,19.25 C36.75,18.45 37.35,17.75 38.25,17.75 C39.35,17.75 40.35,17.65 41.45,17.65 C42.85,17.65 44.15,17.65 45.45,17.75 C46.25,17.75 46.85,18.45 46.85,19.25 L46.85,27.75 C46.85,30.55 44.55,32.85 41.75,32.85 Z M39.75,20.75 L39.75,27.85 C39.75,28.95 40.65,29.95 41.75,29.95 C42.85,29.95 43.75,29.05 43.75,27.85 L43.75,20.75 C42.55,20.65 41.15,20.65 39.75,20.75 Z M57.65,32.85 C54.85,32.85 52.65,30.55 52.65,27.75 L52.65,20.05 C52.65,19.65 52.85,19.25 53.15,18.95 C53.45,18.65 53.95,18.55 54.35,18.55 C56.95,18.95 59.35,19.35 61.55,19.95 C62.25,20.15 62.65,20.75 62.65,21.45 L62.65,27.85 C62.75,30.55 60.45,32.85 57.65,32.85 Z M55.65,21.85 L55.65,27.85 C55.65,28.95 56.55,29.95 57.65,29.95 C58.75,29.95 59.65,29.05 59.65,27.85 L59.65,22.65 C58.45,22.35 57.05,22.05 55.65,21.85 Z" id="Shape" fill="url(#linearGradient-1)" fill-rule="nonzero"></path>
        </g>
    </g>
</svg>