<?xml version="1.0" encoding="UTF-8"?>
<svg width="102px" height="27px" viewBox="0 0 102 27" version="1.1" xmlns="http://www.w3.org/2000/svg" xmlns:xlink="http://www.w3.org/1999/xlink">
    <title>Strapi</title>
    <g id="Page-1" stroke="none" stroke-width="1" fill="none" fill-rule="evenodd">
        <g id="Strapi" fill="#2A1111" fill-rule="nonzero">
            <g id="Monogram" opacity="0.974562872" transform="translate(0.000000, 4.133482)">
                <g id="Group">
                    <path d="M15.1254208,15.5508664 L15.1254208,8.1341072 C15.1254208,7.86995158 14.9114948,7.65581116 14.6476036,7.65581116 L7.27581328,7.65581116 L7.27581328,0 L22.2593443,0 C22.5232355,0 22.7371615,0.214140428 22.7371615,0.478296034 L22.7371615,15.5508664 L15.1254208,15.5508664 Z" id="Combined-Shape-Copy"></path>
                    <path d="M7.27581328,0 L7.27581328,7.65581116 L0.238908617,7.65581116 C0.106963032,7.65581116 0,7.54874094 0,7.41666315 C0,7.35343484 0.0250144321,7.2927796 0.0695721592,7.24796388 L7.27581328,0 Z" id="Rectangle-Copy-6" opacity="0.404989"></path>
                    <path d="M22.7371614,15.7900144 L22.7371614,22.8665176 L15.1254207,22.8665176 L22.3289163,15.6213151 C22.421993,15.5276994 22.5732613,15.5273382 22.6667832,15.6205082 C22.711834,15.6653895 22.7371614,15.7263906 22.7371614,15.7900144 Z" id="Rectangle-Copy-7" opacity="0.404989" transform="translate(18.931291, 19.208692) rotate(180.000000) translate(-18.931291, -19.208692) "></path>
                    <path d="M7.27581328,7.65581116 L14.8865122,7.65581116 C15.0184578,7.65581116 15.1254208,7.76288138 15.1254208,7.89495919 L15.1254208,15.5508664 L7.75363052,15.5508664 C7.48973936,15.5508664 7.27581328,15.336726 7.27581328,15.0725704 L7.27581328,7.65581116 Z" id="Rectangle-Copy-8" opacity="0.404989"></path>
                </g>
            </g>
            <path d="M52.0601818,9.41746382 L49.0496082,9.41746382 L49.0496082,15.1283457 C49.0496082,15.6042549 49.168155,15.9520295 49.4052519,16.1716799 C49.642349,16.3913303 49.9888703,16.5148818 50.4448261,16.5423381 C50.8619534,16.5674562 51.3706589,16.5657655 51.9709553,16.5372656 C51.992699,16.5362333 52.0210588,16.5348206 52.0560345,16.5330275 C52.1006034,16.5307277 52.1385848,16.5650424 52.1408676,16.6096568 C52.1409733,16.6110348 52.1409733,16.6124143 52.1409733,16.6137941 L52.1409733,19.6685928 C52.1409733,19.7098275 52.1099666,19.7444575 52.0690206,19.7489692 C52.0466148,19.751438 52.0280812,19.7534568 52.0134193,19.7550255 C49.6552574,20.007325 47.9879658,19.7738442 47.0114959,19.0545769 C46.0175121,18.3224089 45.5205277,17.0136783 45.5205277,15.1283457 L45.5205277,9.41746382 L43.2212418,9.41746382 C43.1766217,9.41746382 43.1404502,9.38125599 43.1404502,9.33659134 L43.1404502,6.09377213 C43.1404502,6.04910748 43.1766217,6.01289965 43.2212418,6.01289965 L45.5205277,6.01289965 L45.5205277,3.74468027 C45.5205277,3.68060508 45.5583145,3.62257054 45.616877,3.59670234 L48.9361999,2.13049813 C48.9770219,2.1124663 49.0247178,2.13097457 49.0427316,2.17183755 C49.0472662,2.18212392 49.0496082,2.19324374 49.0496082,2.20448708 L49.0496082,6.01289965 L52.0601818,6.01289965 C52.1048017,6.01289965 52.1409733,6.04910748 52.1409733,6.09377213 L52.1409733,9.33659134 C52.1409733,9.38125599 52.1048017,9.41746382 52.0601818,9.41746382 Z M58.5398899,8.37412964 C58.8681779,7.49552804 59.4107573,6.83658673 60.167644,6.39728593 C60.8603143,5.99525661 61.6255292,5.77719007 62.4633078,5.74308127 C62.5005468,5.74156515 62.5514991,5.74032161 62.6161649,5.73933136 C62.6607894,5.73866247 62.6975077,5.77433122 62.6981862,5.81900087 C62.6981862,5.81940525 62.6981862,5.81980965 62.6981862,5.82021406 L62.6981862,9.54421121 C62.6981862,9.61773885 62.6386368,9.6773448 62.5651827,9.6773448 C62.5611729,9.6773448 62.5571655,9.67716331 62.5531722,9.67680085 C62.5531722,9.67680085 62.5531722,9.67680085 62.5531722,9.67680085 C61.5355138,9.58443318 60.6217981,9.80915542 59.8120003,10.3509734 C58.9639224,10.9184036 58.5398899,11.8610557 58.5398899,13.1789581 L58.5398899,19.6601085 C58.5398899,19.7047732 58.5037182,19.740981 58.4590983,19.740981 L55.0916009,19.740981 C55.0469808,19.740981 55.0108094,19.7047732 55.0108094,19.6601085 L55.0108094,6.09377213 C55.0108094,6.04910748 55.0469808,6.01289965 55.0916009,6.01289965 L58.4590983,6.01289965 C58.5037182,6.01289965 58.5398899,6.04910748 58.5398899,6.09377213 L58.5398899,8.37412964 Z M75.2265097,6.01289965 L78.5940071,6.01289965 C78.6386272,6.01289965 78.6747987,6.04910748 78.6747987,6.09377213 L78.6747987,19.6601085 C78.6747987,19.7047732 78.6386272,19.740981 78.5940071,19.740981 L75.2265097,19.740981 C75.1818898,19.740981 75.1457182,19.7047732 75.1457182,19.6601085 L75.1457182,18.1210673 C74.0879008,19.4572741 72.601507,20.1253674 70.6864924,20.1253674 C68.8626691,20.1253674 67.2987641,19.4252421 65.9947304,18.0249709 C64.6906967,16.6246995 64.0386897,14.9087065 64.0386897,12.8769403 C64.0386897,10.8451741 64.6906967,9.12918113 65.9947304,7.72890982 C67.2987641,6.32863851 68.8626691,5.62851336 70.6864924,5.62851336 C72.601507,5.62851336 74.0879008,6.29660665 75.1457182,7.63281324 L75.1457182,6.09377213 C75.1457182,6.04910748 75.1818898,6.01289965 75.2265097,6.01289965 Z M68.6347014,15.6774689 C69.3459925,16.3913327 70.2487715,16.7482593 71.3430656,16.7482593 C72.4373596,16.7482593 73.3446981,16.3867568 74.0651082,15.6637408 C74.7855185,14.940725 75.1457182,14.0118007 75.1457182,12.8769403 C75.1457182,11.7420799 74.7855185,10.8131557 74.0651082,10.0901398 C73.3446981,9.36712392 72.4373596,9.00562138 71.3430656,9.00562138 C70.2487715,9.00562138 69.3459925,9.36712392 68.6347014,10.0901398 C67.9234104,10.8131557 67.5677702,11.7420799 67.5677702,12.8769403 C67.5677702,14.0118007 67.9234104,14.9453009 68.6347014,15.6774689 Z M89.2836106,5.62851336 C91.125672,5.62851336 92.698696,6.32863851 94.0027297,7.72890982 C95.3067634,9.12918113 95.9587705,10.8451741 95.9587705,12.8769403 C95.9587705,14.9087065 95.3067634,16.6246995 94.0027297,18.0249709 C92.698696,19.4252421 91.125672,20.1253674 89.2836106,20.1253674 C87.368596,20.1253674 85.8913212,19.4572741 84.8517419,18.1210673 L84.8517419,25.1513411 C84.8517419,25.1960057 84.8155703,25.2322136 84.7709504,25.2322136 L81.4034529,25.2322136 C81.358833,25.2322136 81.3226614,25.1960057 81.3226614,25.1513411 L81.3226614,6.09377213 C81.3226614,6.04910748 81.358833,6.01289965 81.4034529,6.01289965 L84.7709504,6.01289965 C84.8155703,6.01289965 84.8517419,6.04910748 84.8517419,6.09377213 L84.8517419,7.63281324 C85.8913212,6.29660665 87.368596,5.62851336 89.2836106,5.62851336 Z M85.9186733,15.6774689 C86.6299644,16.3913327 87.5327434,16.7482593 88.6270374,16.7482593 C89.7213313,16.7482593 90.6286698,16.3867568 91.3490801,15.6637408 C92.0694904,14.940725 92.42969,14.0118007 92.42969,12.8769403 C92.42969,11.7420799 92.0694904,10.8131557 91.3490801,10.0901398 C90.6286698,9.36712392 89.7213313,9.00562138 88.6270374,9.00562138 C87.5327434,9.00562138 86.6299644,9.36712392 85.9186733,10.0901398 C85.2073822,10.8131557 84.8517419,11.7420799 84.8517419,12.8769403 C84.8517419,14.0118007 85.2073822,14.9453009 85.9186733,15.6774689 Z M99.811423,4.36552988 C99.2277994,4.36552988 98.721696,4.15045876 98.2930976,3.72031005 C97.8644991,3.29016135 97.6502031,2.78222742 97.6502031,2.19649302 C97.6502031,1.61075862 97.8644991,1.09824871 98.2930976,0.658947905 C98.721696,0.219647106 99.2277994,0 99.811423,0 C100.413285,0 100.928507,0.219647106 101.357105,0.658947905 C101.785704,1.09824871 102,1.61075862 102,2.19649302 C102,2.78222742 101.785704,3.29016135 101.357105,3.72031005 C100.928507,4.15045876 100.413285,4.36552988 99.811423,4.36552988 Z M98.0605612,19.6601085 L98.0605612,6.09377213 C98.0605612,6.04910748 98.0967329,6.01289965 98.1413528,6.01289965 L101.50885,6.01289965 C101.55347,6.01289965 101.589642,6.04910748 101.589642,6.09377213 L101.589642,19.6601085 C101.589642,19.7047732 101.55347,19.740981 101.50885,19.740981 L98.1413528,19.740981 C98.0967329,19.740981 98.0605612,19.7047732 98.0605612,19.6601085 Z M34.8512146,9.91167475 C34.8512146,10.2777587 35.0928675,10.5751975 35.5761807,10.8040001 C36.0594939,11.0328025 36.6476682,11.2341457 37.340721,11.4080356 C38.0337738,11.5819255 38.7268162,11.8015726 39.4198693,12.0669835 C40.1129221,12.3323944 40.7010962,12.7762646 41.1844094,13.3986074 C41.6677226,14.0209502 41.9093756,14.7988671 41.9093756,15.7323813 C41.9093756,17.1418047 41.3850341,18.2263123 40.3363358,18.9859365 C39.2876374,19.7455609 37.9790638,20.1253674 36.4105757,20.1253674 C33.6648797,20.1253674 31.7732482,19.0845867 30.7356277,17.0029952 C30.7266716,16.985028 30.7153315,16.9618165 30.7016071,16.9333606 C30.6822028,16.8931379 30.6990516,16.8447866 30.7392359,16.8253668 C30.7400056,16.8249949 30.740781,16.8246352 30.741562,16.8242879 L33.7099532,15.5043086 C33.7880661,15.4695791 33.8796887,15.5017464 33.919013,15.5777101 C33.9194331,15.5785215 33.9198484,15.5793218 33.920259,15.580111 C34.3825874,16.468705 35.212687,16.9129963 36.4105757,16.9129963 C37.6690138,16.9129963 38.2982235,16.5194619 38.2982235,15.7323813 C38.2982235,15.3662973 38.0565705,15.0688585 37.5732573,14.840056 C37.0899441,14.6112535 36.50177,14.4053343 35.808717,14.2222923 C35.1156641,14.0392503 34.4226217,13.8104512 33.7295689,13.5358882 C33.0365159,13.2613252 32.4483417,12.826607 31.9650286,12.2317205 C31.4817154,11.636834 31.2400624,10.890949 31.2400624,9.99404325 C31.2400624,8.63953245 31.7370469,7.57332878 32.7310306,6.79540028 C33.7250142,6.01747178 34.960636,5.62851336 36.437933,5.62851336 C37.5504651,5.62851336 38.5626719,5.88019235 39.4745836,6.38355784 C40.3024818,6.84054876 40.9626439,7.44037176 41.4730364,8.24555844 C41.4990595,8.28661204 41.5340164,8.34434937 41.577907,8.41877042 C41.6006026,8.45723243 41.587841,8.50682586 41.549412,8.52953514 C41.5467255,8.53112283 41.5439491,8.53255341 41.5410972,8.53381971 L38.565063,9.85521102 C38.5125072,9.87854733 38.4508008,9.86030099 38.4193483,9.81212438 C37.9727234,9.12801992 37.3122562,8.78597209 36.437933,8.78597209 C35.9819771,8.78597209 35.6035394,8.88664368 35.3026085,9.08798988 C35.0016777,9.28933608 34.8512146,9.56389495 34.8512146,9.91167475 Z" id="strapi"></path>
        </g>
    </g>
</svg>