<?xml version="1.0" encoding="UTF-8"?>
<svg width="84px" height="84px" viewBox="0 0 84 84" version="1.1" xmlns="http://www.w3.org/2000/svg" xmlns:xlink="http://www.w3.org/1999/xlink">
    <title>outdoor</title>
    <defs>
        <linearGradient x1="50%" y1="0%" x2="50%" y2="100%" id="linearGradient-1">
            <stop stop-color="#EFCBA0" offset="0.0628277972%"></stop>
            <stop stop-color="#FFB863" offset="100%"></stop>
        </linearGradient>
    </defs>
    <g id="Page-1" stroke="none" stroke-width="1" fill="none" fill-rule="evenodd">
        <g id="outdoor" transform="translate(0.600000, 0.350000)">
            <rect id="Rectangle-Copy" fill="#FFFFFF" x="0" y="0" width="83" height="83"></rect>
            <path d="M41.5581971,11.1009364 L41.5733887,11.1010463 C41.5821312,11.1013818 41.5908644,11.1017779 41.599588,11.1022343 C41.6031594,11.1029258 41.6068105,11.1031289 41.6104608,11.1033423 L41.6317528,11.1041929 C41.6381097,11.1046346 41.6444609,11.1051082 41.6508064,11.1056137 C41.667983,11.1073399 41.6823581,11.1086574 41.6967227,11.1101391 C41.7084445,11.1110883 41.7141112,11.1117239 41.7197726,11.112385 L41.7291125,11.1139694 L41.7433393,11.1157801 C41.7603983,11.1179798 41.7774289,11.1204099 41.794426,11.1230699 C41.8130316,11.1256859 41.8312962,11.1288099 41.8495265,11.1322042 L41.8649913,11.1350982 L41.8860728,11.1393652 L41.90445,11.1436068 C41.9077666,11.1443271 41.9110815,11.1450562 41.9143946,11.1457942 L41.9379895,11.1509437 C41.9688722,11.1582876 41.9995254,11.1663963 42.029922,11.1752544 L42.0492851,11.1810638 L42.0631362,11.18529 L42.0900643,11.1938667 C42.1050956,11.1987924 42.120058,11.2039031 42.1349483,11.2091969 C42.1487532,11.2137141 42.1627683,11.2188665 42.1767378,11.2241919 L42.1966459,11.2323103 C42.2053545,11.2355384 42.2070064,11.2361979 42.2086574,11.2368597 L42.2278801,11.2449971 C42.2388436,11.2495527 42.2497622,11.2542097 42.2606344,11.2589671 C42.2707692,11.2631816 42.280714,11.2676141 42.2906059,11.2721253 C42.3000351,11.2762456 42.3098131,11.2808258 42.3195623,11.2854952 C42.3255405,11.288718 42.3311404,11.2914326 42.33673,11.2941763 L42.3501557,11.3004241 L42.3680869,11.3100299 C42.3754571,11.3138179 42.3828023,11.3176536 42.3901219,11.3215368 C42.4053378,11.3291297 42.4203936,11.3373589 42.4353078,11.3457761 L42.4521608,11.3553446 C42.4637772,11.3620668 42.4753338,11.36892 42.4868282,11.3759037 C42.5016006,11.3855305 42.5113118,11.3915919 42.5209686,11.3977406 C42.5318019,11.4040537 42.5425341,11.4110396 42.5531825,11.418126 C42.5677311,11.4282861 42.5824285,11.4383945 42.5970223,11.4487366 L42.6178724,11.4632192 L69.6669206,31.2764876 C71.0593914,32.3904642 71.9,34.0716814 71.9,35.8001383 L71.9,39.2201383 C71.9,43.4419424 68.8557212,46.9428631 64.785393,47.197213 C62.3919435,47.3301824 60.2373377,46.3907162 58.7553317,44.8148967 L58.62,44.6671383 L58.5400369,44.7585016 C57.2133953,46.2134741 55.312598,47.1304014 53.1506024,47.1963261 L52.9,47.2001383 C50.6344665,47.2001383 48.6376294,46.2694346 47.2599631,44.7585016 L47.199,44.6911383 L47.1400369,44.7585016 C46.1630579,45.8299874 44.8746974,46.6096753 43.3999466,46.9725741 L43.399,56.6996598 L51,56.7001383 C52.049341,56.7001383 52.9,57.5507973 52.9,58.6001383 C52.9,59.6494794 52.049341,60.5001383 51,60.5001383 L43.399,60.4996598 L43.4,70.0001383 C43.4,71.0494794 42.549341,71.9001383 41.5,71.9001383 C40.450659,71.9001383 39.6,71.0494794 39.6,70.0001383 L39.6,60.4996598 L32,60.5001383 C30.950659,60.5001383 30.1,59.6494794 30.1,58.6001383 C30.1,57.5507973 30.950659,56.7001383 32,56.7001383 L39.599,56.6996598 L39.5998537,46.9725249 C38.1251863,46.6096049 36.836898,45.829939 35.8599631,44.7585016 L35.799,44.6911383 L35.7400369,44.7585016 C34.4133953,46.2134741 32.512598,47.1304014 30.3506024,47.1963261 L30.1,47.2001383 C27.8344665,47.2001383 25.8376294,46.2694346 24.4599631,44.7585016 L24.378,44.6661383 L24.2433659,44.8148199 C22.8110048,46.3362147 20.7499965,47.2642895 18.4489255,47.2064282 L18.2014813,47.1964382 C14.1939785,46.9459693 11.1,43.3105445 11.1,39.2201383 L11.1,35.8001383 C11.1,34.0716814 11.9406086,32.3904642 13.3973452,31.2272827 L40.3773452,11.4672827 C40.3857092,11.4606104 40.3892984,11.4580154 40.3928951,11.4554342 C40.3968844,11.4530838 40.4001418,11.4507692 40.4034062,11.448465 C40.4070686,11.4453082 40.4114452,11.4422407 40.4158368,11.4391905 L40.4264399,11.4323719 C40.4485625,11.4168556 40.4641627,11.4066097 40.4799391,11.3965813 L40.5071843,11.3801567 L40.5350135,11.3628831 C40.5558675,11.350609 40.5770085,11.3387065 40.5984301,11.3271869 C40.6084101,11.3222727 40.6191463,11.3166089 40.6299363,11.3110473 C40.6476253,11.3014238 40.6649225,11.2928674 40.6823267,11.2845864 L40.7048457,11.2740188 C40.7166513,11.2687907 40.7278435,11.2637866 40.739102,11.2588837 L40.7953067,11.2352759 L40.8232622,11.2241919 L40.8368446,11.2190739 L40.8640419,11.2095562 C40.8789365,11.2042515 40.8939035,11.1991299 40.9089393,11.1941935 C40.9235224,11.1894099 40.9375923,11.1850051 40.9517053,11.180766 L40.970078,11.1752544 C40.9994959,11.1666815 41.0291541,11.1588105 41.0590281,11.1516554 L41.0703612,11.149323 L40.9970377,11.1679186 L41.099,11.1426598 L41.093,11.1436598 C41.1036039,11.1418604 41.1057985,11.1413943 41.1079939,11.1409322 L41.1437345,11.1337404 C41.1663835,11.1292419 41.1823198,11.1264854 41.198278,11.1239345 C41.2185333,11.1209789 41.238573,11.1180921 41.2586517,11.1155244 C41.2694385,11.1139241 41.272428,11.1135573 41.2754171,11.1131978 L41.2952342,11.1106936 C41.3116254,11.1092251 41.3280041,11.1076802 41.3443927,11.1063482 C41.3594892,11.105278 41.3745084,11.1042214 41.3895392,11.1033423 L41.4114894,11.1016874 L41.4415396,11.1005326 L41.499794,11.1000825 C41.5188677,11.1000638 41.5385332,11.1003479 41.5581971,11.1009364 Z M20.3994117,55.8504325 L21.1594117,57.3704325 C21.953728,58.9590651 22.4096805,60.6708756 22.5383131,62.4003555 L30.1,62.4001383 C31.149341,62.4001383 32,63.2507973 32,64.3001383 L32,70.0001383 C32,71.0494794 31.149341,71.9001383 30.1,71.9001383 C29.050659,71.9001383 28.2,71.0494794 28.2,70.0001383 L28.199,66.2001383 L22.5,66.2001383 C22.4314835,66.2001383 22.363814,66.1965116 22.2971731,66.1894397 C21.9491023,67.907842 21.2728031,69.5662073 20.2808956,71.0540687 C19.6988259,71.9271732 18.5191741,72.1631036 17.6460696,71.5810339 C16.7729651,70.9989642 16.5370348,69.8193125 17.1191044,68.946208 C19.0584071,66.0372539 19.3260666,62.2008008 17.7605883,59.0698442 L17.0005883,57.5498442 C16.5313088,56.611285 16.911735,55.4700062 17.8502942,55.0007267 C18.7888533,54.5314471 19.9301321,54.9118733 20.3994117,55.8504325 Z M65.1497058,55.0007267 C66.088265,55.4700062 66.4686912,56.611285 65.9994117,57.5498442 L65.2394117,59.0698442 C63.6739334,62.2008008 63.9415929,66.0372539 65.8808956,68.946208 C66.4629652,69.8193125 66.2270349,70.9989642 65.3539304,71.5810339 C64.4808259,72.1631036 63.3011741,71.9271732 62.7191044,71.0540687 C61.7271969,69.5662073 61.0508977,67.907842 60.7016595,66.1883877 C60.6363067,66.1965051 60.5685776,66.2001383 60.5,66.2001383 L54.8,66.2001383 L54.8,70.0001383 C54.8,70.9995107 54.0284272,71.8186727 53.0484839,71.8944219 L52.9,71.9001383 C51.850659,71.9001383 51,71.0494794 51,70.0001383 L51,64.3001383 C51,63.2507973 51.850659,62.4001383 52.9,62.4001383 L60.4616869,62.4003555 C60.5903195,60.6708756 61.046272,58.9590651 61.8405883,57.3704325 L62.6005883,55.8504325 C63.0698679,54.9118733 64.2111467,54.5314471 65.1497058,55.0007267 Z M52.484,23.3986598 L58.5396204,30.783788 C59.7663168,32.2558236 60.5,34.3901748 60.5,36.3701383 L60.499,39.5716598 L60.5,39.6001383 C60.5,41.7352538 62.1978721,43.4240059 64.3576833,43.4101626 L64.5614813,43.4038384 C66.5493363,43.2795975 68.1,41.4963342 68.1,39.2201383 L68.1,35.8001383 C68.1,35.2485952 67.8006086,34.6498124 67.3573452,34.2929939 L52.484,23.3986598 Z M30.515,23.3986598 L15.7069206,34.2437891 C15.1993914,34.6498124 14.9,35.2485952 14.9,35.8001383 L14.9,39.2201383 C14.9,41.3807321 16.5197293,43.2839141 18.425393,43.4030637 C20.6255965,43.5252972 22.3901414,41.9049496 22.4950631,39.7989593 L22.5000594,39.6153175 C22.5000198,39.6102625 22.5,39.6052027 22.5,39.6001383 L22.5,36.3701383 C22.5,34.3901748 23.2336832,32.2558236 24.4507912,30.7953871 L30.515,23.3986598 Z M37.301,21.1166598 L27.3796204,33.2164887 C26.7366359,33.9880701 26.3,35.2582837 26.3,36.3701383 L26.299,39.5716598 L26.3,39.6001383 C26.3,41.7126517 27.8197136,43.2983813 29.89724,43.3954265 L30.1,43.4001383 C32.2125134,43.4001383 33.798243,41.8804247 33.8952881,39.8028983 L33.9000594,39.6153175 C33.9000198,39.6102625 33.9,39.6052027 33.9,39.6001383 L33.9,35.6101383 C33.9,34.4789087 34.0450903,33.3665498 34.3168967,32.0075177 L34.3477803,31.8771761 L37.301,21.1166598 Z M41.499,20.1776598 L38.032,32.8111383 L37.9715659,33.1222101 C37.8142537,33.9643511 37.7243202,34.6712726 37.7042948,35.3303507 L37.7,35.6101383 L37.7,39.6001383 C37.7,41.7807973 39.319341,43.4001383 41.5,43.4001383 C43.680659,43.4001383 45.3,41.7807973 45.3,39.6001383 L45.3,35.6101383 C45.3,34.8704906 45.2082195,34.084657 45.0284341,33.1222101 L44.967,32.8111383 L41.499,20.1776598 Z M45.699,21.1186598 L48.6522197,31.8771761 L48.6831033,32.0075177 C48.9549097,33.3665498 49.1,34.4789087 49.1,35.6101383 L49.099,39.5716598 L49.1,39.6001383 L49.1047119,39.8028983 C49.201757,41.8804247 50.7874866,43.4001383 52.9,43.4001383 C55.0125134,43.4001383 56.598243,41.8804247 56.6952881,39.8028983 L56.7000594,39.6153175 C56.7000198,39.6102625 56.7,39.6052027 56.7,39.6001383 L56.7,36.3701383 C56.7,35.2582837 56.2633641,33.9880701 55.6107912,33.2048895 L45.699,21.1186598 Z" id="Combined-Shape" fill="url(#linearGradient-1)" fill-rule="nonzero"></path>
        </g>
    </g>
</svg>