<?xml version="1.0" encoding="UTF-8"?>
<svg width="84px" height="84px" viewBox="0 0 84 84" version="1.1" xmlns="http://www.w3.org/2000/svg" xmlns:xlink="http://www.w3.org/1999/xlink">
    <title>wifi</title>
    <defs>
        <linearGradient x1="50%" y1="0%" x2="50%" y2="100%" id="linearGradient-1">
            <stop stop-color="#EFCBA0" offset="0.0628277972%"></stop>
            <stop stop-color="#FFB863" offset="100%"></stop>
        </linearGradient>
    </defs>
    <g id="Page-1" stroke="none" stroke-width="1" fill="none" fill-rule="evenodd">
        <g id="wifi" transform="translate(0.500000, 0.350000)">
            <rect id="Rectangle-Copy" fill="#FFFFFF" x="0" y="0" width="83" height="83"></rect>
            <path d="M61.5597541,39.6221392 C62.6662541,40.5373344 62.8213373,42.1762423 61.9061421,43.2827423 C60.9909468,44.3892424 59.352039,44.5443256 58.2455389,43.6291303 C48.605875,35.6560854 34.6020645,35.6560854 24.9624006,43.6291303 C23.8559005,44.5443256 22.2169927,44.3892424 21.3017974,43.2827423 C20.3866022,42.1762423 20.5416854,40.5373344 21.6481854,39.6221392 C33.2110301,30.0584158 49.9969094,30.0584158 61.5597541,39.6221392 Z M70.7124603,30.5063835 C71.7929472,31.4521492 71.9021603,33.0947514 70.9563946,34.1752383 C70.0106289,35.2557252 68.3680266,35.3649383 67.2875397,34.4191726 C52.5516513,21.5206379 30.4483487,21.5206379 15.7124603,34.4191726 C14.6319734,35.3649383 12.9893711,35.2557252 12.0436054,34.1752383 C11.0978397,33.0947514 11.2070528,31.4521492 12.2875397,30.5063835 C28.9841879,15.8915676 54.0158121,15.8915676 70.7124603,30.5063835 Z M30.9818058,48.6897919 C37.2890301,44.2401168 45.7369623,44.2401168 52.0441866,48.6897919 C53.2175213,49.5175662 53.4976534,51.1397856 52.6698791,52.3131203 C51.8421048,53.486455 50.2198854,53.7665871 49.0465506,52.9388128 C44.5366227,49.7571098 38.4893698,49.7571098 33.9794418,52.9388128 C32.8061071,53.7665871 31.1838877,53.486455 30.3561134,52.3131203 C29.5283391,51.1397856 29.8084711,49.5175662 30.9818058,48.6897919 Z M41.5259924,58.2547284 C42.9619328,58.2547284 44.1259924,59.4187881 44.1259924,60.8547284 C44.1259924,62.2354403 43.0497539,63.3647832 41.6904205,63.4496132 L41.5,63.4547284 C40.0640597,63.4547284 38.9,62.2906688 38.9,60.8547284 C38.9,59.4740165 39.9762386,58.3446736 41.3355719,58.2598436 L41.5259924,58.2547284 Z" id="Combined-Shape" fill="url(#linearGradient-1)" fill-rule="nonzero"></path>
        </g>
    </g>
</svg>