<?xml version="1.0" encoding="UTF-8"?>
<svg width="1000px" height="1000px" viewBox="0 0 1000 1000" version="1.1" xmlns="http://www.w3.org/2000/svg" xmlns:xlink="http://www.w3.org/1999/xlink">
    <title>favicon</title>
    <defs>
        <path d="M274.617728,0.0342076774 L281.403018,0 L281.403018,0 L718.592701,0 L718.592701,0 L725.377991,0.0342076774 L725.377991,0.0342076774 L735.178177,0.149450777 L735.178177,0.149450777 L741.467032,0.268756895 L741.467032,0.268756895 L747.565988,0.421929982 L747.565988,0.421929982 L753.480003,0.608871521 L753.480003,0.608871521 L759.214036,0.829482994 L759.214036,0.829482994 L764.773044,1.08366588 L764.773044,1.08366588 L770.161984,1.37132167 L770.161984,1.37132167 L775.385815,1.69235184 L775.385815,1.69235184 L780.449494,2.04665787 L780.449494,2.04665787 L785.357979,2.43414124 L785.357979,2.43414124 L790.116227,2.85470345 L790.116227,2.85470345 L794.729197,3.30824596 L794.729197,3.30824596 L799.201846,3.79467026 L799.201846,3.79467026 L803.539131,4.31387783 L803.539131,4.31387783 L807.746011,4.86577016 L807.746011,4.86577016 L811.827443,5.45024873 L811.827443,5.45024873 L815.788386,6.06721502 L815.788386,6.06721502 L819.633795,6.71657051 L819.633795,6.71657051 L823.368631,7.39821668 C823.982164,7.51450979 824.591297,7.63214425 825.196132,7.75111799 L828.774401,8.48101547 L828.774401,8.48101547 L832.25449,9.24295733 L832.25449,9.24295733 L835.641356,10.0368451 C836.198341,10.1718164 836.751648,10.3081147 837.30138,10.4457379 L840.557708,11.2873597 L840.557708,11.2873597 L843.733208,12.1606811 L843.733208,12.1606811 L846.832838,13.0656035 L846.832838,13.0656035 L849.861554,14.0020285 C850.360706,14.1607191 850.85711,14.3207182 851.35087,14.4820237 L854.282513,15.4655178 L854.282513,15.4655178 L857.155638,16.4802681 C857.629891,16.6519924 858.101912,16.8250149 858.571805,16.9993336 L861.366448,18.0607836 L861.366448,18.0607836 L864.114966,19.1532435 L864.114966,19.1532435 L866.822319,20.2766149 L866.822319,20.2766149 L869.493462,21.4307992 L869.493462,21.4307992 L872.133355,22.6156979 L872.133355,22.6156979 L876.045444,24.4504199 L876.045444,24.4504199 L878.628899,25.7116736 L878.628899,25.7116736 L882.479571,27.6604663 L882.479571,27.6604663 L886.315703,29.677258 L886.315703,29.677258 C922.529849,49.0447956 950.950924,77.46587 970.318461,113.680017 L972.335253,117.516148 L972.335253,117.516148 L974.284046,121.36682 L974.284046,121.36682 L975.5453,123.950276 L975.5453,123.950276 L977.380022,127.862364 L977.380022,127.862364 L979.145858,131.833613 L979.145858,131.833613 L980.284648,134.522241 L980.284648,134.522241 L981.392576,137.249557 C981.574653,137.707609 981.755441,138.167479 981.934936,138.629272 L982.996386,141.423915 L982.996386,141.423915 L984.026727,144.269639 L984.026727,144.269639 L985.025862,147.171404 C985.189778,147.659976 985.35239,148.151091 985.513696,148.64485 L986.465835,151.639969 C986.621907,152.144721 986.776668,152.652324 986.930116,153.162882 L987.835038,156.262511 L987.835038,156.262511 L988.70836,159.438011 L988.70836,159.438011 L989.549982,162.694339 L989.549982,162.694339 L990.359805,166.036453 C990.492121,166.600897 990.623107,167.169121 990.752762,167.74123 L991.514704,171.221318 L991.514704,171.221318 L992.244601,174.799587 L992.244601,174.799587 L992.942356,178.480995 C993.055964,179.103433 993.168229,179.730375 993.279149,180.361924 L993.928504,184.207334 L993.928504,184.207334 L994.545471,188.168276 L994.545471,188.168276 L995.129949,192.249708 L995.129949,192.249708 L995.681842,196.456588 L995.681842,196.456588 L996.201049,200.793874 L996.201049,200.793874 L996.687473,205.266522 L996.687473,205.266522 L997.141016,209.879492 L997.141016,209.879492 L997.561578,214.637741 L997.561578,214.637741 L997.949062,219.546225 L997.949062,219.546225 L998.303368,224.609904 L998.303368,224.609904 L998.624398,229.833735 L998.624398,229.833735 L998.912054,235.222676 L998.912054,235.222676 L999.280745,243.626512 L999.280745,243.626512 L999.484534,249.449916 L999.484534,249.449916 L999.654603,255.455782 L999.654603,255.455782 L999.790855,261.649068 L999.790855,261.649068 L999.893191,268.034731 L999.893191,268.034731 L999.961512,274.617728 L999.961512,274.617728 L1000,284.873072 L1000,284.873072 L1000,718.592701 L1000,718.592701 L999.961512,725.377991 L999.961512,725.377991 L999.846269,735.178177 L999.846269,735.178177 L999.726963,741.467032 L999.726963,741.467032 L999.573789,747.565988 L999.573789,747.565988 L999.386848,753.480003 L999.386848,753.480003 L999.166236,759.214036 L999.166236,759.214036 L998.912054,764.773044 L998.912054,764.773044 L998.624398,770.161984 L998.624398,770.161984 L998.303368,775.385815 L998.303368,775.385815 L997.949062,780.449494 L997.949062,780.449494 L997.561578,785.357979 L997.561578,785.357979 L997.141016,790.116227 L997.141016,790.116227 L996.687473,794.729197 L996.687473,794.729197 L996.201049,799.201846 L996.201049,799.201846 L995.681842,803.539131 L995.681842,803.539131 L995.129949,807.746011 L995.129949,807.746011 L994.545471,811.827443 L994.545471,811.827443 L993.928504,815.788386 L993.928504,815.788386 L993.279149,819.633795 L993.279149,819.633795 L992.597503,823.368631 C992.48121,823.982164 992.363575,824.591297 992.244601,825.196132 L991.514704,828.774401 L991.514704,828.774401 L990.752762,832.25449 L990.752762,832.25449 L989.958874,835.641356 C989.823903,836.198341 989.687605,836.751648 989.549982,837.30138 L988.70836,840.557708 L988.70836,840.557708 L987.835038,843.733208 L987.835038,843.733208 L986.930116,846.832838 L986.930116,846.832838 L985.993691,849.861554 C985.835,850.360706 985.675001,850.85711 985.513696,851.35087 L984.530202,854.282513 L984.530202,854.282513 L983.515451,857.155638 C983.343727,857.629891 983.170705,858.101912 982.996386,858.571805 L981.934936,861.366448 L981.934936,861.366448 L980.842476,864.114966 L980.842476,864.114966 L979.719105,866.822319 L979.719105,866.822319 L978.56492,869.493462 L978.56492,869.493462 L977.380022,872.133355 L977.380022,872.133355 L975.5453,876.045444 L975.5453,876.045444 L974.284046,878.628899 L974.284046,878.628899 L972.335253,882.479571 L972.335253,882.479571 L970.318461,886.315703 L970.318461,886.315703 C950.950924,922.529849 922.529849,950.950924 886.315703,970.318461 L882.479571,972.335253 L882.479571,972.335253 L878.628899,974.284046 L878.628899,974.284046 L876.045444,975.5453 L876.045444,975.5453 L872.133355,977.380022 L872.133355,977.380022 L868.162107,979.145858 L868.162107,979.145858 L865.473479,980.284648 L865.473479,980.284648 L862.746163,981.392576 C862.288111,981.574653 861.82824,981.755441 861.366448,981.934936 L858.571805,982.996386 L858.571805,982.996386 L855.72608,984.026727 L855.72608,984.026727 L852.824316,985.025862 C852.335743,985.189778 851.844629,985.35239 851.35087,985.513696 L848.35575,986.465835 C847.850998,986.621907 847.343395,986.776668 846.832838,986.930116 L843.733208,987.835038 L843.733208,987.835038 L840.557708,988.70836 L840.557708,988.70836 L837.30138,989.549982 L837.30138,989.549982 L833.959266,990.359805 C833.394823,990.492121 832.826598,990.623107 832.25449,990.752762 L828.774401,991.514704 L828.774401,991.514704 L825.196132,992.244601 L825.196132,992.244601 L821.514725,992.942356 C820.892287,993.055964 820.265345,993.168229 819.633795,993.279149 L815.788386,993.928504 L815.788386,993.928504 L811.827443,994.545471 L811.827443,994.545471 L807.746011,995.129949 L807.746011,995.129949 L803.539131,995.681842 L803.539131,995.681842 L799.201846,996.201049 L799.201846,996.201049 L794.729197,996.687473 L794.729197,996.687473 L790.116227,997.141016 L790.116227,997.141016 L785.357979,997.561578 L785.357979,997.561578 L780.449494,997.949062 L780.449494,997.949062 L775.385815,998.303368 L775.385815,998.303368 L770.161984,998.624398 L770.161984,998.624398 L764.773044,998.912054 L764.773044,998.912054 L756.369208,999.280745 L756.369208,999.280745 L750.545803,999.484534 L750.545803,999.484534 L744.539937,999.654603 L744.539937,999.654603 L738.346651,999.790855 L738.346651,999.790855 L731.960989,999.893191 L731.960989,999.893191 L725.377991,999.961512 L725.377991,999.961512 L715.122647,1000 L715.122647,1000 L281.403018,1000 L281.403018,1000 L274.617728,999.961512 L274.617728,999.961512 L264.817542,999.846269 L264.817542,999.846269 L258.528688,999.726963 L258.528688,999.726963 L252.429732,999.573789 L252.429732,999.573789 L246.515716,999.386848 L246.515716,999.386848 L240.781683,999.166236 L240.781683,999.166236 L235.222676,998.912054 L235.222676,998.912054 L229.833735,998.624398 L229.833735,998.624398 L224.609904,998.303368 L224.609904,998.303368 L219.546225,997.949062 L219.546225,997.949062 L214.637741,997.561578 L214.637741,997.561578 L209.879492,997.141016 L209.879492,997.141016 L205.266522,996.687473 L205.266522,996.687473 L200.793874,996.201049 L200.793874,996.201049 L196.456588,995.681842 L196.456588,995.681842 L192.249708,995.129949 L192.249708,995.129949 L188.168276,994.545471 L188.168276,994.545471 L184.207334,993.928504 L184.207334,993.928504 L180.361924,993.279149 L180.361924,993.279149 L176.627089,992.597503 C176.013555,992.48121 175.404423,992.363575 174.799587,992.244601 L171.221318,991.514704 L171.221318,991.514704 L167.74123,990.752762 L167.74123,990.752762 L164.354363,989.958874 C163.797379,989.823903 163.244072,989.687605 162.694339,989.549982 L159.438011,988.70836 L159.438011,988.70836 L156.262511,987.835038 L156.262511,987.835038 L153.162882,986.930116 L153.162882,986.930116 L150.134165,985.993691 C149.635013,985.835 149.138609,985.675001 148.64485,985.513696 L145.713207,984.530202 L145.713207,984.530202 L142.840082,983.515451 C142.365829,983.343727 141.893807,983.170705 141.423915,982.996386 L138.629272,981.934936 L138.629272,981.934936 L135.880753,980.842476 L135.880753,980.842476 L133.173401,979.719105 L133.173401,979.719105 L130.502257,978.56492 L130.502257,978.56492 L127.862364,977.380022 L127.862364,977.380022 L123.950276,975.5453 L123.950276,975.5453 L121.36682,974.284046 L121.36682,974.284046 L117.516148,972.335253 L117.516148,972.335253 L113.680017,970.318461 L113.680017,970.318461 C77.46587,950.950924 49.0447956,922.529849 29.677258,886.315703 L27.6604663,882.479571 L27.6604663,882.479571 L25.7116736,878.628899 L25.7116736,878.628899 L24.4504199,876.045444 L24.4504199,876.045444 L22.6156979,872.133355 L22.6156979,872.133355 L20.8498616,868.162107 L20.8498616,868.162107 L19.7110715,865.473479 L19.7110715,865.473479 L18.6031435,862.746163 C18.4210661,862.288111 18.2402788,861.82824 18.0607836,861.366448 L16.9993336,858.571805 L16.9993336,858.571805 L15.9689921,855.72608 L15.9689921,855.72608 L14.9698576,852.824316 C14.8059412,852.335743 14.6433292,851.844629 14.4820237,851.35087 L13.5298844,848.35575 C13.3738129,847.850998 13.2190519,847.343395 13.0656035,846.832838 L12.1606811,843.733208 L12.1606811,843.733208 L11.2873597,840.557708 L11.2873597,840.557708 L10.4457379,837.30138 L10.4457379,837.30138 L9.63591413,833.959266 C9.50359882,833.394823 9.37261254,832.826598 9.24295733,832.25449 L8.48101547,828.774401 L8.48101547,828.774401 L7.75111799,825.196132 L7.75111799,825.196132 L7.05336342,821.514725 C6.93975504,820.892287 6.82749005,820.265345 6.71657051,819.633795 L6.06721502,815.788386 L6.06721502,815.788386 L5.45024873,811.827443 L5.45024873,811.827443 L4.86577016,807.746011 L4.86577016,807.746011 L4.31387783,803.539131 L4.31387783,803.539131 L3.79467026,799.201846 L3.79467026,799.201846 L3.30824596,794.729197 L3.30824596,794.729197 L2.85470345,790.116227 L2.85470345,790.116227 L2.43414124,785.357979 L2.43414124,785.357979 L2.04665787,780.449494 L2.04665787,780.449494 L1.69235184,775.385815 L1.69235184,775.385815 L1.37132167,770.161984 L1.37132167,770.161984 L1.08366588,764.773044 L1.08366588,764.773044 L0.714974673,756.369208 L0.714974673,756.369208 L0.511185852,750.545803 L0.511185852,750.545803 L0.341116224,744.539937 L0.341116224,744.539937 L0.204864307,738.346651 L0.204864307,738.346651 L0.102528619,731.960989 L0.102528619,731.960989 L0.0342076774,725.377991 L0.0342076774,725.377991 L0,718.592701 L0,718.592701 L0,281.403018 L0,281.403018 L0.0342076774,274.617728 L0.0342076774,274.617728 L0.149450777,264.817542 L0.149450777,264.817542 L0.268756895,258.528688 L0.268756895,258.528688 L0.421929982,252.429732 L0.421929982,252.429732 L0.608871521,246.515716 L0.608871521,246.515716 L0.829482994,240.781683 L0.829482994,240.781683 L1.08366588,235.222676 L1.08366588,235.222676 L1.37132167,229.833735 L1.37132167,229.833735 L1.69235184,224.609904 L1.69235184,224.609904 L2.04665787,219.546225 L2.04665787,219.546225 L2.43414124,214.637741 L2.43414124,214.637741 L2.85470345,209.879492 L2.85470345,209.879492 L3.30824596,205.266522 L3.30824596,205.266522 L3.79467026,200.793874 L3.79467026,200.793874 L4.31387783,196.456588 L4.31387783,196.456588 L4.86577016,192.249708 L4.86577016,192.249708 L5.45024873,188.168276 L5.45024873,188.168276 L6.06721502,184.207334 L6.06721502,184.207334 L6.71657051,180.361924 L6.71657051,180.361924 L7.39821668,176.627089 C7.51450979,176.013555 7.63214425,175.404423 7.75111799,174.799587 L8.48101547,171.221318 L8.48101547,171.221318 L9.24295733,167.74123 L9.24295733,167.74123 L10.0368451,164.354363 C10.1718164,163.797379 10.3081147,163.244072 10.4457379,162.694339 L11.2873597,159.438011 L11.2873597,159.438011 L12.1606811,156.262511 L12.1606811,156.262511 L13.0656035,153.162882 L13.0656035,153.162882 L14.0020285,150.134165 C14.1607191,149.635013 14.3207182,149.138609 14.4820237,148.64485 L15.4655178,145.713207 L15.4655178,145.713207 L16.4802681,142.840082 C16.6519924,142.365829 16.8250149,141.893807 16.9993336,141.423915 L18.0607836,138.629272 L18.0607836,138.629272 L19.1532435,135.880753 L19.1532435,135.880753 L20.2766149,133.173401 L20.2766149,133.173401 L21.4307992,130.502257 L21.4307992,130.502257 L22.6156979,127.862364 L22.6156979,127.862364 L24.4504199,123.950276 L24.4504199,123.950276 L25.7116736,121.36682 L25.7116736,121.36682 L27.6604663,117.516148 L27.6604663,117.516148 L29.677258,113.680017 L29.677258,113.680017 C49.0447956,77.46587 77.46587,49.0447956 113.680017,29.677258 L117.516148,27.6604663 L117.516148,27.6604663 L121.36682,25.7116736 L121.36682,25.7116736 L123.950276,24.4504199 L123.950276,24.4504199 L127.862364,22.6156979 L127.862364,22.6156979 L131.833613,20.8498616 L131.833613,20.8498616 L134.522241,19.7110715 L134.522241,19.7110715 L137.249557,18.6031435 C137.707609,18.4210661 138.167479,18.2402788 138.629272,18.0607836 L141.423915,16.9993336 L141.423915,16.9993336 L144.269639,15.9689921 L144.269639,15.9689921 L147.171404,14.9698576 C147.659976,14.8059412 148.151091,14.6433292 148.64485,14.4820237 L151.639969,13.5298844 C152.144721,13.3738129 152.652324,13.2190519 153.162882,13.0656035 L156.262511,12.1606811 L156.262511,12.1606811 L159.438011,11.2873597 L159.438011,11.2873597 L162.694339,10.4457379 L162.694339,10.4457379 L166.036453,9.63591413 C166.600897,9.50359882 167.169121,9.37261254 167.74123,9.24295733 L171.221318,8.48101547 L171.221318,8.48101547 L174.799587,7.75111799 L174.799587,7.75111799 L178.480995,7.05336342 C179.103433,6.93975504 179.730375,6.82749005 180.361924,6.71657051 L184.207334,6.06721502 L184.207334,6.06721502 L188.168276,5.45024873 L188.168276,5.45024873 L192.249708,4.86577016 L192.249708,4.86577016 L196.456588,4.31387783 L196.456588,4.31387783 L200.793874,3.79467026 L200.793874,3.79467026 L205.266522,3.30824596 L205.266522,3.30824596 L209.879492,2.85470345 L209.879492,2.85470345 L214.637741,2.43414124 L214.637741,2.43414124 L219.546225,2.04665787 L219.546225,2.04665787 L224.609904,1.69235184 L224.609904,1.69235184 L229.833735,1.37132167 L229.833735,1.37132167 L235.222676,1.08366588 L235.222676,1.08366588 L243.626512,0.714974673 L243.626512,0.714974673 L249.449916,0.511185852 L249.449916,0.511185852 L255.455782,0.341116224 L255.455782,0.341116224 L261.649068,0.204864307 L261.649068,0.204864307 L268.034731,0.102528619 L268.034731,0.102528619 L274.617728,0.0342076774 L274.617728,0.0342076774 Z" id="path-1"></path>
    </defs>
    <g id="favicon" stroke="none" stroke-width="1" fill="none" fill-rule="evenodd">
        <g id="ROUND">
            <mask id="mask-2" fill="white">
                <use xlink:href="#path-1"></use>
            </mask>
            <use id="Mask" fill="#002E3B" fill-rule="nonzero" xlink:href="#path-1"></use>
            <g id="Logo-trico4" mask="url(#mask-2)">
                <rect id="Rectangle" fill="#2A1111" x="0" y="0" width="1000" height="1000"></rect>
                <g id="logo-le-celtic-noir" transform="translate(143.501131, 143.500000)" fill="#FFFFFF" fill-rule="nonzero">
                    <path d="M641.483109,441.826088 C641.840469,462.620722 637.445864,482.372687 627.840162,500.864851 C616.483859,522.731562 600.133583,539.914166 578.861714,552.347069 C565.193889,560.337873 550.492439,565.508259 534.76641,567.44659 C503.187693,571.334557 474.63974,563.949906 450.133551,543.324902 C431.890181,527.974325 421.149076,508.20653 418.129623,484.460293 C415.535385,464.081822 419.504775,445.001601 430.483366,427.604129 C440.968892,410.989229 455.297152,398.995106 474.902104,395.168206 C497.904218,390.676348 517.986402,396.39182 533.151512,415.2142 C540.900308,424.828947 544.11427,435.961338 542.13523,448.229133 C540.357485,459.234867 534.526664,467.438276 523.851148,471.5004 C517.972831,473.735021 512.123915,473.676213 506.926385,469.439934 C504.060733,467.105798 503.160552,464.052419 503.906935,460.487883 C504.433926,457.970542 505.227803,455.48939 505.546711,452.947169 C506.218454,447.609412 502.615469,442.497831 497.087723,440.554977 C491.616522,438.634742 486.658741,440.091316 482.022128,443.008988 C470.297157,450.384594 464.120285,464.762613 466.870588,478.43496 C470.543688,496.691901 482.051532,508.498295 498.770473,515.227037 C514.562092,521.582588 530.464538,519.926979 545.656792,512.901948 C572.322962,500.570823 587.209878,479.142892 591.082012,450.40495 C593.913739,429.375089 589.044165,409.532655 577.472992,391.730329 C560.699769,365.921367 536.937701,350.14784 506.40392,345.916084 C471.742421,341.114365 440.353694,349.410508 413.377664,372.299533 C395.523317,387.446551 382.75341,406.201079 375.348403,428.386698 C371.397106,440.227021 367.977323,452.277688 364.95787,464.393945 C357.801656,493.111532 343.036876,517.221912 321.817028,537.593597 C306.823811,551.987449 289.844766,563.33923 270.536107,571.115167 C247.834805,580.257208 224.323793,583.353558 200.07997,580.01746 C177.647818,576.930158 156.821517,569.321591 138.039849,556.574303 C115.105586,541.011121 97.9817884,520.682407 88.2833545,494.497992 C83.1378468,480.610774 81.0751201,466.189784 81.2583228,451.391078 C81.5274725,429.476868 86.7611889,408.915194 98.345932,390.260184 C115.209627,363.103211 139.150374,345.823353 171.070616,341.245547 C202.549814,336.728809 229.880942,345.931917 252.222623,368.820945 C262.583753,379.435391 268.149948,392.42695 270.092802,407.085429 C271.800432,419.950329 270.710263,432.498583 266.711468,444.856849 C258.528414,470.134296 233.397981,485.455469 207.532475,480.816596 C192.276893,478.079863 182.196221,468.238939 179.654001,453.478684 C178.611329,447.437519 178.823934,441.50944 182.610123,436.320958 C185.710999,432.071109 190.153098,430.582871 195.228491,431.170928 C196.630784,431.333773 198.030814,432.227172 199.252166,433.054975 C200.321979,433.781002 201.228945,434.812364 202.054488,435.832419 C205.22774,439.756575 209.269508,440.855792 214.044087,439.648011 C218.762121,438.453801 221.90597,435.495415 223.287906,430.858805 C225.328015,424.005667 224.022979,417.3968 221.324697,411.0028 C214.494177,394.813109 200.484826,388.30376 183.655057,388.941577 C170.419228,389.441426 159.562772,395.505208 150.325738,404.631418 C139.604988,415.227771 132.831012,427.918515 131.254564,443.020296 C129.594431,458.927267 132.645547,473.961196 140.880621,487.757942 C151.863736,506.159636 167.872485,518.63325 187.857411,525.7578 C215.919087,535.761572 242.93583,532.027403 268.403266,517.382497 C292.307824,503.63777 307.690065,482.806947 316.108342,456.719787 C321.052553,441.394091 322.491033,425.649968 321.588591,409.61634 C320.095828,383.103971 309.696248,360.348387 292.224139,340.745698 C283.027817,330.427542 273.250221,320.627328 263.669399,310.657483 C249.166983,295.571533 237.071082,278.857114 228.829222,259.521314 C223.65205,247.373392 220.268455,234.748239 218.673913,221.614189 C217.221862,209.633638 217.022827,197.639516 218.083593,185.649917 C219.960855,164.40519 225.954523,144.381814 236.582541,125.812752 C246.622501,108.270528 259.573348,93.3248074 276.04802,81.5319821 C293.12432,69.311684 311.944439,61.2485038 332.682531,57.6477793 C354.949574,53.7801669 376.834381,55.1892444 398.113035,62.7661459 C428.33243,73.525346 451.311929,92.7842463 465.287354,122.003945 C474.05168,140.330999 476.78615,159.773102 474.7189,179.88921 C472.880087,197.770698 466.927133,214.148114 455.812835,228.417568 C441.418982,246.891637 422.736832,258.302224 399.43164,261.53202 C378.725213,264.402196 359.427862,260.251863 342.324421,248.042874 C325.277524,235.874596 317.940369,218.710087 318.293204,198.046633 C318.476407,187.237674 321.314917,177.168311 327.595829,168.270541 C336.251591,156.005008 349.365285,151.06532 362.757175,153.652775 C369.610313,154.975906 375.588149,158.162728 379.116499,164.633628 C381.088753,168.250185 381.455158,172.140415 380.48034,176.15278 C379.752053,179.154138 377.820507,181.087944 375.03628,182.214301 C373.525424,182.824977 371.985164,183.403988 370.410978,183.81789 C361.255366,186.228928 360.63112,193.948321 362.567189,199.641175 C365.417008,208.023263 372.014567,212.429175 380.324277,213.944555 C394.292917,216.491299 405.698983,211.558397 414.481401,200.647659 C423.148474,189.87715 426.941448,177.457817 425.491658,163.68595 C424.333637,152.68248 419.977483,142.816676 413.255527,134.086276 C396.93918,112.886784 375.11318,103.559279 348.675448,105.210365 C326.179967,106.612657 307.884577,116.951169 292.94338,133.419056 C279.843256,147.85588 271.75972,164.873375 268.975491,184.139061 C264.935985,212.094434 270.576819,238.052673 286.558426,261.489047 C296.786112,276.484526 310.426797,287.73679 326.326981,296.320176 C342.236213,304.910346 359.194901,310.040022 377.214357,311.673014 C394.600518,313.249462 411.559207,311.132453 428.282673,306.285497 C439.740755,302.965232 451.253125,299.798765 462.842391,296.976087 C474.911149,294.035797 487.235488,293.825453 499.598279,294.571834 C511.755247,295.304645 523.697348,297.200001 535.401964,300.579073 C556.359449,306.636071 574.783758,317.232424 591.088797,331.628538 C607.669774,346.264395 620.885246,363.410811 629.832775,383.716907 C636.927921,399.825175 640.85434,416.67982 641.471801,434.283111 C641.557746,436.795929 641.483109,439.311007 641.483109,441.826088" id="Path"></path>
                    <path d="M356.498869,23.4205417 C267.530213,23.4205417 183.885745,58.0662064 120.977106,120.977106 C58.0662064,183.888006 23.4205417,267.530213 23.4205417,356.501131 C23.4205417,445.469787 58.0662064,529.111994 120.977106,592.022893 C183.885745,654.933793 267.530213,689.579459 356.498869,689.579459 C445.467524,689.579459 529.111994,654.933793 592.022893,592.022893 C654.93153,529.111994 689.579459,445.469787 689.579459,356.501131 C689.579459,267.530213 654.93153,183.888006 592.022893,120.977106 C529.111994,58.0662064 445.467524,23.4205417 356.498869,23.4205417 M356.498869,713 C308.377627,713 261.688083,703.572977 217.730746,684.979035 C175.27748,667.022909 137.153226,641.32025 104.416488,608.583511 C71.6797497,575.846773 45.9770906,537.722519 28.0209649,495.269253 C9.42702249,451.309656 0,404.62237 0,356.501131 C0,308.377627 9.42702249,261.690345 28.0209649,217.730746 C45.9770906,175.27748 71.6797497,137.153226 104.416488,104.416488 C137.153226,71.6797497 175.27748,45.9770906 217.730746,28.0209649 C261.688083,9.42928424 308.377627,0 356.498869,0 C404.62011,0 451.309656,9.42928424 495.269253,28.0209649 C537.720259,45.9770906 575.844513,71.6797497 608.583511,104.416488 C641.317987,137.153226 667.022909,175.27748 684.976772,217.730746 C703.570714,261.690345 712.997737,308.377627 712.997737,356.501131 C712.997737,404.62237 703.570714,451.309656 684.976772,495.269253 C667.022909,537.722519 641.317987,575.846773 608.583511,608.583511 C575.844513,641.32025 537.720259,667.022909 495.269253,684.979035 C451.309656,703.572977 404.62011,713 356.498869,713" id="Shape"></path>
                </g>
            </g>
        </g>
    </g>
</svg>