<?xml version="1.0" encoding="UTF-8"?>
<svg width="1000px" height="1000px" viewBox="0 0 1000 1000" version="1.1" xmlns="http://www.w3.org/2000/svg" xmlns:xlink="http://www.w3.org/1999/xlink">
    <title>favicon</title>
    <defs>
        <path d="M274.617728,0.0342076774 L281.403018,0 L281.403018,0 L718.592701,0 L718.592701,0 L725.377991,0.0342076774 L725.377991,0.0342076774 L735.178177,0.149450777 L735.178177,0.149450777 L741.467032,0.268756895 L741.467032,0.268756895 L747.565988,0.421929982 L747.565988,0.421929982 L753.480003,0.608871521 L753.480003,0.608871521 L759.214036,0.829482994 L759.214036,0.829482994 L764.773044,1.08366588 L764.773044,1.08366588 L770.161984,1.37132167 L770.161984,1.37132167 L775.385815,1.69235184 L775.385815,1.69235184 L780.449494,2.04665787 L780.449494,2.04665787 L785.357979,2.43414124 L785.357979,2.43414124 L790.116227,2.85470345 L790.116227,2.85470345 L794.729197,3.30824596 L794.729197,3.30824596 L799.201846,3.79467026 L799.201846,3.79467026 L803.539131,4.31387783 L803.539131,4.31387783 L807.746011,4.86577016 L807.746011,4.86577016 L811.827443,5.45024873 L811.827443,5.45024873 L815.788386,6.06721502 L815.788386,6.06721502 L819.633795,6.71657051 L819.633795,6.71657051 L823.368631,7.39821668 C823.982164,7.51450979 824.591297,7.63214425 825.196132,7.75111799 L828.774401,8.48101547 L828.774401,8.48101547 L832.25449,9.24295733 L832.25449,9.24295733 L835.641356,10.0368451 C836.198341,10.1718164 836.751648,10.3081147 837.30138,10.4457379 L840.557708,11.2873597 L840.557708,11.2873597 L843.733208,12.1606811 L843.733208,12.1606811 L846.832838,13.0656035 L846.832838,13.0656035 L849.861554,14.0020285 C850.360706,14.1607191 850.85711,14.3207182 851.35087,14.4820237 L854.282513,15.4655178 L854.282513,15.4655178 L857.155638,16.4802681 C857.629891,16.6519924 858.101912,16.8250149 858.571805,16.9993336 L861.366448,18.0607836 L861.366448,18.0607836 L864.114966,19.1532435 L864.114966,19.1532435 L866.822319,20.2766149 L866.822319,20.2766149 L869.493462,21.4307992 L869.493462,21.4307992 L872.133355,22.6156979 L872.133355,22.6156979 L876.045444,24.4504199 L876.045444,24.4504199 L878.628899,25.7116736 L878.628899,25.7116736 L882.479571,27.6604663 L882.479571,27.6604663 L886.315703,29.677258 L886.315703,29.677258 C922.529849,49.0447956 950.950924,77.46587 970.318461,113.680017 L972.335253,117.516148 L972.335253,117.516148 L974.284046,121.36682 L974.284046,121.36682 L975.5453,123.950276 L975.5453,123.950276 L977.380022,127.862364 L977.380022,127.862364 L979.145858,131.833613 L979.145858,131.833613 L980.284648,134.522241 L980.284648,134.522241 L981.392576,137.249557 C981.574653,137.707609 981.755441,138.167479 981.934936,138.629272 L982.996386,141.423915 L982.996386,141.423915 L984.026727,144.269639 L984.026727,144.269639 L985.025862,147.171404 C985.189778,147.659976 985.35239,148.151091 985.513696,148.64485 L986.465835,151.639969 C986.621907,152.144721 986.776668,152.652324 986.930116,153.162882 L987.835038,156.262511 L987.835038,156.262511 L988.70836,159.438011 L988.70836,159.438011 L989.549982,162.694339 L989.549982,162.694339 L990.359805,166.036453 C990.492121,166.600897 990.623107,167.169121 990.752762,167.74123 L991.514704,171.221318 L991.514704,171.221318 L992.244601,174.799587 L992.244601,174.799587 L992.942356,178.480995 C993.055964,179.103433 993.168229,179.730375 993.279149,180.361924 L993.928504,184.207334 L993.928504,184.207334 L994.545471,188.168276 L994.545471,188.168276 L995.129949,192.249708 L995.129949,192.249708 L995.681842,196.456588 L995.681842,196.456588 L996.201049,200.793874 L996.201049,200.793874 L996.687473,205.266522 L996.687473,205.266522 L997.141016,209.879492 L997.141016,209.879492 L997.561578,214.637741 L997.561578,214.637741 L997.949062,219.546225 L997.949062,219.546225 L998.303368,224.609904 L998.303368,224.609904 L998.624398,229.833735 L998.624398,229.833735 L998.912054,235.222676 L998.912054,235.222676 L999.280745,243.626512 L999.280745,243.626512 L999.484534,249.449916 L999.484534,249.449916 L999.654603,255.455782 L999.654603,255.455782 L999.790855,261.649068 L999.790855,261.649068 L999.893191,268.034731 L999.893191,268.034731 L999.961512,274.617728 L999.961512,274.617728 L1000,284.873072 L1000,284.873072 L1000,718.592701 L1000,718.592701 L999.961512,725.377991 L999.961512,725.377991 L999.846269,735.178177 L999.846269,735.178177 L999.726963,741.467032 L999.726963,741.467032 L999.573789,747.565988 L999.573789,747.565988 L999.386848,753.480003 L999.386848,753.480003 L999.166236,759.214036 L999.166236,759.214036 L998.912054,764.773044 L998.912054,764.773044 L998.624398,770.161984 L998.624398,770.161984 L998.303368,775.385815 L998.303368,775.385815 L997.949062,780.449494 L997.949062,780.449494 L997.561578,785.357979 L997.561578,785.357979 L997.141016,790.116227 L997.141016,790.116227 L996.687473,794.729197 L996.687473,794.729197 L996.201049,799.201846 L996.201049,799.201846 L995.681842,803.539131 L995.681842,803.539131 L995.129949,807.746011 L995.129949,807.746011 L994.545471,811.827443 L994.545471,811.827443 L993.928504,815.788386 L993.928504,815.788386 L993.279149,819.633795 L993.279149,819.633795 L992.597503,823.368631 C992.48121,823.982164 992.363575,824.591297 992.244601,825.196132 L991.514704,828.774401 L991.514704,828.774401 L990.752762,832.25449 L990.752762,832.25449 L989.958874,835.641356 C989.823903,836.198341 989.687605,836.751648 989.549982,837.30138 L988.70836,840.557708 L988.70836,840.557708 L987.835038,843.733208 L987.835038,843.733208 L986.930116,846.832838 L986.930116,846.832838 L985.993691,849.861554 C985.835,850.360706 985.675001,850.85711 985.513696,851.35087 L984.530202,854.282513 L984.530202,854.282513 L983.515451,857.155638 C983.343727,857.629891 983.170705,858.101912 982.996386,858.571805 L981.934936,861.366448 L981.934936,861.366448 L980.842476,864.114966 L980.842476,864.114966 L979.719105,866.822319 L979.719105,866.822319 L978.56492,869.493462 L978.56492,869.493462 L977.380022,872.133355 L977.380022,872.133355 L975.5453,876.045444 L975.5453,876.045444 L974.284046,878.628899 L974.284046,878.628899 L972.335253,882.479571 L972.335253,882.479571 L970.318461,886.315703 L970.318461,886.315703 C950.950924,922.529849 922.529849,950.950924 886.315703,970.318461 L882.479571,972.335253 L882.479571,972.335253 L878.628899,974.284046 L878.628899,974.284046 L876.045444,975.5453 L876.045444,975.5453 L872.133355,977.380022 L872.133355,977.380022 L868.162107,979.145858 L868.162107,979.145858 L865.473479,980.284648 L865.473479,980.284648 L862.746163,981.392576 C862.288111,981.574653 861.82824,981.755441 861.366448,981.934936 L858.571805,982.996386 L858.571805,982.996386 L855.72608,984.026727 L855.72608,984.026727 L852.824316,985.025862 C852.335743,985.189778 851.844629,985.35239 851.35087,985.513696 L848.35575,986.465835 C847.850998,986.621907 847.343395,986.776668 846.832838,986.930116 L843.733208,987.835038 L843.733208,987.835038 L840.557708,988.70836 L840.557708,988.70836 L837.30138,989.549982 L837.30138,989.549982 L833.959266,990.359805 C833.394823,990.492121 832.826598,990.623107 832.25449,990.752762 L828.774401,991.514704 L828.774401,991.514704 L825.196132,992.244601 L825.196132,992.244601 L821.514725,992.942356 C820.892287,993.055964 820.265345,993.168229 819.633795,993.279149 L815.788386,993.928504 L815.788386,993.928504 L811.827443,994.545471 L811.827443,994.545471 L807.746011,995.129949 L807.746011,995.129949 L803.539131,995.681842 L803.539131,995.681842 L799.201846,996.201049 L799.201846,996.201049 L794.729197,996.687473 L794.729197,996.687473 L790.116227,997.141016 L790.116227,997.141016 L785.357979,997.561578 L785.357979,997.561578 L780.449494,997.949062 L780.449494,997.949062 L775.385815,998.303368 L775.385815,998.303368 L770.161984,998.624398 L770.161984,998.624398 L764.773044,998.912054 L764.773044,998.912054 L756.369208,999.280745 L756.369208,999.280745 L750.545803,999.484534 L750.545803,999.484534 L744.539937,999.654603 L744.539937,999.654603 L738.346651,999.790855 L738.346651,999.790855 L731.960989,999.893191 L731.960989,999.893191 L725.377991,999.961512 L725.377991,999.961512 L715.122647,1000 L715.122647,1000 L281.403018,1000 L281.403018,1000 L274.617728,999.961512 L274.617728,999.961512 L264.817542,999.846269 L264.817542,999.846269 L258.528688,999.726963 L258.528688,999.726963 L252.429732,999.573789 L252.429732,999.573789 L246.515716,999.386848 L246.515716,999.386848 L240.781683,999.166236 L240.781683,999.166236 L235.222676,998.912054 L235.222676,998.912054 L229.833735,998.624398 L229.833735,998.624398 L224.609904,998.303368 L224.609904,998.303368 L219.546225,997.949062 L219.546225,997.949062 L214.637741,997.561578 L214.637741,997.561578 L209.879492,997.141016 L209.879492,997.141016 L205.266522,996.687473 L205.266522,996.687473 L200.793874,996.201049 L200.793874,996.201049 L196.456588,995.681842 L196.456588,995.681842 L192.249708,995.129949 L192.249708,995.129949 L188.168276,994.545471 L188.168276,994.545471 L184.207334,993.928504 L184.207334,993.928504 L180.361924,993.279149 L180.361924,993.279149 L176.627089,992.597503 C176.013555,992.48121 175.404423,992.363575 174.799587,992.244601 L171.221318,991.514704 L171.221318,991.514704 L167.74123,990.752762 L167.74123,990.752762 L164.354363,989.958874 C163.797379,989.823903 163.244072,989.687605 162.694339,989.549982 L159.438011,988.70836 L159.438011,988.70836 L156.262511,987.835038 L156.262511,987.835038 L153.162882,986.930116 L153.162882,986.930116 L150.134165,985.993691 C149.635013,985.835 149.138609,985.675001 148.64485,985.513696 L145.713207,984.530202 L145.713207,984.530202 L142.840082,983.515451 C142.365829,983.343727 141.893807,983.170705 141.423915,982.996386 L138.629272,981.934936 L138.629272,981.934936 L135.880753,980.842476 L135.880753,980.842476 L133.173401,979.719105 L133.173401,979.719105 L130.502257,978.56492 L130.502257,978.56492 L127.862364,977.380022 L127.862364,977.380022 L123.950276,975.5453 L123.950276,975.5453 L121.36682,974.284046 L121.36682,974.284046 L117.516148,972.335253 L117.516148,972.335253 L113.680017,970.318461 L113.680017,970.318461 C77.46587,950.950924 49.0447956,922.529849 29.677258,886.315703 L27.6604663,882.479571 L27.6604663,882.479571 L25.7116736,878.628899 L25.7116736,878.628899 L24.4504199,876.045444 L24.4504199,876.045444 L22.6156979,872.133355 L22.6156979,872.133355 L20.8498616,868.162107 L20.8498616,868.162107 L19.7110715,865.473479 L19.7110715,865.473479 L18.6031435,862.746163 C18.4210661,862.288111 18.2402788,861.82824 18.0607836,861.366448 L16.9993336,858.571805 L16.9993336,858.571805 L15.9689921,855.72608 L15.9689921,855.72608 L14.9698576,852.824316 C14.8059412,852.335743 14.6433292,851.844629 14.4820237,851.35087 L13.5298844,848.35575 C13.3738129,847.850998 13.2190519,847.343395 13.0656035,846.832838 L12.1606811,843.733208 L12.1606811,843.733208 L11.2873597,840.557708 L11.2873597,840.557708 L10.4457379,837.30138 L10.4457379,837.30138 L9.63591413,833.959266 C9.50359882,833.394823 9.37261254,832.826598 9.24295733,832.25449 L8.48101547,828.774401 L8.48101547,828.774401 L7.75111799,825.196132 L7.75111799,825.196132 L7.05336342,821.514725 C6.93975504,820.892287 6.82749005,820.265345 6.71657051,819.633795 L6.06721502,815.788386 L6.06721502,815.788386 L5.45024873,811.827443 L5.45024873,811.827443 L4.86577016,807.746011 L4.86577016,807.746011 L4.31387783,803.539131 L4.31387783,803.539131 L3.79467026,799.201846 L3.79467026,799.201846 L3.30824596,794.729197 L3.30824596,794.729197 L2.85470345,790.116227 L2.85470345,790.116227 L2.43414124,785.357979 L2.43414124,785.357979 L2.04665787,780.449494 L2.04665787,780.449494 L1.69235184,775.385815 L1.69235184,775.385815 L1.37132167,770.161984 L1.37132167,770.161984 L1.08366588,764.773044 L1.08366588,764.773044 L0.714974673,756.369208 L0.714974673,756.369208 L0.511185852,750.545803 L0.511185852,750.545803 L0.341116224,744.539937 L0.341116224,744.539937 L0.204864307,738.346651 L0.204864307,738.346651 L0.102528619,731.960989 L0.102528619,731.960989 L0.0342076774,725.377991 L0.0342076774,725.377991 L0,718.592701 L0,718.592701 L0,281.403018 L0,281.403018 L0.0342076774,274.617728 L0.0342076774,274.617728 L0.149450777,264.817542 L0.149450777,264.817542 L0.268756895,258.528688 L0.268756895,258.528688 L0.421929982,252.429732 L0.421929982,252.429732 L0.608871521,246.515716 L0.608871521,246.515716 L0.829482994,240.781683 L0.829482994,240.781683 L1.08366588,235.222676 L1.08366588,235.222676 L1.37132167,229.833735 L1.37132167,229.833735 L1.69235184,224.609904 L1.69235184,224.609904 L2.04665787,219.546225 L2.04665787,219.546225 L2.43414124,214.637741 L2.43414124,214.637741 L2.85470345,209.879492 L2.85470345,209.879492 L3.30824596,205.266522 L3.30824596,205.266522 L3.79467026,200.793874 L3.79467026,200.793874 L4.31387783,196.456588 L4.31387783,196.456588 L4.86577016,192.249708 L4.86577016,192.249708 L5.45024873,188.168276 L5.45024873,188.168276 L6.06721502,184.207334 L6.06721502,184.207334 L6.71657051,180.361924 L6.71657051,180.361924 L7.39821668,176.627089 C7.51450979,176.013555 7.63214425,175.404423 7.75111799,174.799587 L8.48101547,171.221318 L8.48101547,171.221318 L9.24295733,167.74123 L9.24295733,167.74123 L10.0368451,164.354363 C10.1718164,163.797379 10.3081147,163.244072 10.4457379,162.694339 L11.2873597,159.438011 L11.2873597,159.438011 L12.1606811,156.262511 L12.1606811,156.262511 L13.0656035,153.162882 L13.0656035,153.162882 L14.0020285,150.134165 C14.1607191,149.635013 14.3207182,149.138609 14.4820237,148.64485 L15.4655178,145.713207 L15.4655178,145.713207 L16.4802681,142.840082 C16.6519924,142.365829 16.8250149,141.893807 16.9993336,141.423915 L18.0607836,138.629272 L18.0607836,138.629272 L19.1532435,135.880753 L19.1532435,135.880753 L20.2766149,133.173401 L20.2766149,133.173401 L21.4307992,130.502257 L21.4307992,130.502257 L22.6156979,127.862364 L22.6156979,127.862364 L24.4504199,123.950276 L24.4504199,123.950276 L25.7116736,121.36682 L25.7116736,121.36682 L27.6604663,117.516148 L27.6604663,117.516148 L29.677258,113.680017 L29.677258,113.680017 C49.0447956,77.46587 77.46587,49.0447956 113.680017,29.677258 L117.516148,27.6604663 L117.516148,27.6604663 L121.36682,25.7116736 L121.36682,25.7116736 L123.950276,24.4504199 L123.950276,24.4504199 L127.862364,22.6156979 L127.862364,22.6156979 L131.833613,20.8498616 L131.833613,20.8498616 L134.522241,19.7110715 L134.522241,19.7110715 L137.249557,18.6031435 C137.707609,18.4210661 138.167479,18.2402788 138.629272,18.0607836 L141.423915,16.9993336 L141.423915,16.9993336 L144.269639,15.9689921 L144.269639,15.9689921 L147.171404,14.9698576 C147.659976,14.8059412 148.151091,14.6433292 148.64485,14.4820237 L151.639969,13.5298844 C152.144721,13.3738129 152.652324,13.2190519 153.162882,13.0656035 L156.262511,12.1606811 L156.262511,12.1606811 L159.438011,11.2873597 L159.438011,11.2873597 L162.694339,10.4457379 L162.694339,10.4457379 L166.036453,9.63591413 C166.600897,9.50359882 167.169121,9.37261254 167.74123,9.24295733 L171.221318,8.48101547 L171.221318,8.48101547 L174.799587,7.75111799 L174.799587,7.75111799 L178.480995,7.05336342 C179.103433,6.93975504 179.730375,6.82749005 180.361924,6.71657051 L184.207334,6.06721502 L184.207334,6.06721502 L188.168276,5.45024873 L188.168276,5.45024873 L192.249708,4.86577016 L192.249708,4.86577016 L196.456588,4.31387783 L196.456588,4.31387783 L200.793874,3.79467026 L200.793874,3.79467026 L205.266522,3.30824596 L205.266522,3.30824596 L209.879492,2.85470345 L209.879492,2.85470345 L214.637741,2.43414124 L214.637741,2.43414124 L219.546225,2.04665787 L219.546225,2.04665787 L224.609904,1.69235184 L224.609904,1.69235184 L229.833735,1.37132167 L229.833735,1.37132167 L235.222676,1.08366588 L235.222676,1.08366588 L243.626512,0.714974673 L243.626512,0.714974673 L249.449916,0.511185852 L249.449916,0.511185852 L255.455782,0.341116224 L255.455782,0.341116224 L261.649068,0.204864307 L261.649068,0.204864307 L268.034731,0.102528619 L268.034731,0.102528619 L274.617728,0.0342076774 L274.617728,0.0342076774 Z" id="path-1"></path>
    </defs>
    <g id="favicon" stroke="none" stroke-width="1" fill="none" fill-rule="evenodd">
        <g id="colors">
            <mask id="mask-2" fill="white">
                <use xlink:href="#path-1"></use>
            </mask>
            <use id="Mask" fill="#002E3B" xlink:href="#path-1"></use>
            <g id="icn" mask="url(#mask-2)">
                <g transform="translate(211.112015, 277.778967)" id="Path">
                    <path d="M254.974188,21.2850338 C238.786491,-7.09501125 198.314742,-7.09501125 182.126042,21.2850338 L5.69758765,330.590279 C-10.4909115,358.970324 9.74466231,394.446133 42.1215603,394.446133 L179.852326,394.446133 C166.017544,382.118899 160.893662,360.792453 171.362983,342.493855 L304.982914,108.956072 L254.974188,21.2850338 Z" fill="#80EEC0" fill-rule="evenodd"></path>
                    <path d="M366.766242,89.1315024 C380.163924,65.9106442 413.657129,65.9106442 427.054812,89.1315024 L573.064892,342.1987 C586.462575,365.419558 569.715471,394.445129 542.921108,394.445129 L250.899945,394.445129 C224.105582,394.445129 207.359481,365.419558 220.756161,342.1987 L366.766242,89.1315024 Z" fill="#00DC82" fill-rule="nonzero"></path>
                </g>
            </g>
        </g>
    </g>
</svg>