<?xml version="1.0" encoding="UTF-8"?>
<svg width="113px" height="52px" viewBox="0 0 113 52" version="1.1" xmlns="http://www.w3.org/2000/svg" xmlns:xlink="http://www.w3.org/1999/xlink">
    <title>Fill 1</title>
    <g id="Page-1" stroke="none" stroke-width="1" fill="none" fill-rule="evenodd">
        <g id="hero" transform="translate(-744.000000, -196.000000)" fill="#D2BBA9">
            <path d="M838.907484,215.22479 C832.141484,216.52299 825.203384,216.49629 818.359284,215.94959 C816.947484,215.83709 815.510784,215.69759 814.052884,215.54049 C815.978184,213.88649 817.928684,212.26089 819.930484,210.69579 C824.471884,207.14709 829.273684,203.89629 834.439984,201.32419 C837.580384,199.76019 840.852484,198.30129 844.357384,197.86509 C848.736384,197.32199 854.719384,199.28659 854.899384,204.61239 C855.139384,211.73599 844.013384,214.24509 838.907484,215.22479 M772.130684,244.67289 C766.468184,246.79809 757.277284,246.88999 757.666384,238.50239 C758.004484,231.20429 765.714384,228.10559 771.940884,227.31479 C779.972684,226.29409 787.905184,227.67129 795.801484,229.52309 C788.639884,235.61059 780.919284,241.37689 772.130684,244.67289 M851.584384,197.36419 C843.037384,192.83429 831.414584,200.64629 824.561284,205.34589 C820.126184,208.38749 815.966584,211.78019 811.907984,215.29839 C788.755484,212.58119 760.819484,206.27509 744.107384,226.49409 C743.760884,226.91239 744.331984,227.54249 744.701284,227.12009 C761.456184,207.96859 787.847084,213.78699 810.352584,216.66189 C806.933784,219.66749 803.567184,222.73739 800.156784,225.74489 C799.193384,226.59389 798.221184,227.44499 797.239084,228.29309 C790.689384,226.70899 784.128684,225.36379 777.538484,225.36209 C769.562984,225.36059 758.211984,227.36529 756.258484,236.68549 C754.530584,244.93429 761.910284,248.82529 769.063184,247.32499 C778.505084,245.34489 787.220784,238.65089 794.536784,232.67489 C795.617584,231.79169 796.687084,230.89399 797.746384,229.98669 C811.375984,233.29809 824.912484,237.55979 838.684984,232.89009 C839.669384,232.55649 839.305084,230.96509 838.310884,231.30239 C825.212984,235.75239 812.206884,231.99299 799.153584,228.76249 C803.631784,224.86679 807.987784,220.82829 812.457084,216.92279 C813.673184,217.06809 814.874884,217.20229 816.062084,217.32009 C827.033384,218.41189 840.282284,218.83499 850.248384,213.24619 C856.672384,209.64479 859.221384,201.41119 851.584384,197.36419" id="Fill-1"></path>
        </g>
    </g>
</svg>