<?xml version="1.0" encoding="UTF-8"?>
<svg width="135px" height="45px" viewBox="0 0 135 45" version="1.1" xmlns="http://www.w3.org/2000/svg" xmlns:xlink="http://www.w3.org/1999/xlink">
    <title>Fill 1</title>
    <g id="Page-1" stroke="none" stroke-width="1" fill="none" fill-rule="evenodd">
        <g id="hero" transform="translate(-733.000000, -408.000000)" fill="#D2BBA9">
            <path d="M866.939246,415.163822 C860.276246,406.389922 846.381246,407.442522 836.765246,409.197222 C822.141846,411.863922 807.753946,417.889322 794.321946,424.111522 C779.445746,431.001722 765.839446,441.949322 750.323646,447.187222 C748.374846,447.845022 746.370646,448.379622 744.334846,448.700422 C742.739346,448.836322 741.143846,448.972222 739.547146,449.107422 C735.186846,445.271022 734.369946,442.249922 737.097646,440.044822 C739.763346,436.677122 745.097346,434.442822 749.023546,432.969522 C756.163346,430.289322 763.721546,429.453622 771.186746,428.178322 C771.395146,428.141822 771.359246,427.791122 771.145046,427.804322 C763.248246,428.286422 755.104146,429.310422 747.686846,432.179422 C742.974746,434.002122 735.161546,437.672622 733.467646,443.049922 C731.951046,447.864622 734.299146,449.731122 737.976446,450.116222 C742.033746,453.696322 748.440146,452.825022 753.706246,451.252822 C765.434646,447.751422 776.307346,441.602422 786.920546,435.648922 C798.946846,428.902222 810.960846,421.878222 824.148046,417.614422 C836.365246,413.664422 851.410246,410.230922 862.832246,417.962122 C863.627246,418.498922 864.389246,417.222822 863.598246,416.689122 C847.274246,405.662722 823.531346,415.148322 807.749946,422.789822 C796.732146,428.124722 786.347446,434.639622 775.522846,440.336522 C767.483446,444.567422 749.537146,455.522822 739.865046,450.192722 C745.577246,450.104622 753.129546,447.524622 755.433846,446.523622 C764.022246,442.791822 771.826046,437.441722 780.060846,433.018822 C788.799146,428.325222 797.774546,424.070322 806.976346,420.359722 C822.803646,413.977622 851.482246,401.413822 866.035246,416.046722 C866.625246,416.639622 867.418246,415.794722 866.939246,415.163822" id="Fill-1"></path>
        </g>
    </g>
</svg>