<?xml version="1.0" encoding="UTF-8"?>
<svg width="13px" height="13px" viewBox="0 0 13 13" version="1.1" xmlns="http://www.w3.org/2000/svg" xmlns:xlink="http://www.w3.org/1999/xlink">
    <title>Path</title>
    <g id="Symbols" stroke="none" stroke-width="1" fill="none" fill-rule="evenodd">
        <g id="burger-btn-close" fill="#000444">
            <path d="M10.3890873,0.48959236 C10.9748737,-0.0961940777 11.9246212,-0.0961940777 12.5104076,0.48959236 C13.0595824,1.03876715 13.0939058,1.90782956 12.6133779,2.49699029 L12.5104076,2.6109127 L8.62125253,6.49925253 L12.5104076,10.3890873 C13.0961941,10.9748737 13.0961941,11.9246212 12.5104076,12.5104076 C11.9246212,13.0961941 10.9748737,13.0961941 10.3890873,12.5104076 L6.49925253,8.62125253 L2.6109127,12.5104076 C2.06173792,13.0595824 1.19267551,13.0939058 0.60351477,12.6133779 L0.48959236,12.5104076 C-0.0595824254,11.9612329 -0.0939058494,11.0921704 0.386622088,10.5030097 L0.48959236,10.3890873 L4.37825253,6.49925253 L0.48959236,2.6109127 C-0.0961940777,2.02512627 -0.0961940777,1.0753788 0.48959236,0.48959236 C1.0753788,-0.0961940777 2.02512627,-0.0961940777 2.6109127,0.48959236 L6.49925253,4.37825253 L10.3890873,0.48959236 Z" id="Path"></path>
        </g>
    </g>
</svg>