<?xml version="1.0" encoding="UTF-8"?>
<svg width="228px" height="25px" viewBox="0 0 228 25" version="1.1" xmlns="http://www.w3.org/2000/svg" xmlns:xlink="http://www.w3.org/1999/xlink">
    <title>Fill 2</title>
    <g id="Page-1" stroke="none" stroke-width="1" fill="none" fill-rule="evenodd">
        <g id="Accueil" transform="translate(-1281.000000, -4760.000000)" fill="#D2BBA9">
            <g id="Footer" transform="translate(0.000000, 4544.000000)">
                <path d="M1372.04804,239.135781 C1391.22304,238.433181 1464.41704,238.218181 1482.57204,239.205181 C1483.48904,239.255181 1484.28404,238.034181 1483.69504,237.249181 C1482.00704,235.005181 1480.30404,232.553181 1479.59904,229.778181 C1477.86204,222.941181 1482.19004,217.121181 1489.30504,218.852181 C1491.22104,219.157181 1492.85004,220.033181 1494.19304,221.483181 C1494.47804,222.080181 1494.82304,222.617181 1495.22404,223.100181 C1494.09504,223.478181 1493.10604,224.008181 1492.37704,224.688181 C1487.68804,229.066181 1493.83704,235.410181 1498.01104,230.450181 C1499.69104,228.453181 1499.81304,226.340181 1499.00404,224.364181 C1502.96104,223.825181 1509.05504,221.950181 1507.54804,230.137181 C1507.48204,230.497181 1507.97304,230.636181 1508.09604,230.288181 C1510.22604,224.310181 1503.56504,221.881181 1497.95704,222.510181 C1495.12704,218.598181 1489.03904,215.652181 1485.38304,216.033181 C1474.36504,217.182181 1476.04004,229.368181 1480.10004,236.496181 C1462.76204,235.691181 1299.72504,237.004881 1282.40204,238.199881 C1280.72704,238.315881 1280.71504,240.940881 1282.40204,240.822881" id="Fill-2"></path>
            </g>
        </g>
    </g>
</svg>