<?xml version="1.0" encoding="UTF-8"?>
<svg width="228px" height="25px" viewBox="0 0 228 25" version="1.1" xmlns="http://www.w3.org/2000/svg" xmlns:xlink="http://www.w3.org/1999/xlink">
    <title>Fill 1</title>
    <g id="Page-1" stroke="none" stroke-width="1" fill="none" fill-rule="evenodd">
        <g id="Accueil" transform="translate(-91.000000, -4760.000000)" fill="#D2BBA9">
            <g id="Footer" transform="translate(0.000000, 4544.000000)">
                <path d="M227.455035,239.135781 C208.280035,238.433181 135.085635,238.218181 116.930635,239.205181 C116.013635,239.255181 115.218635,238.034181 115.807635,237.249181 C117.495635,235.005181 119.198635,232.553181 119.903635,229.778181 C121.640635,222.941181 117.312635,217.121181 110.197635,218.852181 C108.281635,219.157181 106.652635,220.033181 105.309635,221.483181 C105.024635,222.080181 104.679635,222.617181 104.278635,223.100181 C105.407635,223.478181 106.396635,224.008181 107.125635,224.688181 C111.814635,229.066181 105.665635,235.410181 101.491635,230.450181 C99.811635,228.453181 99.689635,226.340181 100.498635,224.364181 C96.541635,223.825181 90.447635,221.950181 91.954635,230.137181 C92.020635,230.497181 91.529635,230.636181 91.406635,230.288181 C89.276635,224.310181 95.937635,221.881181 101.545635,222.510181 C104.375635,218.598181 110.463635,215.652181 114.119635,216.033181 C125.137635,217.182181 123.462635,229.368181 119.402635,236.496181 C136.740635,235.691181 299.778035,237.004881 317.101035,238.199881 C318.776035,238.315881 318.788035,240.940881 317.101035,240.822881" id="Fill-1"></path>
            </g>
        </g>
    </g>
</svg>