<?xml version="1.0" encoding="UTF-8"?>
<svg width="100px" height="27px" viewBox="0 0 100 27" version="1.1" xmlns="http://www.w3.org/2000/svg" xmlns:xlink="http://www.w3.org/1999/xlink">
    <title>logo-le-celtic-noir</title>
    <g id="Page-1" stroke="none" stroke-width="1" fill="none" fill-rule="evenodd">
        <g id="logo-le-celtic-noir" transform="translate(-0.000031, 0.000014)" fill="#2A1111">
            <g id="Group" transform="translate(3.001914, 2.052960)">
                <path d="M20.6995528,14.2715951 C20.7127565,15.0399136 20.550385,15.7697076 20.1954743,16.4529546 C19.7758825,17.2608841 19.1717738,17.8957456 18.3858225,18.3551155 C17.8808248,18.6503591 17.3376368,18.8413941 16.7565927,18.9130114 C15.5898248,19.0566637 14.5350373,18.7838162 13.6295846,18.0217652 C12.95553,17.4545933 12.5586685,16.7242144 12.447106,15.8468403 C12.3512543,15.0938982 12.497915,14.3889237 12.9035511,13.7461233 C13.2909695,13.1322373 13.8203689,12.6890794 14.5447311,12.5476834 C15.3946114,12.3817186 16.1366063,12.5928934 16.6969256,13.2883412 C16.9832275,13.6435861 17.1019767,14.0549048 17.0288553,14.5081743 C16.9631713,14.9148133 16.7477346,15.2179122 16.3532965,15.3679992 C16.1361049,15.4505638 15.9199996,15.448391 15.7279617,15.2918693 C15.6220818,15.2056278 15.588822,15.0928118 15.6163993,14.9611096 C15.6358705,14.8680991 15.6652026,14.7764257 15.6769856,14.6824959 C15.7018051,14.4852769 15.5686823,14.2964146 15.3644436,14.2246302 C15.1622941,14.1536815 14.9791144,14.2074989 14.8078012,14.3153008 C14.3745879,14.5878141 14.1463653,15.119052 14.2479833,15.6242168 C14.3836967,16.2987728 14.8088876,16.7349945 15.4266177,16.9836075 C16.0100852,17.2184319 16.5976475,17.1572606 17.1589697,16.8977003 C18.1442292,16.4420909 18.6942698,15.6503734 18.8373371,14.5885662 C18.9419635,13.8115566 18.7620429,13.0784199 18.3345121,12.420661 C17.7147764,11.4670735 16.8368174,10.8842745 15.7086577,10.7279199 C14.4279874,10.5505064 13.2682392,10.8570316 12.271531,11.7027335 C11.61185,12.2623843 11.1400285,12.9553251 10.8664289,13.7750376 C10.7204367,14.2125129 10.5940828,14.65776 10.4825203,15.1054305 C10.2181131,16.1664856 9.67258517,17.057314 8.88855593,17.8100054 C8.33458771,18.3418283 7.70724733,18.761253 6.99383253,19.0485577 C6.15506665,19.3863371 5.28638364,19.5007408 4.3906248,19.3774789 C3.56180344,19.2634095 2.79231493,18.9822888 2.09837133,18.511303 C1.25099801,17.9362758 0.618309311,17.1851721 0.259972348,16.2177124 C0.0698565388,15.7046086 -0.00635691967,15.171783 0.000412038811,14.6250016 C0.0103565581,13.8153171 0.203731495,13.055606 0.63176366,12.3663422 C1.25484211,11.3629485 2.13940292,10.7244937 3.31878948,10.5553533 C4.48188039,10.3884692 5.49170872,10.7285049 6.31718738,11.5742069 C6.70000959,11.9663886 6.90566893,12.4463997 6.97745332,12.988 C7.0405467,13.4633313 7.00026722,13.9269632 6.85252007,14.3835754 C6.55017326,15.3175245 5.62165601,15.88361 4.66597935,15.7122133 C4.10231731,15.6110967 3.72985746,15.247495 3.63592772,14.7021343 C3.59740315,14.4789258 3.60525848,14.2598956 3.74515029,14.068192 C3.85972118,13.9111689 4.02384753,13.8561816 4.21137275,13.8779091 C4.26318454,13.8839259 4.31491275,13.9169351 4.36003914,13.9475207 C4.39956651,13.9743459 4.43307704,14.0124526 4.46357913,14.0501415 C4.58082418,14.1951309 4.7301591,14.2357447 4.90656986,14.1911197 C5.08089143,14.1469961 5.1970501,14.0376899 5.24810978,13.8663768 C5.32348756,13.6131676 5.27526918,13.3689837 5.17557329,13.1327387 C4.92319977,12.5345633 4.40558337,12.2940564 3.78375843,12.3176224 C3.29472207,12.3360908 2.8935986,12.5601349 2.55230939,12.8973294 C2.15619996,13.2888426 1.90591564,13.7577392 1.84766917,14.3157186 C1.7863307,14.9034481 1.89906311,15.4589205 2.20333197,15.9686816 C2.60913521,16.6485859 3.20062519,17.10946 3.93902664,17.3726973 C4.97584723,17.7423159 5.97405968,17.6043461 6.91502848,17.0632473 C7.79825221,16.5554082 8.36659402,15.7857526 8.67763184,14.8218863 C8.86031015,14.2556337 8.91345901,13.6739211 8.88011563,13.0815119 C8.82496115,12.101935 8.4407183,11.2611635 7.79516022,10.5368849 C7.45537522,10.1556505 7.0941134,9.79355297 6.74012194,9.42518793 C6.20428784,8.86779344 5.75736945,8.25023044 5.45284988,7.53581283 C5.26156413,7.08697239 5.13654731,6.62049923 5.07763231,6.1352234 C5.02398204,5.69256694 5.01662811,5.24940908 5.05582122,4.80641835 C5.12518215,4.02146987 5.34663573,3.28164778 5.73931889,2.59555952 C6.11027453,1.94741085 6.5887814,1.39519755 7.19748625,0.959477181 C7.82842004,0.50796258 8.52378428,0.21004484 9.29001367,0.0770055569 C10.1127346,-0.0658946777 10.9213327,-0.0138321946 11.7075347,0.266118558 C12.8240785,0.663648626 13.6731232,1.37522494 14.1894861,2.45483203 C14.5133097,3.13197859 14.6143427,3.85032386 14.5379621,4.59357221 C14.4700218,5.25425599 14.2500725,5.85936745 13.8394223,6.38659411 C13.3075994,7.06917254 12.6173328,7.49077001 11.7562544,7.61010424 C10.991195,7.71615126 10.278198,7.5628051 9.64626145,7.11170834 C9.01641404,6.66211579 8.74532143,6.02792287 8.75835794,5.26445121 C8.7651269,4.86508266 8.87000397,4.49304064 9.10207061,4.16428654 C9.42188301,3.71110059 9.90640673,3.52858941 10.4012092,3.6241905 C10.6544184,3.67307743 10.875287,3.79082388 11.0056522,4.02991018 C11.0785229,4.16353443 11.0920608,4.30727034 11.0560433,4.45551889 C11.0291346,4.56641281 10.957768,4.63786293 10.8548966,4.67947949 C10.7990736,4.70204268 10.7421642,4.72343594 10.6840013,4.73872877 C10.3457205,4.8278116 10.3226559,5.1130271 10.3941896,5.32336622 C10.4994845,5.63306696 10.7432506,5.79585623 11.0502771,5.85184638 C11.5663893,5.94594326 11.9878197,5.76368279 12.3123118,5.36055371 C12.6325421,4.9626058 12.7726846,4.50373727 12.7191179,3.99489544 C12.6763314,3.58834009 12.5153806,3.22381915 12.2670183,2.90124903 C11.6641632,2.11797189 10.8577379,1.77333998 9.88091867,1.83434417 C9.04975743,1.88615595 8.37378082,2.26814249 7.82173465,2.87659665 C7.33771233,3.41000729 7.03904249,4.03876832 6.93617103,4.75059534 C6.78691967,5.78348826 6.99533674,6.74259118 7.58582391,7.60851646 C7.96371564,8.16256825 8.46771056,8.57831601 9.05518931,8.89545425 C9.64300232,9.21284319 10.2695906,9.40237403 10.935372,9.46270968 C11.5777545,9.52095615 12.2043428,9.44273708 12.8222401,9.26365216 C13.2455924,9.14097524 13.6709505,9.02398089 14.0991498,8.91968879 C14.5450653,8.81105119 15.000424,8.80327942 15.4572034,8.83085666 C15.9063781,8.85793249 16.3476139,8.92796196 16.7800751,9.05281164 C17.5544106,9.27660511 18.2351505,9.66811832 18.8375878,10.2000248 C19.4502204,10.7407893 19.9385046,11.3743137 20.2690972,12.1245817 C20.5312481,12.7197487 20.6763211,13.3424928 20.699135,13.9928978 C20.7023105,14.0857412 20.6995528,14.1786681 20.6995528,14.2715951" id="Path"></path>
            </g>
            <g id="Group">
                <path d="M13.1718918,0.86534031 C9.884685,0.86534031 6.79419584,2.14542557 4.46985249,4.46985249 C2.14542557,6.7942794 0.86534031,9.884685 0.86534031,13.1719754 C0.86534031,16.4591822 2.14542557,19.5495878 4.46985249,21.8740147 C6.79419584,24.1984416 9.884685,25.4785269 13.1718918,25.4785269 C16.4590986,25.4785269 19.5495878,24.1984416 21.8740147,21.8740147 C24.198358,19.5495878 25.4785269,16.4591822 25.4785269,13.1719754 C25.4785269,9.884685 24.198358,6.7942794 21.8740147,4.46985249 C19.5495878,2.14542557 16.4590986,0.86534031 13.1718918,0.86534031 M13.1718918,26.3438672 C11.393912,26.3438672 9.66883044,25.9955583 8.04469824,25.3085508 C6.47613835,24.6451093 5.06752645,23.6954495 3.85797207,22.4858951 C2.64841768,21.2763407 1.69875788,19.8677288 1.03531638,18.2991689 C0.348308876,16.6749532 0,14.9499551 0,13.1719754 C0,11.393912 0.348308876,9.66891401 1.03531638,8.04469824 C1.69875788,6.47613835 2.64841768,5.06752645 3.85797207,3.85797207 C5.06752645,2.64841768 6.47613835,1.69875788 8.04469824,1.03531638 C9.66883044,0.348392443 11.393912,0 13.1718918,0 C14.9498716,0 16.6749532,0.348392443 18.2991689,1.03531638 C19.8676453,1.69875788 21.2762572,2.64841768 22.4858951,3.85797207 C23.6953659,5.06752645 24.6451093,6.47613835 25.3084672,8.04469824 C25.9954747,9.66891401 26.3437836,11.393912 26.3437836,13.1719754 C26.3437836,14.9499551 25.9954747,16.6749532 25.3084672,18.2991689 C24.6451093,19.8677288 23.6953659,21.2763407 22.4858951,22.4858951 C21.2762572,23.6954495 19.8676453,24.6451093 18.2991689,25.3085508 C16.6749532,25.9955583 14.9498716,26.3438672 13.1718918,26.3438672" id="Shape"></path>
            </g>
            <g id="Group" transform="translate(30.752632, 10.536427)">
                <path d="M13.2044831,4.74746335 C13.0377661,4.13240737 12.7878997,3.55579239 12.4548836,3.01761841 C12.1215333,2.47944442 11.7275131,2.01188488 11.2728229,1.61452195 C10.8177985,1.21749329 10.3051961,0.903363472 9.73518295,0.672717479 C9.16483552,0.442071486 8.55938979,0.32674849 7.91884575,0.32674849 C7.03470278,0.32674849 6.2466623,0.525555307 5.55472433,0.922583971 C4.86278635,1.3199469 4.28282867,1.84516794 3.81526913,2.49866492 C3.34737532,3.1521619 2.98878766,3.89215113 2.73892116,4.7186326 C2.48905467,5.54511408 2.36412143,6.39415875 2.36412143,7.26534877 C2.36412143,8.18793274 2.49532223,9.05285522 2.75814166,9.86011619 C3.02062683,10.6673772 3.39542657,11.3689254 3.88254088,11.9647609 C4.36932092,12.5605964 4.95888884,13.0314986 5.65082682,13.3774676 C6.3427648,13.7234366 7.11158478,13.8964211 7.95728675,13.8964211 C8.62340241,13.8964211 9.24806864,13.7748305 9.83128544,13.5312316 C10.414168,13.2879669 10.9331215,12.9675695 11.3881459,12.5702066 C11.8428361,12.1731779 12.227246,11.7148944 12.5413759,11.1959409 C12.8551714,10.6769874 13.0699396,10.1421561 13.1852626,9.5910292 L13.4159086,9.5910292 L13.3582471,13.8195391 L13.1276011,13.8195391 C12.9738371,13.601846 12.8134713,13.4032899 12.6470886,13.2237036 C12.4803717,13.0444515 12.3650487,12.9546166 12.3011196,12.9546166 C12.2752973,12.9546166 12.1599743,13.0218883 11.9551506,13.1564318 C11.7499927,13.2909753 11.4554176,13.4384718 11.0710077,13.5985033 C10.6865977,13.7588691 10.2187039,13.8997638 9.6679112,14.0213543 C9.11678427,14.1430284 8.48250779,14.2039491 7.76508176,14.2039491 C6.57341079,14.2039491 5.49706283,14.0343073 4.53603786,13.6946058 C3.57501289,13.3552387 2.75814166,12.8747262 2.08542418,12.2530684 C1.41270671,11.6317448 0.896761648,10.8884129 0.538173983,10.0234904 C0.179252049,9.15856796 0,8.20715324 0,7.16924628 C0,6.93860028 0.0158778039,6.67611511 0.0480512485,6.3812058 C0.0798904236,6.08663076 0.137551922,5.77283521 0.221035743,5.43940133 C0.304185295,5.10638529 0.419508291,4.7570736 0.567004732,4.39188411 C0.714166904,4.02669462 0.903363472,3.65849671 1.13400946,3.2867054 C1.40309646,2.85123573 1.7361125,2.43473587 2.13347543,2.03737294 C2.5305041,1.64034427 2.99839791,1.29111616 3.53657189,0.989855719 C4.07474587,0.688929552 4.68320003,0.44867331 5.36251933,0.269086992 C6.04150437,0.0898349428 6.80405679,0 7.64975876,0 C8.41857874,0 9.09129622,0.0706144434 9.6679112,0.211425493 C10.2445262,0.352570813 10.7250387,0.506418375 11.1094487,0.672717479 C11.4938586,0.839434419 11.7884337,0.993198415 11.9935916,1.13400946 C12.1984153,1.27515478 12.3137383,1.34543496 12.3395606,1.34543496 C12.3650487,1.34543496 12.4130999,1.31660421 12.4837144,1.25894271 C12.5539945,1.20128121 12.6308765,1.13100104 12.7143604,1.04751722 C12.7975099,0.964367665 12.8840022,0.868265168 12.9738371,0.759209726 C13.0633378,0.650488554 13.1468216,0.538173983 13.2237036,0.422850987 L13.4351291,0.422850987 L13.4351291,4.72824285 L13.2044831,4.74746335 Z" id="Path"></path>
            </g>
            <g id="Group" transform="translate(45.814567, 12.629790)">
                <path d="M10.2285648,12.033704 L0,12.033704 L0,11.8665692 C0.278362972,11.8221949 0.537421877,11.7495748 0.777093147,11.649294 C1.01659728,11.5490131 1.21431773,11.4097898 1.37042161,11.231457 C1.42607749,11.1646031 1.47070247,11.0672471 1.504213,10.9389712 C1.53755638,10.8110295 1.56814205,10.6631988 1.59605356,10.496064 C1.62379793,10.3289292 1.6433527,10.1534377 1.65455073,9.96958947 C1.66558162,9.78574122 1.67134777,9.60481782 1.67134777,9.42640144 C1.67134777,9.27054826 1.67393836,9.05870493 1.67962095,8.79128929 C1.68513639,8.52387365 1.69065184,8.23138779 1.69633442,7.91383171 C1.70184987,7.59627563 1.70469116,7.27036282 1.70469116,6.93609326 L1.70469116,2.70758339 C1.70469116,2.50702166 1.70184987,2.30094448 1.69633442,2.08918472 C1.69065184,1.87767566 1.67962095,1.67711392 1.66290747,1.48749952 C1.64619399,1.29813582 1.61828248,1.12815975 1.57934008,0.977738448 C1.54023054,0.827317148 1.48741595,0.718679543 1.42064561,0.651825632 C1.25351083,0.473743526 1.07509446,0.359339771 0.885730753,0.309199338 C0.696199915,0.259058905 0.451180332,0.211759763 0.150337732,0.167134777 L0.150337732,0 L9.37626101,0 L10.5126939,2.75772383 L10.3455592,2.84129122 C9.44311492,1.71597276 8.59615944,0.958434381 7.80511054,0.568258243 C7.61549613,0.479175407 7.2645131,0.401123466 6.75216144,0.334269555 C6.23955908,0.267415644 5.61572852,0.233988688 4.88025193,0.233988688 C4.64626324,0.233988688 4.40400138,0.242345427 4.15329922,0.259058905 C3.90259705,0.275772383 3.72133939,0.295327152 3.61011119,0.317556077 C3.587548,0.495972452 3.5683275,0.863585395 3.55161402,1.42064561 C3.53481697,1.97795652 3.5265438,2.624016 3.5265438,3.35940903 L3.5265438,4.4290716 C3.5265438,4.71896687 3.52913439,4.95554615 3.53481697,5.1393944 C3.54033242,5.32324266 3.54317371,5.46530722 3.54317371,5.56558809 L3.54317371,5.74943634 L3.87744327,5.74943634 C4.04457805,5.74943634 4.23686661,5.74392089 4.45405825,5.73272286 C4.67133346,5.72177554 4.88869224,5.70765265 5.10588388,5.69093917 C5.32324266,5.67422569 5.50416606,5.64915548 5.64907191,5.61572852 C5.98334146,5.53792728 6.26170443,5.43188026 6.48474579,5.29817244 C6.70753645,5.16446462 6.88845985,5.00309599 7.02793382,4.81348159 C7.16715709,4.62411789 7.27863599,4.40400138 7.36220338,4.15329922 C7.44577076,3.90259705 7.52106498,3.62130922 7.58783533,3.30926859 L7.78848063,3.30926859 L7.78848063,8.57401408 L7.58783533,8.57401408 C7.49858535,8.2175156 7.36220338,7.84990266 7.17835512,7.47092455 C6.99459043,7.09228071 6.80230187,6.80815159 6.60182371,6.61853718 C6.42340733,6.46260044 6.20897341,6.33440806 5.95827125,6.2341272 C5.70756908,6.13384633 5.41508322,6.07275857 5.08081366,6.05027894 C4.91367889,6.03933161 4.77420492,6.03097487 4.66297672,6.02520872 C4.55149782,6.01969328 4.43993536,6.01685199 4.32870717,6.01685199 L3.55988719,6.01685199 C3.53749113,6.17303944 3.5265438,6.40126197 3.5265438,6.70210457 L3.5265438,8.7077219 C3.5265438,8.88605471 3.52913439,9.05611434 3.53481697,9.21748297 C3.54033242,9.3791023 3.54317371,9.51573498 3.54317371,9.62696318 C3.55420461,9.98371236 3.57375938,10.3205725 3.60167089,10.6381286 C3.62933169,10.9556847 3.69367858,11.1925982 3.79387588,11.3484514 C3.89415675,11.5046388 4.13366088,11.615867 4.51263899,11.6827209 C4.89128283,11.7495748 5.30360432,11.7830018 5.74935277,11.7830018 C5.93871648,11.7830018 6.1810619,11.7775699 6.47647262,11.7662883 C6.77154907,11.755341 7.08074841,11.7273459 7.40398707,11.6827209 C7.76048555,11.6383467 8.08923966,11.5518544 8.39008226,11.423662 C8.69100842,11.2957204 8.98056943,11.1144627 9.2591831,10.880474 C9.53754607,10.6464853 9.80788657,10.3597656 10.0698703,10.0197299 C10.3314363,9.6799449 10.6017768,9.27054826 10.880474,8.79128929 L11.0642387,8.84142972 L10.2285648,12.033704 Z" id="Path"></path>
            </g>
            <g id="Group" transform="translate(57.580689, 12.629790)">
                <path d="M10.7300527,12.033704 L0,12.033704 L0,11.8665692 C0.278362972,11.8221949 0.554135354,11.7495748 0.827317148,11.649294 C1.10024824,11.5490131 1.31459859,11.4097898 1.47078604,11.231457 C1.52635835,11.1646031 1.5736575,11.0672471 1.61276703,10.9389712 C1.65170944,10.8110295 1.6822951,10.6631988 1.70477473,10.496064 C1.72700365,10.3289292 1.74655842,10.1534377 1.7632719,9.96958947 C1.77990181,9.78574122 1.78834212,9.60481782 1.78834212,9.42640144 C1.78834212,9.27054826 1.79093271,9.05870493 1.79669886,8.79128929 C1.80213074,8.52387365 1.80764618,8.23138779 1.81341233,7.91383171 C1.81884421,7.59627563 1.82168551,7.27036282 1.82168551,6.93609326 L1.82168551,2.13932515 C1.82168551,1.93876342 1.81341233,1.75232457 1.79669886,1.57942365 C1.77990181,1.40677342 1.75491516,1.25351083 1.72148821,1.11980301 C1.68806125,0.986095187 1.63792082,0.880298872 1.57098334,0.802246931 C1.41487946,0.612883229 1.20596099,0.467977377 0.944227925,0.36769651 C0.682411296,0.267415644 0.406638913,0.200561733 0.116994344,0.167134777 L0.116994344,0 L5.44859374,0 L5.44859374,0.167134777 C5.30360432,0.189614405 5.13103767,0.22304136 4.93047593,0.267415644 C4.7299142,0.312040629 4.54029979,0.384409988 4.36221769,0.484690854 C4.18380131,0.584971721 4.03053872,0.727036282 3.90259705,0.910884537 C3.77440468,1.09473279 3.70462591,1.33707822 3.69367858,1.63792082 C3.68239698,2.02809696 3.67404024,2.38451187 3.66860836,2.70758339 C3.66284221,3.03090562 3.65732677,3.3484617 3.65189489,3.66025162 C3.64612874,3.97229225 3.64353815,4.29536378 3.64353815,4.62963333 L3.64353815,7.67148628 C3.64353815,7.96138155 3.64612874,8.25929929 3.65189489,8.56565734 C3.65732677,8.87226609 3.66016806,9.21489238 3.66016806,9.59353622 C3.67119895,9.9502854 3.68532184,10.2899868 3.70195175,10.6130584 C3.7187488,10.9363806 3.77724597,11.1758012 3.87752684,11.3317379 C3.92190112,11.3876445 4.01123466,11.4433004 4.14494248,11.4988727 C4.2786503,11.5547793 4.44001893,11.6019948 4.62963333,11.6409372 C4.81899704,11.6801303 5.02499065,11.7135573 5.24794844,11.7412181 C5.4707391,11.7691296 5.69352976,11.7830018 5.91648755,11.7830018 C6.00565396,11.7830018 6.14763495,11.7804112 6.3427648,11.7746451 C6.53756038,11.7691296 6.75216144,11.7579316 6.98623369,11.7412181 C7.22022238,11.7245046 7.45964295,11.6994344 7.70491324,11.6660075 C7.94984925,11.6325805 8.16712446,11.5882062 8.35673887,11.5322996 C8.80223662,11.4097898 9.17277442,11.2481705 9.46810157,11.0476088 C9.76326159,10.8470471 10.0168886,10.6158997 10.2286484,10.3539995 C10.4401574,10.09235 10.6184902,9.80822084 10.7633961,9.50161209 C10.9081348,9.19525405 11.0476088,8.87485668 11.181233,8.54058712 L11.3483678,8.59072756 L10.7300527,12.033704 Z" id="Path"></path>
            </g>
            <g id="Group" transform="translate(68.678605, 12.462655)">
                <path d="M12.5518218,3.30926859 C12.4624882,3.10870686 12.3566919,2.89978839 12.2342657,2.68251318 C12.1115052,2.46523797 11.9861541,2.26208564 11.8582125,2.07247124 C11.7299365,1.88310754 11.6045854,1.70761602 11.4821592,1.54599669 C11.3593987,1.38462806 11.253686,1.26470886 11.1645196,1.18665692 C10.9306144,0.963866261 10.6769874,0.816286253 10.4041399,0.743749759 C10.1309581,0.671380401 9.78281636,0.629596706 9.35954753,0.618398676 C9.14778777,0.618398676 8.96385595,0.615808087 8.80800277,0.610041937 C8.65181532,0.60452649 8.49596214,0.601685199 8.34002539,0.601685199 L7.23685229,0.601685199 C7.23685229,0.880298872 7.234011,1.25927698 7.22857912,1.73820168 C7.22281297,2.21737709 7.22022238,2.71878142 7.22022238,3.24241468 L7.22022238,9.77738448 C7.22022238,10.1007067 7.22857912,10.409906 7.2452926,10.7049825 C7.26200608,11.0003096 7.3147371,11.2092281 7.40398707,11.3317379 C7.57112185,11.5769246 7.80778469,11.7440594 8.11430987,11.8331422 C8.42066792,11.9224758 8.6964403,11.9893297 8.94171059,12.033704 L8.94171059,12.2008387 L3.50983032,12.2008387 L3.50983032,12.033704 C3.79947489,12.000277 4.07808857,11.9446211 4.34550421,11.8665692 C4.61291986,11.788768 4.87456935,11.6049197 5.13103767,11.3150244 C5.18660998,11.2593685 5.22839367,11.1674444 5.25638875,11.039252 C5.28404955,10.9113104 5.30652918,10.766321 5.32324266,10.6047016 C5.33995614,10.443333 5.35090347,10.2678415 5.35658605,10.0782271 C5.36218506,9.88886337 5.36502635,9.70501512 5.36502635,9.52668231 C5.36502635,9.37074556 5.36761694,9.16475195 5.37338309,8.90828363 C5.37881497,8.65206602 5.38433042,8.3679369 5.39009657,8.05589627 C5.39552845,7.74410634 5.39836974,7.42078412 5.39836974,7.08651456 L5.39836974,0.601685199 L4.29536378,0.601685199 C4.15045793,0.601685199 3.99711177,0.60452649 3.83574314,0.610041937 C3.67412381,0.615808087 3.4873507,0.618398676 3.27584164,0.618398676 C2.85223854,0.629596706 2.50418037,0.67973714 2.23124928,0.768819976 C1.95806748,0.858069947 1.70477473,1.01400669 1.47070247,1.23679735 C1.3814525,1.31484929 1.27858105,1.43184364 1.1615867,1.58778039 C1.04459236,1.74396783 0.921831865,1.9136932 0.793890193,2.09754146 C0.665697818,2.28138971 0.543188026,2.47936085 0.426110115,2.69086992 C0.309199338,2.90262968 0.217191643,3.10870686 0.1504213,3.30926859 L0,3.25912816 L0.501404332,0.0835673887 C0.757538378,0.139473972 0.994451925,0.183848255 1.21172714,0.217275211 C1.42891878,0.250702166 1.74363356,0.273098226 2.15603863,0.284129122 C2.57930745,0.295327152 2.95828556,0.30368389 3.29255511,0.309199338 C3.62682467,0.314881921 3.94981263,0.317556077 4.26193682,0.317556077 L7.43749759,0.317556077 C7.77176715,0.317556077 8.09475511,0.314881921 8.40679573,0.309199338 C8.71866923,0.30368389 9.04199146,0.29825201 9.37626101,0.29248586 C9.71053057,0.286970413 10.0891744,0.284129122 10.5127775,0.284129122 C10.880474,0.273098226 11.1839072,0.242345427 11.423662,0.192204994 C11.6630826,0.142064561 11.9109435,0.078051941 12.1673282,0 L12.7022431,3.25912816 L12.5518218,3.30926859 Z" id="Path"></path>
            </g>
            <g id="Group" transform="translate(81.932393, 12.629790)">
                <path d="M0,12.033704 L0,11.8665692 C0.278362972,11.8221949 0.537421877,11.7495748 0.777176715,11.649294 C1.01659728,11.5490131 1.22008387,11.404358 1.38721865,11.2147436 C1.44287453,11.1478897 1.48465823,11.0533749 1.51256974,10.9306144 C1.54023054,10.8081046 1.56271017,10.6631988 1.57934008,10.496064 C1.59613712,10.3289292 1.60708445,10.1534377 1.6128506,9.96958947 C1.61828248,9.78574122 1.62112377,9.60481782 1.62112377,9.42640144 C1.62112377,9.27054826 1.62379793,9.05870493 1.62956408,8.79128929 C1.63499596,8.52387365 1.64051141,8.23138779 1.64627756,7.91383171 C1.651793,7.59627563 1.6546343,7.27036282 1.6546343,6.93609326 L1.6546343,2.10589819 C1.6546343,1.90533646 1.64627756,1.71889762 1.62956408,1.54599669 C1.6128506,1.37343003 1.58778039,1.21749329 1.55435343,1.07801931 C1.52092647,0.938796045 1.47078604,0.830242007 1.40393213,0.752106498 C1.24774468,0.562742795 1.05553969,0.426193682 0.827233581,0.342626294 C0.59876034,0.259058905 0.339701435,0.200561733 0.0501404332,0.167134777 L0.0501404332,0 L5.04738671,0 L5.04738671,0.167134777 C4.81348159,0.200561733 4.56277942,0.261900196 4.29528021,0.350983032 C4.02794813,0.440316571 3.82162025,0.618398676 3.6769651,0.88581432 C3.57668424,1.07542873 3.52361894,1.31484929 3.51818706,1.60449386 C3.51242091,1.89438913 3.50406418,2.16732023 3.49311685,2.42345427 C3.49311685,2.70206795 3.49027556,2.97784033 3.48476011,3.25077142 C3.47899396,3.52395321 3.47640337,3.7997256 3.47640337,4.07808857 L3.47640337,9.67710361 C3.47640337,10.0004258 3.48183525,10.3122158 3.49311685,10.6130584 C3.50406418,10.913901 3.55420461,11.1256607 3.64353815,11.2481705 C3.77724597,11.4377849 3.98875503,11.5824401 4.2786503,11.6827209 C4.5682113,11.7830018 4.83019507,11.8443403 5.06418375,11.8665692 L5.06418375,12.033704 L0,12.033704 Z" id="Path"></path>
            </g>
            <g id="Group" transform="translate(88.299392, 12.379088)">
                <path d="M11.4821592,4.128229 C11.3372534,3.59339771 11.1199781,3.09199338 10.8303336,2.624016 C10.5404383,2.15603863 10.197812,1.74948328 9.80245469,1.40393213 C9.40684668,1.05871525 8.96101466,0.785533454 8.46537647,0.584971721 C7.96948759,0.384409988 7.44301304,0.284129122 6.88595283,0.284129122 C6.11713285,0.284129122 5.43188026,0.457030049 4.83019507,0.802246931 C4.22850987,1.14771452 3.72426424,1.60449386 3.31762533,2.17275211 C2.91081928,2.74101035 2.59894579,3.38447924 2.38167058,4.10315878 C2.16439537,4.82183833 2.05575776,5.56007264 2.05575776,6.31769458 C2.05575776,7.11994152 2.16982725,7.87204801 2.39838406,8.57401408 C2.62660659,9.27598014 2.95260298,9.88602208 3.3761225,10.4041399 C3.79939133,10.9222577 4.31207726,11.3317379 4.91376245,11.6325805 C5.51544765,11.9334231 6.18398676,12.0838444 6.91937978,12.0838444 C7.49858535,12.0838444 8.04177338,11.9781317 8.54894386,11.7662883 C9.05586364,11.5547793 9.50704397,11.2761656 9.90273556,10.9306144 C10.2980929,10.5853976 10.6323624,10.1868647 10.9055442,9.73560078 C11.1783917,9.28433688 11.3651649,8.8192008 11.4654457,8.34002539 L11.6660075,8.34002539 L11.615867,12.0169905 L11.4153053,12.0169905 C11.2815975,11.8276268 11.1422071,11.6550601 10.9974684,11.4988727 C10.8525625,11.3429359 10.7522816,11.264884 10.6966258,11.264884 C10.6741461,11.264884 10.5738653,11.3233812 10.3957832,11.4403755 C10.2173668,11.5573699 9.96123273,11.6856458 9.62696318,11.8247855 C9.29269362,11.9642595 8.88588757,12.0866857 8.4068793,12.192482 C7.9277039,12.2982783 7.37607556,12.35126 6.75224501,12.35126 C5.71600939,12.35126 4.78005463,12.20368 3.94438075,11.9083529 C3.10870686,11.6132764 2.39838406,11.1954395 1.81341233,10.6548421 C1.22844061,10.1144953 0.779850871,9.46818514 0.467977377,8.71607864 C0.155936747,7.96397214 0,7.13665499 0,6.2341272 C0,6.03356546 0.0138721865,5.80534292 0.0417836943,5.54887461 C0.0695280674,5.29274056 0.119584933,5.01980947 0.192204994,4.7299142 C0.264574353,4.44026963 0.364855219,4.13658574 0.493047593,3.81902966 C0.620989265,3.50147359 0.785533454,3.18132692 0.986095187,2.85800469 C1.22008387,2.47936085 1.50972844,2.11717979 1.85519603,1.77162864 C2.20049648,1.42641176 2.60730253,1.12272787 3.0752799,0.860744103 C3.54325728,0.59909461 4.07232242,0.390176138 4.66306029,0.233988688 C5.25354746,0.0781355084 5.91657112,0 6.65196414,0 C7.32050325,0 7.90547497,0.0613384633 8.4068793,0.183848255 C8.90828363,0.306608749 9.32612058,0.440316571 9.66039013,0.584971721 C9.99465969,0.729877573 10.2508773,0.863668962 10.4292101,0.986095187 C10.6072922,1.10885568 10.7075731,1.16994344 10.7300527,1.16994344 C10.7522816,1.16994344 10.7940653,1.14487323 10.8554038,1.09473279 C10.9164916,1.04459236 10.9833455,0.983504597 11.0559655,0.910884537 C11.1283349,0.838515178 11.2035455,0.754947789 11.2815975,0.660182371 C11.3593987,0.565667654 11.4320188,0.467977377 11.4988727,0.36769651 L11.6827209,0.36769651 L11.6827209,4.11151552 L11.4821592,4.128229 Z" id="Path"></path>
            </g>
            <g id="Group" transform="translate(30.752632, 1.603499)">
                <path d="M6.26387719,7.0249254 L0,7.0249254 L0,6.92740225 C0.162538571,6.90141279 0.323489362,6.85904413 0.482935939,6.80054696 C0.642298949,6.74196622 0.76739933,6.66073872 0.858571351,6.55661375 C0.891079066,6.51758778 0.918656304,6.46076195 0.941553768,6.38580201 C0.964200531,6.31117633 0.982083952,6.22485122 0.995204032,6.12732807 C1.00815698,6.02972136 1.01960571,5.92726774 1.02929953,5.81996722 C1.03907691,5.71266669 1.04400739,5.60703751 1.04400739,5.50282898 C1.04400739,5.41182409 1.0455116,5.28822792 1.0488543,5.13212404 C1.05202986,4.97602016 1.05528898,4.80520842 1.05863168,4.61985595 C1.06180724,4.43450348 1.06347859,4.24422054 1.06347859,4.04909068 L1.06347859,1.24891462 C1.06347859,1.13183671 1.05863168,1.0229484 1.0488543,0.921998999 C1.03907691,0.821300296 1.02445262,0.731716055 1.00489785,0.653664114 C0.985426647,0.575612173 0.956178061,0.51393944 0.917152091,0.468395214 C0.82598007,0.357835558 0.703971682,0.273181794 0.551294063,0.214684622 C0.398365742,0.156103882 0.237331384,0.117077912 0.0682745566,0.09760671 L0.0682745566,0 L3.18074195,0 L3.18074195,0.09760671 C3.09608818,0.110643223 2.99530591,0.130197992 2.878228,0.156103882 C2.76115009,0.182176907 2.65050687,0.224462006 2.54654904,0.282959178 C2.44242407,0.341539918 2.3529234,0.424438767 2.27821415,0.531739294 C2.20333777,0.639039821 2.16264045,0.78051941 2.15620576,0.956178061 C2.14968751,1.18398276 2.1448406,1.39198199 2.14166504,1.58059359 C2.13823877,1.76928875 2.13506321,1.95472479 2.13188765,2.13681813 C2.12854496,2.31891147 2.12695718,2.50752306 2.12695718,2.70265292 L2.12695718,4.47837636 C2.12695718,4.64760032 2.12854496,4.82158763 2.13188765,5.00033827 C2.13506321,5.17933962 2.13673456,5.37939994 2.13673456,5.60043569 C2.14316925,5.80868562 2.15135885,6.00699103 2.16113624,6.19560263 C2.17091362,6.38438136 2.20500912,6.52410603 2.26358986,6.61511092 C2.28949575,6.6477022 2.3416418,6.68020992 2.41969374,6.71271763 C2.49774568,6.74530891 2.59192613,6.77288615 2.70265292,6.79561648 C2.81312901,6.81851395 2.93346605,6.83806871 3.06366404,6.85419722 C3.19369489,6.87049286 3.32372575,6.8785989 3.45392374,6.8785989 C3.50590266,6.8785989 3.58880151,6.87709468 3.70270386,6.87366842 C3.81643907,6.87049286 3.94179016,6.8639746 4.07833927,6.85419722 C4.21497195,6.84441984 4.35478019,6.82979554 4.49793113,6.81032434 C4.64091493,6.79076957 4.76768666,6.76486368 4.87841345,6.7322724 C5.13847516,6.66073872 5.35483113,6.56639113 5.52723066,6.44931322 C5.69946304,6.33215174 5.84754446,6.19727398 5.97114062,6.04434566 C6.09465322,5.89158447 6.19877819,5.7257032 6.28334839,5.54678542 C6.36783502,5.36795121 6.44922965,5.1809274 6.5272816,4.98579754 L6.62488831,5.01504613 L6.26387719,7.0249254 Z" id="Path"></path>
            </g>
            <g id="Group" transform="translate(37.728670, 1.603499)">
                <path d="M5.97122419,7.0249254 L0,7.0249254 L0,6.92740225 C0.162538571,6.90141279 0.313795545,6.85904413 0.453687353,6.80054696 C0.593495594,6.74196622 0.708902158,6.66073872 0.800074179,6.55661375 C0.832581894,6.51758778 0.858571351,6.46076195 0.87812612,6.38580201 C0.897597322,6.31117633 0.915480743,6.22485122 0.931776384,6.12732807 C0.94790489,6.02972136 0.959353622,5.92726774 0.965955446,5.81996722 C0.972306567,5.71266669 0.97573283,5.60703751 0.97573283,5.50282898 C0.97573283,5.41182409 0.977237043,5.28822792 0.980579739,5.13212404 C0.9837553,4.97602016 0.98693086,4.80520842 0.990357123,4.61985595 C0.993532684,4.43450348 0.995204032,4.24422054 0.995204032,4.04909068 L0.995204032,1.58059359 C0.995204032,1.46351568 0.993532684,1.34326221 0.990357123,1.21958247 C0.98693086,1.09615344 0.980579739,0.979075526 0.970802354,0.868348736 C0.96102497,0.757872648 0.944729329,0.65859459 0.921998999,0.570765265 C0.899185102,0.483019507 0.868348736,0.419591859 0.829322765,0.380565888 C0.731799623,0.276524489 0.627674656,0.209754146 0.517115001,0.18050556 C0.406471779,0.151256974 0.263404409,0.123679735 0.0878293255,0.09760671 L0.0878293255,0 L5.47358039,0 L6.13702189,1.60992574 L6.03949875,1.65864553 C5.51260636,1.00180586 5.01822169,0.559483667 4.5564283,0.331762533 C4.44570151,0.279783617 4.24087784,0.234155823 3.94170659,0.195129853 C3.64253534,0.156103882 3.27834866,0.136632681 2.84897942,0.136632681 C2.7124303,0.136632681 2.57095071,0.141479589 2.42462422,0.151256974 C2.27821415,0.160950791 2.17241784,0.172399523 2.10748598,0.185436035 C2.0943659,0.289477434 2.0830843,0.504162056 2.07330691,0.829322765 C2.0636131,1.15465061 2.05868262,1.53179023 2.05868262,1.96115948 L2.05868262,2.58557501 C2.05868262,2.75479897 2.0602704,2.89293586 2.0636131,3.00023639 C2.06678866,3.10753692 2.06846,3.19051933 2.06846,3.2490165 L2.06846,3.3564006 L2.26358986,3.3564006 C2.361113,3.3564006 2.47342757,3.35314147 2.6001993,3.34662321 C2.7270546,3.34018853 2.85382632,3.33191535 2.98068162,3.32222154 C3.10753692,3.31244415 3.2131661,3.29781986 3.29781986,3.27834866 C3.49294971,3.23280443 3.65548828,3.17096456 3.78560271,3.09291262 C3.91571713,3.01486068 4.02134631,2.92068023 4.10274095,2.80995344 C4.18396845,2.69947736 4.24915101,2.57095071 4.29795437,2.42462422 C4.34667416,2.27821415 4.39054703,2.11400423 4.429573,1.93191089 L4.54673448,1.93191089 L4.54673448,5.00526875 L4.429573,5.00526875 C4.37742695,4.79718595 4.29795437,4.58250133 4.19057027,4.36129845 C4.08326975,4.14026271 3.97103874,3.97438144 3.85396083,3.86365465 C3.74983587,3.77273333 3.62465192,3.69785695 3.47832542,3.63935978 C3.33191535,3.58077904 3.16127075,3.54509576 2.96605733,3.53197568 C2.86853418,3.52554099 2.78705598,3.52069409 2.72212412,3.51735139 C2.65710869,3.51409226 2.59192613,3.51250448 2.52699427,3.51250448 L2.07823739,3.51250448 C2.06511731,3.60359294 2.05868262,3.73688292 2.05868262,3.912458 L2.05868262,5.08332069 C2.05868262,5.18744565 2.0602704,5.28672371 2.0636131,5.38090416 C2.06678866,5.47525174 2.06846,5.55497503 2.06846,5.61990689 C2.07489469,5.82815682 2.08625986,6.02487445 2.10263907,6.21022692 C2.11876757,6.39557939 2.15620576,6.53388342 2.2147865,6.62488831 C2.27328367,6.71606033 2.41317548,6.78099219 2.63437836,6.82001816 C2.8554141,6.85904413 3.09608818,6.8785989 3.3564006,6.8785989 C3.46687669,6.8785989 3.60835628,6.87533977 3.7807558,6.86882151 C3.95307175,6.86238682 4.13349375,6.84609118 4.32227248,6.82001816 C4.53043884,6.79411227 4.72230957,6.74372113 4.89796822,6.66876118 C5.07362687,6.59413551 5.24260013,6.48833919 5.40522227,6.35170651 C5.56784441,6.2151574 5.72553607,6.04768835 5.87854796,5.8492158 C6.03122558,5.65091039 6.18908437,5.41182409 6.35170651,5.13212404 L6.45909061,5.16137263 L5.97122419,7.0249254 Z" id="Path"></path>
            </g>
        </g>
    </g>
</svg>