<?xml version="1.0" encoding="UTF-8"?>
<svg width="217px" height="146px" viewBox="0 0 217 146" version="1.1" xmlns="http://www.w3.org/2000/svg" xmlns:xlink="http://www.w3.org/1999/xlink">
    <title>Logo variant</title>
    <g id="Page-1" stroke="none" stroke-width="1" fill="none" fill-rule="evenodd">
        <g id="Accueil" transform="translate(-691.000000, -4620.000000)" fill="#2A1111">
            <g id="Footer" transform="translate(0.000000, 4544.000000)">
                <g id="Logo-variant" transform="translate(691.000000, 76.000000)">
                    <path d="M140.076327,51.2463287 C140.117998,53.6581431 139.608829,55.9491907 138.496729,58.0940401 C137.181483,60.630273 135.28805,62.6231858 132.824242,64.0652142 C131.24204,64.9920928 129.538991,65.5917533 127.717701,65.8165934 C124.060535,66.2675778 120.754318,65.4109944 117.916121,63.0187426 C115.803393,61.2382803 114.559378,58.9455372 114.209731,56.1912459 C113.909308,53.8276861 114.368993,51.6146282 115.640485,49.5968057 C116.854809,47.6696234 118.514233,46.2784579 120.78466,45.8346464 C123.44862,45.3136278 125.774392,45.9765409 127.530701,48.1597331 C128.428064,49.2748044 128.80037,50.56607 128.571178,51.988927 C128.365297,53.2654554 127.689963,54.2169829 126.453632,54.688182 C125.772829,54.947322 125.095412,54.9405403 124.493524,54.4491264 C124.161587,54.1783792 124.057409,53.8242952 124.143747,53.4108711 C124.204821,53.1188659 124.296758,52.8310341 124.333741,52.5361596 C124.411484,51.9170669 123.994252,51.324188 123.354078,51.0988262 C122.720416,50.8762032 122.146266,51.0450942 121.609228,51.3835281 C120.251399,52.2389377 119.535958,53.9065888 119.854482,55.4924679 C120.279918,57.6099296 121.612614,58.9793154 123.548891,59.7598653 C125.377865,60.4969861 127.21947,60.3048808 128.978905,59.4901615 C132.06765,58.0598707 133.791794,55.5745007 134.239759,52.2412852 C134.56792,49.8022135 134.004057,47.5007325 132.664068,45.4358291 C130.72115,42.4423518 127.96916,40.6128524 124.432971,40.1220906 C120.418735,39.5650766 116.783577,40.5272984 113.659411,43.1822114 C111.59161,44.9390681 110.112674,47.1143049 109.255029,49.6875764 C108.797428,51.0608747 108.401422,52.4585611 108.051775,53.8638118 C107.222909,57.1946797 105.512959,59.9912263 103.055532,62.3540036 C101.319016,64.0234805 99.3526579,65.3401776 97.1164788,66.2420159 C94.4874188,67.3024422 91.7644685,67.6616125 88.9567434,67.2746632 C86.3588065,66.9165362 83.9469575,66.0339997 81.7717225,64.5555847 C79.1157065,62.7504734 77.1325496,60.3925215 76.0092512,57.3554847 C75.4133535,55.7448262 75.1745256,54.0722192 75.1957519,52.3556616 C75.226875,49.8139511 75.8330603,47.4291332 77.1747417,45.2653732 C79.127687,42.1155251 81.9003823,40.1112659 85.5971357,39.5803355 C89.242842,39.0564476 92.4081578,40.1239165 94.9955466,42.778699 C96.195546,44.0098421 96.8401469,45.5166881 97.0651712,47.2168132 C97.262979,48.7090524 97.1366633,50.1643835 96.6735925,51.5978043 C95.7258338,54.5297245 92.8154935,56.3066656 89.8198574,55.7686926 C88.0531301,55.4512559 86.8855561,54.3098403 86.5912535,52.5978472 C86.4704071,51.8971129 86.4950191,51.2095509 86.9336082,50.6078036 C87.2926313,50.1148247 87.80714,49.9422821 88.3949639,50.0104906 C88.5573513,50.0294012 88.7194782,50.1329528 88.8608997,50.2289402 C88.9848714,50.3131901 89.0898307,50.4327831 89.1854139,50.5510719 C89.5529015,51.0062297 90.021051,51.1337782 90.5739753,50.9937096 C91.1203885,50.855206 91.4844903,50.512077 91.6445337,49.9742345 C91.8808873,49.1793386 91.7296991,48.4128738 91.4171654,47.6711884 C90.6260643,45.7934345 89.0036234,45.0384464 87.0545848,45.1123933 C85.5217369,45.1704291 84.2643095,45.8737718 83.1946627,46.9322418 C81.9529921,48.1612981 81.1685324,49.6331922 80.9859606,51.3848322 C80.7936221,53.2298514 81.1470457,54.9735359 82.1007945,56.573761 C83.3726767,58.708177 85.2267832,60.1549005 87.5412259,60.981227 C90.7911863,62.1415532 93.9200398,61.7084361 96.8694469,60.009876 C99.6379751,58.4156501 101.419418,55.9995319 102.394393,52.973711 C102.966981,51.1962483 103.133535,49.3701397 103.028966,47.5103834 C102.856161,44.435395 101.651734,41.7960017 99.6282085,39.5222996 C98.5632497,38.3255869 97.4308357,37.1888663 96.3212106,36.032583 C94.6417324,34.2827688 93.2407998,32.3441098 92.2862696,30.1014471 C91.6867257,28.6924143 91.2948865,27.2280845 91.1102312,25.7046754 C90.9419838,24.3150749 90.9189345,22.9240397 91.0418644,21.5333959 C91.2592056,19.069284 91.9534212,16.7468057 93.1842833,14.5924358 C94.3470391,12.5579197 95.8468105,10.8246686 97.754829,9.45658699 C99.7325166,8.04025083 101.912049,7.10385179 104.313871,6.68651517 C106.892665,6.2378783 109.427183,6.40220459 111.891512,7.27991568 C115.391369,8.52801301 118.052594,10.7620681 119.671128,14.151624 C120.686212,16.2769107 121.002913,18.5319631 120.763434,20.8651356 C120.55052,22.9391682 119.861123,24.8387019 118.573875,26.4938329 C116.906898,28.6365956 114.743252,29.9600743 112.044263,30.3346339 C109.646218,30.6675903 107.411341,30.1862186 105.430528,28.7701433 C103.456226,27.358763 102.606525,25.3679369 102.647415,22.9712509 C102.668641,21.7175456 102.997322,20.5496552 103.724745,19.5175296 C104.727197,18.0949334 106.245981,17.5220084 107.796929,17.8220995 C108.590505,17.9756012 109.282897,18.3452049 109.691535,19.0957587 C109.919945,19.515182 109.962267,19.9664273 109.849495,20.4317576 C109.765111,20.7799728 109.541389,21.0041609 109.218958,21.1348394 C109.043939,21.2056562 108.865534,21.2728213 108.683223,21.320815 C107.622952,21.600561 107.550679,22.4958784 107.774922,23.1561832 C108.104905,24.1283167 108.86905,24.6394237 109.831394,24.8150963 C111.449147,25.1104924 112.770123,24.5383499 113.78716,23.2729071 C114.790914,22.023636 115.230284,20.5831725 115.062297,18.9858166 C114.928168,17.7095491 114.423687,16.5652642 113.645217,15.55231 C111.75556,13.0939365 109.227813,12.0114696 106.166024,12.2031836 C103.560795,12.3662057 101.441946,13.5647443 99.7115508,15.4753636 C98.1943296,17.1497963 97.2581608,19.1235377 96.9357301,21.3581145 C96.4679713,24.6005592 97.1211668,27.6113821 98.972148,30.3296781 C100.156521,32.0689284 101.736379,33.3740183 103.577724,34.369627 C105.42024,35.3658877 107.384254,35.9608533 109.471199,36.1503502 C111.484697,36.3331958 113.448712,36.0876193 115.385509,35.5253886 C116.712606,35.1403955 118.045823,34.7730089 119.388025,34.4456605 C120.785702,34.1046182 122.21307,34.0802301 123.644865,34.1668275 C125.052699,34.2518598 126.435791,34.4716136 127.791276,34.8635188 C130.218492,35.5660789 132.352837,36.7951352 134.241061,38.464873 C136.16054,40.1623897 137.691955,42.1512595 138.727223,44.5064726 C139.548926,46.3747061 140.003403,48.3296673 140.075025,50.3713563 C140.085443,50.6628399 140.076327,50.9545843 140.076327,51.2463287" id="Fill-1"></path>
                    <path d="M107.072242,2.71660056 C96.7685246,2.71660056 87.0814106,6.73476971 79.7958581,14.0316397 C72.5099149,21.3290313 68.4975024,31.0302819 68.4975024,41.3497124 C68.4975024,51.668882 72.5099149,61.370263 79.7958581,68.6670025 C87.0814106,75.9638725 96.7685246,79.9823025 107.072242,79.9823025 C117.375959,79.9823025 127.063073,75.9638725 134.349146,68.6670025 C141.635089,61.370263 145.647241,51.668882 145.647241,41.3497124 C145.647241,31.0302819 141.635089,21.3290313 134.349146,14.0316397 C127.063073,6.73476971 117.375959,2.71660056 107.072242,2.71660056 M107.072242,82.6987726 C101.499244,82.6987726 96.0920192,81.6053507 91.0011048,79.4487637 C86.0845581,77.3659931 81.6692375,74.3849055 77.8779426,70.5879248 C74.0866477,66.7908136 71.1098939,62.3690017 69.0303724,57.4449512 C66.8768846,52.3462715 65.7851,46.9311984 65.7851,41.3497124 C65.7851,35.7680959 66.8768846,30.3530228 69.0303724,25.2542127 C71.1098939,20.3302926 74.0866477,15.9083503 77.8779426,12.1118912 C81.6692375,8.31412799 86.0845581,5.3327795 91.0011048,3.25000893 C96.0920192,1.09420445 101.499244,0 107.072242,0 C112.64537,0 118.052594,1.09420445 123.143639,3.25000893 C128.060055,5.3327795 132.475246,8.31412799 136.267322,12.1118912 C140.058096,15.9083503 143.03498,20.3302926 145.114632,25.2542127 C147.267208,30.3530228 148.359774,35.7680959 148.359774,41.3497124 C148.359774,46.9311984 147.267208,52.3462715 145.114632,57.4449512 C143.03498,62.3690017 140.058096,66.7908136 136.267322,70.5879248 C132.475246,74.3849055 128.060055,77.3659931 123.143639,79.4487637 C118.052594,81.6053507 112.64537,82.6987726 107.072242,82.6987726" id="Fill-2"></path>
                    <path d="M41.3892359,116.314325 C40.8666535,114.383621 40.083496,112.573423 39.0396332,110.883993 C37.9947287,109.194562 36.7596995,107.726841 35.3345455,106.479396 C33.9082196,105.233124 32.3015357,104.247036 30.5147541,103.522957 C28.7270611,102.798878 26.82933,102.436839 24.8215611,102.436839 C22.050168,102.436839 19.5801096,103.061018 17.4112555,104.307289 C15.2424015,105.554734 13.4244968,107.203475 11.9589739,109.254945 C10.4922791,111.306415 9.36832955,113.629285 8.58517205,116.223815 C7.80188432,118.818344 7.41030557,121.48356 7.41030557,124.218419 C7.41030557,127.114605 7.82154791,129.829771 8.6453348,132.363917 C9.46807991,134.898063 10.6429464,137.100297 12.169804,138.970747 C13.6956198,140.841198 15.5436059,142.319482 17.7124599,143.40547 C19.881314,144.491589 22.2912097,145.034648 24.9420168,145.034648 C27.0300028,145.034648 28.9878965,144.652916 30.8160888,143.888277 C32.643109,143.124551 34.269717,142.118769 35.6960429,140.871324 C37.1211968,139.625053 38.3261447,138.186415 39.3107563,136.557368 C40.294326,134.92819 40.9675758,133.249323 41.3290732,131.519202 L42.0519377,131.519202 L41.871189,144.793245 L41.1483245,144.793245 C40.6663714,144.109856 40.163713,143.48659 39.6421723,142.922795 C39.1195898,142.360173 38.7580924,142.078079 38.5576801,142.078079 C38.476812,142.078079 38.1153146,142.289356 37.4733182,142.711648 C36.8301498,143.133941 35.906873,143.597054 34.7019251,144.099423 C33.4969773,144.602835 32.0304126,145.045082 30.3039241,145.426814 C28.5763937,145.808808 26.5882884,146 24.339608,146 C20.6043087,146 17.2305068,145.467505 14.2182023,144.401079 C11.2058978,143.335697 8.6453348,141.827286 6.53677373,139.875846 C4.42808243,137.925319 2.81085047,135.591886 1.68690095,132.87672 C0.561909648,130.161554 0.000130222398,127.174988 0.000130222398,123.916763 C0.000130222398,123.192684 0.0497449561,122.368705 0.150667315,121.443 C0.250417672,120.518208 0.431166361,119.533164 0.692913381,118.486431 C0.9534884,117.441003 1.31498578,116.344451 1.77727529,115.198079 C2.23852303,114.051708 2.83155583,112.895816 3.55455058,111.728708 C4.39800106,110.36167 5.4418638,109.054232 6.68731082,107.806917 C7.93184628,106.560516 9.39841093,105.464224 11.0853119,104.518566 C12.7722128,103.57382 14.6794501,102.819614 16.8087165,102.255819 C18.9370714,101.693197 21.3273035,101.411103 23.9781106,101.411103 C26.3878761,101.411103 28.4965674,101.632813 30.3039241,102.074929 C32.1112807,102.517958 33.6175632,103.000895 34.8223808,103.522957 C36.0273287,104.046323 36.9507357,104.528999 37.5937739,104.970985 C38.2357704,105.414144 38.5972677,105.63468 38.6781358,105.63468 C38.7580924,105.63468 38.9087597,105.544171 39.1300076,105.363281 C39.3503439,105.182261 39.5913855,104.961595 39.8530023,104.699455 C40.1135773,104.438489 40.3847004,104.136833 40.6663714,103.794487 C40.9468705,103.453184 41.2084873,103.100534 41.4495289,102.738625 L42.1122307,102.738625 L42.1122307,116.253941 L41.3892359,116.314325 Z" id="Fill-3"></path>
                    <path d="M79.2727547,145.758727 L47.2114794,145.758727 L47.2114794,145.234057 C48.0839694,145.094771 48.8960363,144.866801 49.6472893,144.551972 C50.3978912,144.237144 51.0177499,143.800114 51.5069954,143.240362 C51.6814934,143.03052 51.8213523,142.72482 51.9263115,142.322221 C52.0308801,141.920535 52.1267238,141.456508 52.2142332,140.931838 C52.3012218,140.407168 52.3625566,139.856283 52.3975864,139.279055 C52.4322255,138.701956 52.4501962,138.133987 52.4501962,137.573974 C52.4501962,137.084646 52.4584002,136.419647 52.4762407,135.580148 C52.4934301,134.74078 52.5107496,133.822509 52.5285901,132.825726 C52.5459097,131.828813 52.5547648,130.805687 52.5547648,129.756346 L52.5547648,116.482302 C52.5547648,115.852646 52.5459097,115.205774 52.5285901,114.541035 C52.5107496,113.877079 52.4762407,113.247422 52.4237611,112.652196 C52.3714117,112.057752 52.2839022,111.524213 52.1618838,111.051971 C52.0392143,110.579859 51.8737017,110.238816 51.6644343,110.028844 C51.1405496,109.469874 50.5812444,109.110703 49.9876907,108.953289 C49.3936161,108.795875 48.6256946,108.64746 47.682624,108.507391 L47.682624,107.982721 L76.6012422,107.982721 L80.1633457,116.639717 L79.639461,116.901987 C76.8107701,113.369493 74.155926,110.991457 71.6764916,109.766574 C71.0821565,109.486958 69.9819075,109.241903 68.3760049,109.032061 C66.7691907,108.822219 64.8139014,108.717233 62.5085743,108.717233 C61.7750315,108.717233 61.0157047,108.743447 60.2299428,108.795875 C59.4440506,108.848433 58.8758903,108.90973 58.5272849,108.979503 C58.4565741,109.539647 58.3962812,110.693713 58.3439318,112.442354 C58.2913219,114.191907 58.2652774,116.220033 58.2652774,118.528556 L58.2652774,121.88642 C58.2652774,122.796475 58.2734814,123.539073 58.2913219,124.116172 C58.3085113,124.693401 58.3174966,125.139299 58.3174966,125.454127 L58.3174966,126.031225 L59.365266,126.031225 C59.8891507,126.031225 60.49182,126.01388 61.1726227,125.978797 C61.8536858,125.944367 62.5350094,125.900025 63.2158121,125.847597 C63.8970055,125.795169 64.464124,125.716397 64.9183398,125.611541 C65.9661092,125.367269 66.8385992,125.034443 67.5377633,124.614628 C68.236146,124.194944 68.8032646,123.688402 69.2404212,123.093175 C69.6767964,122.498601 70.0261831,121.807648 70.2881906,121.020708 C70.5500678,120.233637 70.786161,119.350709 70.9954284,118.371142 L71.6242724,118.371142 L71.6242724,134.898063 L70.9954284,134.898063 C70.7155805,133.778949 70.2881906,132.625013 69.7118262,131.435343 C69.1358526,130.246716 68.5331833,129.35479 67.90473,128.759563 C67.345555,128.269975 66.673347,127.867637 65.8875851,127.552808 C65.1016929,127.23798 64.1849272,127.046266 63.1371578,126.97571 C62.6132731,126.94128 62.1761165,126.915066 61.8275111,126.896938 C61.4779942,126.879592 61.1283471,126.870724 60.7797417,126.870724 L58.369846,126.870724 C58.2996561,127.360964 58.2652774,128.077479 58.2652774,129.021833 L58.2652774,135.317878 C58.2652774,135.877631 58.2734814,136.411561 58.2913219,136.918103 C58.3085113,137.425428 58.3174966,137.854372 58.3174966,138.2035 C58.3520055,139.323397 58.4133403,140.380954 58.5008497,141.377736 C58.5875779,142.374649 58.7891621,143.118291 59.1032586,143.607618 C59.4176154,144.097858 60.1683476,144.447117 61.3562363,144.656959 C62.5430832,144.866801 63.8355405,144.971787 65.2326966,144.971787 C65.8262503,144.971787 66.5858376,144.954702 67.511849,144.919229 C68.4368187,144.884929 69.4059338,144.797027 70.4190641,144.656959 C71.5365025,144.517672 72.5670825,144.246143 73.5100229,143.843674 C74.4532238,143.442118 75.3608739,142.873105 76.2342755,142.138593 C77.1067656,141.40395 77.9541227,140.503938 78.7753052,139.436469 C79.5951854,138.369782 80.4425425,137.084646 81.3160744,135.580148 L81.8921783,135.737562 L79.2727547,145.758727 Z" id="Fill-4"></path>
                    <path d="M117.725606,145.758727 L84.0924159,145.758727 L84.0924159,145.234057 C84.964906,145.094771 85.8293222,144.866801 86.6855345,144.551972 C87.5410957,144.237144 88.212913,143.800114 88.7025492,143.240362 C88.8767868,143.03052 89.0249799,142.72482 89.1475192,142.322221 C89.2696678,141.920535 89.3655115,141.456508 89.4359618,140.931838 C89.5056308,140.407168 89.5669655,139.856283 89.6193149,139.279055 C89.6714039,138.701956 89.6979693,138.133987 89.6979693,137.573974 C89.6979693,137.084646 89.706043,136.419647 89.724144,135.580148 C89.7410729,134.74078 89.7583924,133.822509 89.7764934,132.825726 C89.7935525,131.828813 89.8024076,130.805687 89.8024076,129.756346 L89.8024076,114.698449 C89.8024076,114.068793 89.7764934,113.483608 89.724144,112.94081 C89.6714039,112.398794 89.5931402,111.917683 89.4883112,111.497999 C89.3836124,111.078185 89.2264339,110.746141 89.0166457,110.501086 C88.5272699,109.906642 87.8725117,109.451745 87.0521106,109.136917 C86.231449,108.822219 85.3670327,108.612247 84.4591222,108.507391 L84.4591222,107.982721 L101.170953,107.982721 L101.170953,108.507391 C100.716477,108.577947 100.175533,108.682803 99.5469497,108.822219 C98.9182359,108.962288 98.3239009,109.189475 97.7656375,109.504173 C97.2064625,109.819002 96.7260721,110.26503 96.3249871,110.842128 C95.923251,111.419227 95.7044774,112.180084 95.6700987,113.124438 C95.6348084,114.349321 95.6086337,115.468175 95.5915746,116.482302 C95.5734736,117.497213 95.5561541,118.494126 95.5392251,119.472911 C95.5211242,120.452478 95.5130504,121.466606 95.5130504,122.515947 L95.5130504,132.064869 C95.5130504,132.974924 95.5211242,133.910149 95.5392251,134.871849 C95.5561541,135.834332 95.5651394,136.910017 95.5651394,138.098644 C95.5996483,139.218541 95.643924,140.284836 95.6961431,141.299094 C95.748753,142.314005 95.9321061,143.065602 96.246463,143.55519 C96.3855405,143.730602 96.6655187,143.905361 97.0847046,144.07986 C97.5037602,144.255272 98.009544,144.403557 98.6038791,144.525758 C99.1974328,144.648742 99.8430754,144.753729 100.541979,144.840587 C101.240362,144.928227 101.938614,144.971787 102.637518,144.971787 C102.916975,144.971787 103.362075,144.963571 103.97373,144.945443 C104.584212,144.928227 105.256941,144.893015 105.990614,144.840587 C106.724027,144.788159 107.474499,144.709387 108.243332,144.6044 C109.011123,144.499544 109.692056,144.360258 110.286391,144.184716 C111.682896,143.800114 112.844349,143.29279 113.76997,142.663133 C114.6952,142.033607 115.490208,141.307963 116.153952,140.485809 C116.816914,139.664439 117.375828,138.772512 117.830044,137.81003 C118.283739,136.84833 118.720896,135.842548 119.139821,134.793208 L119.663706,134.950622 L117.725606,145.758727 Z" id="Fill-5"></path>
                    <path d="M158.221516,117.846472 C157.941538,117.216815 157.609471,116.561075 157.225315,115.87899 C156.841159,115.196906 156.447887,114.559163 156.046802,113.963937 C155.644415,113.369493 155.252445,112.818609 154.868289,112.311284 C154.484133,111.804611 154.152066,111.428226 153.87339,111.183171 C153.140238,110.483871 152.344579,110.020497 151.489018,109.792788 C150.633457,109.5656 149.542193,109.43453 148.215227,109.399318 C147.551093,109.399318 146.974208,109.391232 146.485874,109.373104 C145.996237,109.355758 145.507903,109.34689 145.019569,109.34689 L141.562165,109.34689 C141.562165,110.221471 141.553049,111.411141 141.53612,112.914596 C141.517889,114.418834 141.510076,115.992845 141.510076,117.63663 L141.510076,138.151072 C141.510076,139.166113 141.53612,140.136681 141.588209,141.063038 C141.640298,141.990047 141.805681,142.645918 142.085659,143.03052 C142.609153,143.800114 143.35142,144.324785 144.312462,144.604531 C145.272201,144.884929 146.136878,145.094771 146.90519,145.234057 L146.90519,145.758727 L129.879262,145.758727 L129.879262,145.234057 C130.787563,145.129201 131.660054,144.954441 132.498686,144.709387 C133.337318,144.465245 134.156417,143.888016 134.961191,142.977961 C135.135689,142.803332 135.265912,142.514718 135.354463,142.112379 C135.44041,141.710692 135.51073,141.255535 135.562819,140.74821 C135.61621,140.241668 135.650068,139.690783 135.668299,139.095426 C135.685228,138.500983 135.694343,137.923884 135.694343,137.364132 C135.694343,136.874544 135.702157,136.227933 135.720388,135.422864 C135.737317,134.618448 135.754246,133.726521 135.772477,132.746954 C135.789406,131.7683 135.798521,130.753259 135.798521,129.703918 L135.798521,109.34689 L132.341117,109.34689 C131.887943,109.34689 131.40612,109.355758 130.900857,109.373104 C130.394292,109.391232 129.808812,109.399318 129.14585,109.399318 C127.818102,109.43453 126.727099,109.591814 125.871538,109.87156 C125.015325,110.151697 124.221359,110.641155 123.487686,111.340585 C123.207839,111.58564 122.885408,111.952896 122.518702,112.442354 C122.151995,112.932724 121.767188,113.46548 121.366233,114.042579 C120.964367,114.619807 120.580341,115.241248 120.213375,115.905204 C119.846929,116.569943 119.558486,117.216815 119.349219,117.846472 L118.877683,117.689057 L120.449337,107.720451 C121.252289,107.895862 121.994817,108.035148 122.67588,108.140135 C123.356683,108.245121 124.343117,108.315416 125.635835,108.349977 C126.962541,108.38519 128.15043,108.411404 129.198199,108.428749 C130.245838,108.446486 131.258969,108.454963 132.236939,108.454963 L142.189837,108.454963 C143.238127,108.454963 144.251257,108.446486 145.229227,108.428749 C146.205895,108.411404 147.220328,108.394319 148.267316,108.376191 C149.315606,108.358845 150.501932,108.349977 151.830201,108.349977 C152.982669,108.315416 153.933293,108.218777 154.684676,108.061362 C155.436059,107.904079 156.212184,107.703105 157.015657,107.45805 L158.692921,117.689057 L158.221516,117.846472 Z" id="Fill-6"></path>
                    <path d="M160.420972,145.758727 L160.420972,145.234057 C161.293462,145.094771 162.10605,144.866801 162.857433,144.551972 C163.607514,144.237144 164.245604,143.78316 164.769098,143.187803 C164.943596,142.977961 165.075121,142.681261 165.16237,142.295877 C165.249619,141.911405 165.319939,141.456508 165.372028,140.931838 C165.424117,140.407168 165.459277,139.856283 165.476206,139.279055 C165.494437,138.701956 165.50225,138.133987 165.50225,137.573974 C165.50225,137.084646 165.511366,136.419647 165.529597,135.580148 C165.546526,134.74078 165.563455,133.822509 165.581686,132.825726 C165.598615,131.828813 165.607731,130.805687 165.607731,129.756346 L165.607731,114.593463 C165.607731,113.963937 165.581686,113.378622 165.529597,112.835824 C165.476206,112.294199 165.398072,111.804611 165.293895,111.366799 C165.188414,110.929769 165.032148,110.588988 164.822489,110.343672 C164.332853,109.749228 163.729924,109.320545 163.0137,109.058275 C162.298779,108.795875 161.486192,108.612247 160.578542,108.507391 L160.578542,107.982721 L176.242994,107.982721 L176.242994,108.507391 C175.508539,108.612247 174.723298,108.804874 173.884666,109.084489 C173.047336,109.364887 172.400131,109.923988 171.946957,110.763487 C171.631819,111.358713 171.466436,112.11031 171.449507,113.019452 C171.431276,113.929507 171.405232,114.786351 171.370072,115.590376 C171.370072,116.464957 171.360956,117.33067 171.344027,118.187514 C171.325796,119.04501 171.317983,119.910723 171.317983,120.784521 L171.317983,138.360914 C171.317983,139.375955 171.334912,140.354609 171.370072,141.299094 C171.405232,142.243449 171.561499,142.908188 171.841477,143.29279 C172.260793,143.888016 172.923625,144.34213 173.832577,144.656959 C174.740227,144.971787 175.561931,145.164283 176.295083,145.234057 L176.295083,145.758727 L160.420972,145.758727 Z" id="Fill-7"></path>
                    <path d="M216.371026,120.154995 C215.91655,118.475998 215.235487,116.901987 214.327836,115.432962 C213.418884,113.963937 212.345851,112.687669 211.106134,111.602855 C209.866417,110.519214 208.469131,109.661588 206.915577,109.032061 C205.360722,108.402405 203.710804,108.087576 201.964522,108.087576 C199.554105,108.087576 197.406738,108.630375 195.521118,109.714015 C193.634195,110.798569 192.054597,112.232512 190.77972,114.016365 C189.504843,115.800218 188.526873,117.820127 187.845809,120.076223 C187.164746,122.332319 186.823564,124.649711 186.823564,127.028138 C186.823564,129.546504 187.181675,131.907455 187.897898,134.111123 C188.612819,136.31466 189.635065,138.229714 190.963334,139.856153 C192.288998,141.482722 193.895942,142.768119 195.782865,143.712474 C197.668485,144.656959 199.763763,145.129071 202.0687,145.129071 C203.884,145.129071 205.587309,144.797288 207.177324,144.132288 C208.766038,143.468332 210.180253,142.59362 211.41997,141.508936 C212.659687,140.425165 213.707978,139.174068 214.563539,137.757471 C215.4191,136.340874 216.003799,134.880718 216.318937,133.376611 L216.947911,133.376611 L216.790342,144.919229 L216.161368,144.919229 C215.742052,144.324785 215.305807,143.78303 214.85133,143.29279 C214.398156,142.803201 214.083018,142.558277 213.90852,142.558277 C213.8382,142.558277 213.524364,142.741905 212.96571,143.109161 C212.407056,143.476418 211.603584,143.879147 210.556596,144.315916 C209.508305,144.753729 208.233428,145.138069 206.731964,145.470113 C205.229197,145.802287 203.501146,145.968569 201.545206,145.968569 C198.297459,145.968569 195.363549,145.505326 192.743474,144.578186 C190.124701,143.65196 187.897898,142.340219 186.064367,140.643224 C184.230836,138.947011 182.824434,136.918103 181.847766,134.557021 C180.869796,132.19607 180.380159,129.598932 180.380159,126.765738 C180.380159,126.136211 180.424435,125.419697 180.511684,124.614628 C180.598933,123.810603 180.7552,122.953759 180.983089,122.043704 C181.209676,121.134562 181.523512,120.181209 181.925899,119.184296 C182.326984,118.187383 182.842665,117.182385 183.471639,116.167474 C184.204791,114.978847 185.112441,113.841866 186.195892,112.757182 C187.27804,111.673411 188.552917,110.720058 190.019221,109.897644 C191.486828,109.076403 193.144559,108.420533 194.996321,107.930162 C196.848084,107.440965 198.926433,107.19565 201.23137,107.19565 C203.326648,107.19565 205.16018,107.388277 206.731964,107.772748 C208.303748,108.158132 209.612483,108.577947 210.660774,109.032061 C211.709064,109.486828 212.511234,109.906903 213.07119,110.291244 C213.628542,110.676628 213.94368,110.868342 214.014,110.868342 C214.083018,110.868342 214.214543,110.789701 214.40597,110.632286 C214.597397,110.474872 214.807055,110.283028 215.034944,110.055058 C215.261531,109.82787 215.497234,109.5656 215.742052,109.268117 C215.98687,108.971417 216.213457,108.664675 216.423115,108.349977 L217,108.349977 L217,120.102437 L216.371026,120.154995 Z" id="Fill-8"></path>
                    <path d="M19.6340217,95.4216708 L0,95.4216708 L0,95.1155804 C0.509430022,95.033939 1.01391159,94.9009129 1.51370516,94.7172848 C2.01323828,94.5333959 2.40533792,94.2784293 2.69117608,93.9516025 C2.79301,93.8290099 2.87947767,93.6505985 2.95123021,93.415325 C3.02233164,93.1810948 3.07832727,92.9100868 3.11947755,92.6039965 C3.16010694,92.2975149 3.1959181,91.9759049 3.22625992,91.639036 C3.2569924,91.3022975 3.27248887,90.9706453 3.27248887,90.6435577 C3.27248887,90.3578126 3.27717687,89.9698199 3.28759467,89.4798406 C3.29762179,88.9897309 3.30777914,88.4535838 3.31832715,87.8716601 C3.32822405,87.2898667 3.33343295,86.6925537 3.33343295,86.0799818 L3.33343295,77.2896988 C3.33343295,76.9221817 3.31832715,76.580357 3.28759467,76.263442 C3.2569924,75.9473095 3.21115412,75.6661289 3.14981937,75.4210741 C3.08874506,75.1760192 2.9970685,74.9824794 2.87478966,74.8395416 C2.58908172,74.4923697 2.20661854,74.2267088 1.72805122,74.0430807 C1.24870258,73.8591918 0.743960561,73.7365991 0.2139554,73.6755637 L0.2139554,73.3690821 L9.96995703,73.3690821 L9.96995703,73.6755637 C9.70469401,73.7163844 9.38877447,73.7778111 9.02180775,73.8591918 C8.65484103,73.9409637 8.30792856,74.0737289 7.98211212,74.257357 C7.65577479,74.4412459 7.37514553,74.7015597 7.14100565,75.0382981 C6.90634489,75.375167 6.77872694,75.8193697 6.75854247,76.3707757 C6.73822778,77.0858559 6.72299175,77.7388573 6.71296463,78.3309537 C6.70228639,78.9233108 6.69225927,79.505365 6.68236237,80.0769857 C6.67194457,80.6486065 6.6668659,81.2407028 6.6668659,81.8532747 L6.6668659,87.4275878 C6.6668659,87.9587791 6.67194457,88.5049684 6.68236237,89.0661557 C6.69225927,89.6279951 6.69759839,90.2560868 6.69759839,90.9499089 C6.71778286,91.6036928 6.74343667,92.2261764 6.77403893,92.8182728 C6.8046412,93.4108908 6.91155379,93.8494855 7.09516737,94.1352306 C7.17642615,94.2374781 7.33985526,94.3395952 7.58454314,94.4415818 C7.82910081,94.5439597 8.12431498,94.6304266 8.4714879,94.7017651 C8.81774925,94.7737557 9.19487332,94.835052 9.60299031,94.8857845 C10.0105864,94.9369082 10.4181825,94.9623397 10.8262995,94.9623397 C10.9892077,94.9623397 11.2490014,94.9576446 11.6060712,94.94682 C11.9626202,94.9369082 12.3555011,94.9164326 12.7835422,94.8857845 C13.2117134,94.8550059 13.650042,94.8090989 14.0986582,94.747933 C14.5468837,94.6866367 14.9441922,94.605256 15.2913651,94.5030085 C16.1064271,94.2784293 16.7846254,93.9822507 17.3250483,93.6147336 C17.8648201,93.2469557 18.329063,92.8234895 18.7164746,92.3434219 C19.1036258,91.8638761 19.4299632,91.3431182 19.695096,90.7815396 C19.9598381,90.2200915 20.215074,89.632951 20.4596317,89.0205095 L20.7656543,89.1123236 L19.6340217,95.4216708 Z" id="Fill-9"></path>
                    <path d="M40.5830291,95.4216708 L21.866294,95.4216708 L21.866294,95.1155804 C22.3758542,95.033939 22.8498638,94.9009129 23.2884528,94.7172848 C23.7266512,94.5333959 24.088409,94.2784293 24.3741169,93.9516025 C24.4760811,93.8290099 24.5574701,93.6505985 24.6188048,93.415325 C24.6798791,93.1810948 24.7358748,92.9100868 24.786922,92.6039965 C24.8374482,92.2975149 24.8733896,91.9759049 24.894095,91.639036 C24.914019,91.3022975 24.9246972,90.9706453 24.9246972,90.6435577 C24.9246972,90.3578126 24.9295155,89.9698199 24.9399333,89.4798406 C24.9498302,88.9897309 24.9598573,88.4535838 24.9705355,87.8716601 C24.9805627,87.2898667 24.9857716,86.6925537 24.9857716,86.0799818 L24.9857716,78.3309537 C24.9857716,77.9633062 24.9805627,77.5858774 24.9705355,77.1976239 C24.9598573,76.8101529 24.9399333,76.4426359 24.909331,76.0950727 C24.8785985,75.7481616 24.8275513,75.4365938 24.7563197,75.1608908 C24.6848276,74.8854486 24.5882026,74.6863008 24.4657935,74.5638386 C24.1601615,74.2371422 23.833694,74.027561 23.4871722,73.935747 C23.1403899,73.8439329 22.691904,73.7573355 22.1415842,73.6755637 L22.1415842,73.3690821 L39.0232252,73.3690821 L41.1027467,78.4230285 L40.7969845,78.5758781 C39.145504,76.5139743 37.5958575,75.1254172 36.1484355,74.4105978 C35.8012626,74.2474452 35.1592662,74.1041162 34.2215347,73.981654 C33.2838032,73.8591918 32.1422737,73.7980259 30.7964252,73.7980259 C30.3683842,73.7980259 29.9249769,73.8132847 29.4662034,73.8439329 C29.0072997,73.8743202 28.6757534,73.9103155 28.4722158,73.9512667 C28.4310655,74.2778326 28.3957753,74.9518312 28.3650428,75.9724801 C28.334701,76.993781 28.3192045,78.1777129 28.3192045,79.5255797 L28.3192045,81.4857577 C28.3192045,82.0169489 28.324153,82.4505878 28.334701,82.7874567 C28.3445979,83.1241952 28.349937,83.3847697 28.349937,83.5683978 L28.349937,83.9055276 L28.9614614,83.9055276 C29.2672236,83.9055276 29.6192147,83.8952246 30.0166535,83.874749 C30.4142224,83.8545342 30.811531,83.8285811 31.2092302,83.7981938 C31.6067992,83.7675456 31.9379547,83.7216386 32.2032178,83.6604727 C32.8148724,83.5175349 33.3244326,83.323343 33.7322892,83.0782881 C34.1400155,82.8333637 34.471171,82.5377068 34.7262767,82.1901436 C34.9808615,81.8432326 35.1851805,81.4398506 35.3381918,80.9805195 C35.4909426,80.5207972 35.6284575,80.0053864 35.7507363,79.4337657 L36.1179635,79.4337657 L36.1179635,89.081545 L35.7507363,89.081545 C35.5873072,88.4284132 35.3381918,87.7544145 35.0015669,87.0600707 C34.6652024,86.3661182 34.3134717,85.8454908 33.946505,85.4977972 C33.6201677,85.2124433 33.2276774,84.9774306 32.7690341,84.7938025 C32.3101303,84.6099135 31.775307,84.4978847 31.1633919,84.4566727 C30.8576297,84.436458 30.6022636,84.4211991 30.398726,84.4107657 C30.1949279,84.4004627 29.990609,84.3955068 29.7872016,84.3955068 L28.3805393,84.3955068 C28.339389,84.6815128 28.3192045,85.0998928 28.3192045,85.651038 L28.3192045,89.3265998 C28.3192045,89.6534266 28.324153,89.9651249 28.334701,90.2607818 C28.3445979,90.5569604 28.349937,90.8072319 28.349937,91.0110748 C28.3699912,91.6647283 28.4056722,92.282256 28.4569798,92.8641798 C28.5075061,93.4459731 28.6249667,93.8801336 28.8085803,94.1658788 C28.9919334,94.4521456 29.4303922,94.6558581 30.1236963,94.7784507 C30.8166097,94.9009129 31.570988,94.9623397 32.3869616,94.9623397 C32.7332229,94.9623397 33.1766302,94.9520367 33.7170531,94.9316915 C34.2572156,94.9114768 34.8226413,94.8602226 35.4143719,94.7784507 C36.0669163,94.6970701 36.6682833,94.5388734 37.2188636,94.3035999 C37.7695742,94.0693697 38.2991887,93.7371958 38.8088791,93.308252 C39.3186998,92.8796995 39.8128938,92.3539858 40.2925029,91.73085 C40.7710702,91.1083664 41.2659153,90.3578126 41.7756058,89.4798406 L42.1122307,89.5716547 L40.5830291,95.4216708 Z" id="Fill-10"></path>
                </g>
            </g>
        </g>
    </g>
</svg>