<?xml version="1.0" encoding="UTF-8" standalone="no"?>
<!DOCTYPE svg PUBLIC "-//W3C//DTD SVG 1.1//EN" "http://www.w3.org/Graphics/SVG/1.1/DTD/svg11.dtd">
<svg width="100%" height="100%" viewBox="0 0 4986 1314" version="1.1" xmlns="http://www.w3.org/2000/svg" xmlns:xlink="http://www.w3.org/1999/xlink" xml:space="preserve" xmlns:serif="http://www.serif.com/" style="fill-rule:evenodd;clip-rule:evenodd;stroke-linejoin:round;stroke-miterlimit:2;">
    <g transform="matrix(1,0,0,1,-381.856,-263.062)">
        <g id="Calque-1" serif:id="Calque 1" transform="matrix(4.16667,0,0,4.16667,0,0)">
            <g transform="matrix(1,0,0,1,375.266,149.487)">
                <path d="M0,108.994C0.158,118.188 -1.785,126.921 -6.032,135.097C-11.053,144.765 -18.282,152.362 -27.687,157.859C-33.73,161.392 -40.23,163.678 -47.183,164.535C-61.145,166.254 -73.767,162.989 -84.602,153.87C-92.668,147.083 -97.417,138.343 -98.752,127.844C-99.899,118.834 -98.144,110.398 -93.29,102.706C-88.654,95.36 -82.319,90.057 -73.651,88.365C-63.481,86.379 -54.602,88.906 -47.897,97.228C-44.471,101.479 -43.05,106.401 -43.925,111.825C-44.711,116.691 -47.289,120.318 -52.009,122.114C-54.608,123.102 -57.194,123.076 -59.492,121.203C-60.759,120.171 -61.157,118.821 -60.827,117.245C-60.594,116.132 -60.243,115.035 -60.102,113.911C-59.805,111.551 -61.398,109.291 -63.842,108.432C-66.261,107.583 -68.453,108.227 -70.503,109.517C-75.687,112.778 -78.418,119.135 -77.202,125.18C-75.578,133.252 -70.49,138.472 -63.098,141.447C-56.116,144.257 -49.085,143.525 -42.368,140.419C-30.578,134.967 -23.996,125.493 -22.284,112.787C-21.032,103.489 -23.185,94.716 -28.301,86.845C-35.717,75.434 -46.223,68.46 -59.723,66.589C-75.048,64.466 -88.926,68.134 -100.853,78.254C-108.747,84.951 -114.393,93.243 -117.667,103.052C-119.414,108.287 -120.926,113.615 -122.261,118.972C-125.425,131.669 -131.953,142.329 -141.335,151.336C-147.964,157.7 -155.471,162.719 -164.008,166.157C-174.045,170.199 -184.44,171.568 -195.159,170.093C-205.077,168.728 -214.285,165.364 -222.589,159.728C-232.729,152.847 -240.3,143.859 -244.588,132.282C-246.863,126.142 -247.775,119.766 -247.694,113.223C-247.575,103.534 -245.261,94.443 -240.139,86.195C-232.683,74.188 -222.098,66.548 -207.985,64.524C-194.067,62.527 -181.983,66.596 -172.105,76.716C-167.524,81.409 -165.063,87.153 -164.204,93.634C-163.449,99.322 -163.931,104.87 -165.699,110.334C-169.317,121.51 -180.428,128.284 -191.864,126.233C-198.609,125.023 -203.066,120.672 -204.19,114.146C-204.651,111.475 -204.557,108.854 -202.883,106.56C-201.512,104.681 -199.548,104.023 -197.304,104.283C-196.684,104.355 -196.065,104.75 -195.525,105.116C-195.052,105.437 -194.651,105.893 -194.286,106.344C-192.883,108.079 -191.096,108.565 -188.985,108.031C-186.899,107.503 -185.509,106.195 -184.898,104.145C-183.996,101.115 -184.573,98.193 -185.766,95.366C-188.786,88.208 -194.98,85.33 -202.421,85.612C-208.273,85.833 -213.073,88.514 -217.157,92.549C-221.897,97.234 -224.892,102.845 -225.589,109.522C-226.323,116.555 -224.974,123.202 -221.333,129.302C-216.477,137.438 -209.399,142.953 -200.563,146.103C-188.156,150.526 -176.211,148.875 -164.951,142.4C-154.382,136.323 -147.581,127.113 -143.859,115.579C-141.673,108.803 -141.037,101.842 -141.436,94.753C-142.096,83.031 -146.694,72.97 -154.419,64.303C-158.485,59.741 -162.808,55.408 -167.044,51C-173.456,44.33 -178.804,36.94 -182.448,28.391C-184.737,23.02 -186.233,17.438 -186.938,11.631C-187.58,6.334 -187.668,1.031 -187.199,-4.27C-186.369,-13.663 -183.719,-22.516 -179.02,-30.726C-174.581,-38.482 -168.855,-45.09 -161.571,-50.304C-154.021,-55.707 -145.7,-59.272 -136.531,-60.864C-126.686,-62.574 -117.01,-61.951 -107.602,-58.601C-94.241,-53.844 -84.081,-45.329 -77.902,-32.41C-74.027,-24.307 -72.818,-15.711 -73.732,-6.817C-74.545,1.089 -77.177,8.33 -82.091,14.639C-88.455,22.807 -96.715,27.852 -107.019,29.28C-116.174,30.549 -124.706,28.714 -132.268,23.316C-139.805,17.936 -143.049,10.347 -142.893,1.211C-142.812,-3.568 -141.557,-8.02 -138.78,-11.954C-134.953,-17.377 -129.155,-19.561 -123.234,-18.417C-120.204,-17.832 -117.561,-16.423 -116.001,-13.562C-115.129,-11.963 -114.967,-10.243 -115.398,-8.469C-115.72,-7.142 -116.574,-6.287 -117.805,-5.789C-118.473,-5.519 -119.154,-5.263 -119.85,-5.08C-123.898,-4.014 -124.174,-0.601 -123.318,1.916C-122.058,5.622 -119.141,7.57 -115.467,8.24C-109.291,9.366 -104.248,7.185 -100.365,2.361C-96.533,-2.401 -94.856,-7.892 -95.497,-13.981C-96.009,-18.846 -97.935,-23.208 -100.907,-27.068C-108.121,-36.441 -117.771,-40.565 -129.46,-39.835C-139.406,-39.215 -147.495,-34.644 -154.101,-27.363C-159.893,-20.98 -163.467,-13.456 -164.698,-4.938C-166.484,7.422 -163.99,18.899 -156.924,29.261C-152.402,35.891 -146.371,40.866 -139.341,44.661C-132.307,48.459 -124.809,50.727 -116.842,51.449C-109.155,52.146 -101.657,51.21 -94.263,49.067C-89.197,47.599 -84.107,46.199 -78.983,44.951C-73.647,43.651 -68.198,43.558 -62.732,43.888C-57.357,44.212 -52.077,45.05 -46.902,46.544C-37.636,49.222 -29.49,53.907 -22.281,60.272C-14.95,66.743 -9.107,74.324 -5.151,83.302C-2.014,90.424 -0.278,97.876 -0.005,105.659C0.033,106.77 0,107.882 0,108.994" style="fill-rule:nonzero;"/>
            </g>
            <g transform="matrix(1,0,0,1,249.265,368.021)">
                <path d="M0,-294.531C-39.336,-294.531 -76.318,-279.213 -104.132,-251.398C-131.947,-223.583 -147.265,-186.602 -147.265,-147.265C-147.265,-107.929 -131.947,-70.948 -104.132,-43.133C-76.318,-15.318 -39.336,0 0,0C39.336,0 76.318,-15.318 104.133,-43.133C131.947,-70.948 147.266,-107.929 147.266,-147.265C147.266,-186.602 131.947,-223.583 104.133,-251.398C76.318,-279.213 39.336,-294.531 0,-294.531M0,10.355C-21.276,10.355 -41.919,6.187 -61.354,-2.034C-80.124,-9.973 -96.98,-21.337 -111.454,-35.811C-125.928,-50.285 -137.292,-67.141 -145.231,-85.911C-153.452,-105.347 -157.62,-125.989 -157.62,-147.265C-157.62,-168.542 -153.452,-189.184 -145.231,-208.62C-137.292,-227.39 -125.928,-244.246 -111.454,-258.72C-96.98,-273.194 -80.124,-284.558 -61.354,-292.497C-41.919,-300.717 -21.276,-304.886 0,-304.886C21.276,-304.886 41.919,-300.717 61.355,-292.497C80.124,-284.558 96.98,-273.194 111.455,-258.72C125.928,-244.246 137.293,-227.39 145.231,-208.62C153.452,-189.184 157.62,-168.542 157.62,-147.265C157.62,-125.989 153.452,-105.347 145.231,-85.911C137.293,-67.141 125.928,-50.285 111.455,-35.811C96.98,-21.337 80.124,-9.973 61.355,-2.034C41.919,6.187 21.276,10.355 0,10.355" style="fill-rule:nonzero;"/>
            </g>
            <g transform="matrix(1,0,0,1,617.653,302.378)">
                <path d="M0,-56.35C-1.995,-63.71 -4.985,-70.61 -8.97,-77.05C-12.959,-83.49 -17.674,-89.085 -23.115,-93.84C-28.56,-98.591 -34.694,-102.35 -41.515,-105.11C-48.34,-107.87 -55.585,-109.25 -63.25,-109.25C-73.83,-109.25 -83.26,-106.871 -91.54,-102.12C-99.82,-97.365 -106.76,-91.08 -112.355,-83.26C-117.954,-75.44 -122.245,-66.585 -125.235,-56.695C-128.225,-46.805 -129.72,-36.645 -129.72,-26.22C-129.72,-15.18 -128.15,-4.83 -125.005,4.83C-121.864,14.49 -117.379,22.885 -111.55,30.015C-105.725,37.145 -98.67,42.78 -90.39,46.92C-82.11,51.06 -72.91,53.13 -62.79,53.13C-54.819,53.13 -47.344,51.675 -40.365,48.76C-33.39,45.849 -27.18,42.015 -21.735,37.26C-16.294,32.509 -11.694,27.025 -7.935,20.815C-4.18,14.605 -1.61,8.205 -0.23,1.61L2.53,1.61L1.84,52.21L-0.92,52.21C-2.76,49.605 -4.679,47.229 -6.67,45.08C-8.665,42.935 -10.045,41.86 -10.81,41.86C-11.119,41.86 -12.499,42.665 -14.95,44.275C-17.405,45.885 -20.93,47.65 -25.53,49.565C-30.13,51.484 -35.729,53.17 -42.32,54.625C-48.915,56.081 -56.505,56.81 -65.09,56.81C-79.35,56.81 -92.23,54.78 -103.73,50.715C-115.23,46.654 -125.005,40.904 -133.055,33.465C-141.105,26.03 -147.279,17.135 -151.57,6.785C-155.865,-3.565 -158.01,-14.95 -158.01,-27.37C-158.01,-30.13 -157.82,-33.271 -157.435,-36.8C-157.054,-40.325 -156.364,-44.08 -155.365,-48.07C-154.37,-52.055 -152.99,-56.235 -151.225,-60.605C-149.464,-64.975 -147.2,-69.381 -144.44,-73.83C-141.22,-79.041 -137.235,-84.025 -132.48,-88.78C-127.729,-93.531 -122.13,-97.71 -115.69,-101.315C-109.25,-104.916 -101.969,-107.791 -93.84,-109.94C-85.715,-112.085 -76.59,-113.16 -66.47,-113.16C-57.27,-113.16 -49.22,-112.315 -42.32,-110.63C-35.42,-108.941 -29.67,-107.1 -25.07,-105.11C-20.47,-103.115 -16.945,-101.275 -14.49,-99.59C-12.039,-97.901 -10.659,-97.06 -10.35,-97.06C-10.045,-97.06 -9.47,-97.405 -8.625,-98.095C-7.784,-98.785 -6.864,-99.626 -5.865,-100.625C-4.87,-101.62 -3.835,-102.77 -2.76,-104.075C-1.689,-105.376 -0.69,-106.72 0.23,-108.1L2.76,-108.1L2.76,-56.58L0,-56.35Z" style="fill-rule:nonzero;"/>
            </g>
            <g transform="matrix(1,0,0,1,762.279,214.268)">
                <path d="M0,144L-122.399,144L-122.399,142C-119.068,141.469 -115.968,140.6 -113.1,139.4C-110.234,138.2 -107.868,136.534 -106,134.4C-105.334,133.6 -104.8,132.435 -104.399,130.9C-104,129.369 -103.634,127.6 -103.3,125.6C-102.968,123.6 -102.734,121.5 -102.6,119.3C-102.468,117.1 -102.399,114.935 -102.399,112.8C-102.399,110.935 -102.368,108.4 -102.3,105.2C-102.234,102 -102.168,98.5 -102.1,94.7C-102.034,90.9 -102,87 -102,83L-102,32.4C-102,30 -102.034,27.534 -102.1,25C-102.168,22.469 -102.3,20.069 -102.5,17.8C-102.7,15.534 -103.034,13.5 -103.5,11.7C-103.968,9.9 -104.6,8.6 -105.399,7.8C-107.399,5.669 -109.534,4.3 -111.8,3.7C-114.068,3.1 -117,2.534 -120.6,2L-120.6,0L-10.199,0L3.4,33L1.4,34C-9.399,20.534 -19.534,11.469 -29,6.8C-31.269,5.734 -35.469,4.8 -41.6,4C-47.734,3.2 -55.199,2.8 -64,2.8C-66.8,2.8 -69.699,2.9 -72.699,3.1C-75.699,3.3 -77.868,3.534 -79.199,3.8C-79.469,5.935 -79.699,10.334 -79.899,17C-80.1,23.669 -80.199,31.4 -80.199,40.2L-80.199,53C-80.199,56.469 -80.168,59.3 -80.1,61.5C-80.034,63.7 -80,65.4 -80,66.6L-80,68.8L-76,68.8C-74,68.8 -71.699,68.734 -69.1,68.6C-66.5,68.469 -63.899,68.3 -61.3,68.1C-58.699,67.9 -56.534,67.6 -54.8,67.2C-50.8,66.269 -47.469,65 -44.8,63.4C-42.134,61.8 -39.969,59.869 -38.3,57.6C-36.634,55.334 -35.3,52.7 -34.3,49.7C-33.3,46.7 -32.399,43.334 -31.6,39.6L-29.199,39.6L-29.199,102.6L-31.6,102.6C-32.668,98.334 -34.3,93.935 -36.5,89.4C-38.699,84.869 -41,81.469 -43.399,79.2C-45.534,77.334 -48.1,75.8 -51.1,74.6C-54.1,73.4 -57.6,72.669 -61.6,72.4C-63.6,72.269 -65.269,72.169 -66.6,72.1C-67.934,72.034 -69.269,72 -70.6,72L-79.8,72C-80.068,73.869 -80.199,76.6 -80.199,80.2L-80.199,104.2C-80.199,106.334 -80.168,108.369 -80.1,110.3C-80.034,112.234 -80,113.869 -80,115.2C-79.868,119.469 -79.634,123.5 -79.3,127.3C-78.969,131.1 -78.199,133.935 -77,135.8C-75.8,137.669 -72.934,139 -68.399,139.8C-63.868,140.6 -58.934,141 -53.6,141C-51.334,141 -48.434,140.935 -44.899,140.8C-41.368,140.669 -37.668,140.334 -33.8,139.8C-29.534,139.269 -25.6,138.234 -22,136.7C-18.399,135.169 -14.934,133 -11.6,130.2C-8.269,127.4 -5.034,123.969 -1.899,119.9C1.231,115.834 4.466,110.935 7.801,105.2L10,105.8L0,144Z" style="fill-rule:nonzero;"/>
            </g>
            <g transform="matrix(1,0,0,1,909.078,214.268)">
                <path d="M0,144L-128.4,144L-128.4,142C-125.069,141.469 -121.769,140.6 -118.5,139.4C-115.234,138.2 -112.669,136.534 -110.8,134.4C-110.135,133.6 -109.569,132.435 -109.101,130.9C-108.635,129.369 -108.269,127.6 -108,125.6C-107.734,123.6 -107.5,121.5 -107.3,119.3C-107.101,117.1 -107,114.935 -107,112.8C-107,110.935 -106.969,108.4 -106.9,105.2C-106.835,102 -106.769,98.5 -106.7,94.7C-106.635,90.9 -106.601,87 -106.601,83L-106.601,25.6C-106.601,23.2 -106.7,20.969 -106.9,18.9C-107.101,16.834 -107.4,15 -107.8,13.4C-108.2,11.8 -108.8,10.534 -109.601,9.6C-111.469,7.334 -113.969,5.6 -117.101,4.4C-120.234,3.2 -123.534,2.4 -127,2L-127,0L-63.2,0L-63.2,2C-64.935,2.269 -67,2.669 -69.4,3.2C-71.8,3.734 -74.069,4.6 -76.2,5.8C-78.335,7 -80.169,8.7 -81.7,10.9C-83.234,13.1 -84.069,16 -84.2,19.6C-84.335,24.269 -84.435,28.534 -84.5,32.4C-84.569,36.269 -84.635,40.069 -84.7,43.8C-84.769,47.534 -84.8,51.4 -84.8,55.4L-84.8,91.8C-84.8,95.269 -84.769,98.834 -84.7,102.5C-84.635,106.169 -84.601,110.269 -84.601,114.8C-84.469,119.069 -84.3,123.134 -84.101,127C-83.9,130.869 -83.2,133.734 -82,135.6C-81.469,136.269 -80.4,136.935 -78.8,137.6C-77.2,138.269 -75.269,138.834 -73,139.3C-70.734,139.769 -68.269,140.169 -65.601,140.5C-62.935,140.834 -60.269,141 -57.601,141C-56.534,141 -54.835,140.969 -52.5,140.9C-50.169,140.834 -47.601,140.7 -44.8,140.5C-42,140.3 -39.135,140 -36.2,139.6C-33.269,139.2 -30.669,138.669 -28.4,138C-23.069,136.534 -18.635,134.6 -15.101,132.2C-11.569,129.8 -8.534,127.034 -6,123.9C-3.469,120.769 -1.335,117.369 0.399,113.7C2.131,110.034 3.8,106.2 5.399,102.2L7.399,102.8L0,144Z" style="fill-rule:nonzero;"/>
            </g>
            <g transform="matrix(1,0,0,1,1063.68,318.668)">
                <path d="M0,-66.8C-1.069,-69.2 -2.335,-71.7 -3.8,-74.3C-5.269,-76.9 -6.769,-79.331 -8.3,-81.6C-9.835,-83.866 -11.335,-85.966 -12.8,-87.9C-14.269,-89.831 -15.534,-91.266 -16.601,-92.2C-19.4,-94.866 -22.435,-96.632 -25.7,-97.5C-28.969,-98.366 -33.135,-98.866 -38.2,-99C-40.734,-99 -42.935,-99.031 -44.8,-99.1C-46.669,-99.166 -48.534,-99.2 -50.4,-99.2L-63.601,-99.2C-63.601,-95.866 -63.635,-91.331 -63.7,-85.6C-63.769,-79.866 -63.8,-73.866 -63.8,-67.6L-63.8,10.6C-63.8,14.469 -63.7,18.169 -63.5,21.7C-63.3,25.234 -62.669,27.734 -61.601,29.2C-59.601,32.134 -56.769,34.134 -53.101,35.2C-49.435,36.269 -46.135,37.069 -43.2,37.6L-43.2,39.6L-108.2,39.6L-108.2,37.6C-104.734,37.2 -101.4,36.534 -98.2,35.6C-95,34.669 -91.869,32.469 -88.8,29C-88.135,28.334 -87.635,27.234 -87.3,25.7C-86.969,24.169 -86.7,22.434 -86.5,20.5C-86.3,18.569 -86.169,16.469 -86.101,14.2C-86.034,11.934 -86,9.734 -86,7.6C-86,5.734 -85.969,3.269 -85.9,0.2C-85.835,-2.866 -85.769,-6.266 -85.7,-10C-85.635,-13.731 -85.601,-17.6 -85.601,-21.6L-85.601,-99.2L-98.8,-99.2C-100.534,-99.2 -102.369,-99.166 -104.3,-99.1C-106.234,-99.031 -108.469,-99 -111,-99C-116.069,-98.866 -120.234,-98.266 -123.5,-97.2C-126.769,-96.132 -129.8,-94.266 -132.601,-91.6C-133.669,-90.666 -134.9,-89.266 -136.3,-87.4C-137.7,-85.531 -139.169,-83.5 -140.7,-81.3C-142.234,-79.1 -143.7,-76.731 -145.101,-74.2C-146.5,-71.666 -147.601,-69.2 -148.4,-66.8L-150.2,-67.4L-144.2,-105.4C-141.135,-104.731 -138.3,-104.2 -135.7,-103.8C-133.101,-103.4 -129.335,-103.132 -124.4,-103C-119.335,-102.866 -114.8,-102.766 -110.8,-102.7C-106.8,-102.632 -102.935,-102.6 -99.2,-102.6L-61.2,-102.6C-57.2,-102.6 -53.335,-102.632 -49.601,-102.7C-45.869,-102.766 -42,-102.831 -38,-102.9C-34,-102.966 -29.469,-103 -24.4,-103C-20,-103.132 -16.369,-103.5 -13.5,-104.1C-10.635,-104.7 -7.669,-105.466 -4.601,-106.4L1.8,-67.4L0,-66.8Z" style="fill-rule:nonzero;"/>
            </g>
            <g transform="matrix(1,0,0,1,1072.08,214.268)">
                <path d="M0,144L0,142C3.331,141.469 6.431,140.6 9.3,139.4C12.165,138.2 14.6,136.469 16.6,134.2C17.266,133.4 17.766,132.269 18.1,130.8C18.431,129.334 18.7,127.6 18.899,125.6C19.1,123.6 19.231,121.5 19.3,119.3C19.365,117.1 19.399,114.935 19.399,112.8C19.399,110.935 19.431,108.4 19.5,105.2C19.565,102 19.631,98.5 19.7,94.7C19.766,90.9 19.8,87 19.8,83L19.8,25.2C19.8,22.8 19.7,20.569 19.5,18.5C19.3,16.435 19,14.569 18.6,12.9C18.2,11.234 17.6,9.935 16.8,9C14.931,6.734 12.631,5.1 9.899,4.1C7.165,3.1 4.065,2.4 0.6,2L0.6,0L60.399,0L60.399,2C57.6,2.4 54.6,3.134 51.399,4.2C48.2,5.269 45.731,7.4 44,10.6C42.8,12.869 42.165,15.734 42.1,19.2C42.031,22.669 41.931,25.935 41.8,29C41.8,32.334 41.766,35.634 41.7,38.9C41.631,42.169 41.6,45.469 41.6,48.8L41.6,115.8C41.6,119.669 41.665,123.4 41.8,127C41.931,130.6 42.531,133.134 43.6,134.6C45.2,136.869 47.731,138.6 51.2,139.8C54.665,141 57.8,141.734 60.6,142L60.6,144L0,144Z" style="fill-rule:nonzero;"/>
            </g>
            <g transform="matrix(1,0,0,1,1285.67,309.668)">
                <path d="M0,-49C-1.734,-55.4 -4.334,-61.4 -7.8,-67C-11.269,-72.6 -15.369,-77.465 -20.1,-81.6C-24.834,-85.731 -30.169,-89 -36.1,-91.4C-42.034,-93.8 -48.334,-95 -55,-95C-64.2,-95 -72.4,-92.931 -79.6,-88.8C-86.8,-84.666 -92.834,-79.2 -97.7,-72.4C-102.568,-65.6 -106.3,-57.9 -108.9,-49.3C-111.5,-40.7 -112.8,-31.866 -112.8,-22.8C-112.8,-13.2 -111.435,-4.2 -108.7,4.2C-105.969,12.6 -102.068,19.9 -97,26.1C-91.935,32.3 -85.8,37.2 -78.6,40.8C-71.4,44.4 -63.4,46.2 -54.6,46.2C-47.669,46.2 -41.169,44.935 -35.1,42.4C-29.034,39.869 -23.635,36.535 -18.9,32.4C-14.169,28.269 -10.169,23.5 -6.9,18.1C-3.635,12.7 -1.4,7.134 -0.2,1.4L2.2,1.4L1.6,45.4L-0.8,45.4C-2.4,43.134 -4.068,41.069 -5.8,39.2C-7.534,37.334 -8.734,36.4 -9.4,36.4C-9.669,36.4 -10.869,37.1 -13,38.5C-15.135,39.9 -18.2,41.435 -22.2,43.1C-26.2,44.769 -31.068,46.234 -36.8,47.5C-42.534,48.766 -49.135,49.4 -56.6,49.4C-69,49.4 -80.2,47.634 -90.2,44.1C-100.2,40.569 -108.7,35.569 -115.7,29.1C-122.7,22.634 -128.068,14.9 -131.8,5.9C-135.534,-3.1 -137.4,-13 -137.4,-23.8C-137.4,-26.2 -137.234,-28.931 -136.9,-32C-136.568,-35.065 -135.969,-38.331 -135.1,-41.8C-134.234,-45.266 -133.034,-48.9 -131.5,-52.7C-129.969,-56.5 -128,-60.331 -125.6,-64.2C-122.8,-68.731 -119.334,-73.065 -115.2,-77.2C-111.068,-81.331 -106.2,-84.965 -100.6,-88.1C-95,-91.231 -88.669,-93.731 -81.6,-95.6C-74.534,-97.465 -66.6,-98.4 -57.8,-98.4C-49.8,-98.4 -42.8,-97.666 -36.8,-96.2C-30.8,-94.731 -25.8,-93.131 -21.8,-91.4C-17.8,-89.666 -14.734,-88.065 -12.6,-86.6C-10.469,-85.131 -9.269,-84.4 -9,-84.4C-8.734,-84.4 -8.234,-84.7 -7.5,-85.3C-6.769,-85.9 -5.969,-86.631 -5.1,-87.5C-4.234,-88.366 -3.334,-89.366 -2.4,-90.5C-1.469,-91.631 -0.6,-92.8 0.2,-94L2.4,-94L2.4,-49.2L0,-49Z" style="fill-rule:nonzero;"/>
            </g>
            <g transform="matrix(1,0,0,1,534.599,82.3231)">
                <path d="M0,84.063L-74.956,84.063L-74.956,82.896C-73.011,82.585 -71.085,82.078 -69.177,81.378C-67.27,80.677 -65.773,79.705 -64.682,78.459C-64.293,77.992 -63.963,77.312 -63.689,76.415C-63.418,75.522 -63.204,74.489 -63.047,73.322C-62.892,72.154 -62.755,70.928 -62.639,69.644C-62.522,68.36 -62.463,67.096 -62.463,65.849C-62.463,64.76 -62.445,63.281 -62.405,61.413C-62.367,59.545 -62.328,57.501 -62.288,55.283C-62.25,53.065 -62.23,50.788 -62.23,48.453L-62.23,14.945C-62.23,13.544 -62.288,12.241 -62.405,11.033C-62.522,9.828 -62.697,8.756 -62.931,7.822C-63.164,6.888 -63.514,6.15 -63.981,5.605C-65.072,4.282 -66.532,3.269 -68.359,2.569C-70.189,1.868 -72.116,1.401 -74.139,1.168L-74.139,0L-36.894,0L-36.894,1.168C-37.907,1.324 -39.113,1.558 -40.514,1.868C-41.915,2.18 -43.239,2.686 -44.483,3.386C-45.729,4.087 -46.8,5.079 -47.694,6.363C-48.59,7.647 -49.077,9.34 -49.154,11.442C-49.232,14.168 -49.29,16.657 -49.328,18.914C-49.369,21.172 -49.407,23.391 -49.445,25.57C-49.485,27.749 -49.504,30.006 -49.504,32.341L-49.504,53.59C-49.504,55.615 -49.485,57.697 -49.445,59.836C-49.407,61.978 -49.387,64.372 -49.387,67.017C-49.31,69.509 -49.212,71.882 -49.095,74.139C-48.978,76.398 -48.57,78.07 -47.869,79.159C-47.559,79.549 -46.935,79.938 -46.001,80.327C-45.067,80.717 -43.94,81.047 -42.615,81.319C-41.293,81.593 -39.853,81.827 -38.295,82.02C-36.739,82.215 -35.183,82.312 -33.625,82.312C-33.003,82.312 -32.011,82.294 -30.648,82.253C-29.287,82.215 -27.787,82.137 -26.153,82.02C-24.518,81.903 -22.845,81.728 -21.132,81.495C-19.421,81.261 -17.904,80.951 -16.579,80.561C-13.467,79.705 -10.878,78.576 -8.815,77.175C-6.754,75.773 -4.982,74.159 -3.503,72.329C-2.025,70.501 -0.779,68.516 0.233,66.375C1.244,64.235 2.218,61.997 3.152,59.662L4.32,60.012L0,84.063Z" style="fill-rule:nonzero;"/>
            </g>
            <g transform="matrix(1,0,0,1,614.575,82.3231)">
                <path d="M0,84.063L-71.454,84.063L-71.454,82.896C-69.509,82.585 -67.699,82.078 -66.025,81.378C-64.352,80.677 -62.971,79.705 -61.88,78.459C-61.491,77.992 -61.18,77.312 -60.946,76.415C-60.713,75.522 -60.499,74.489 -60.304,73.322C-60.111,72.154 -59.974,70.928 -59.895,69.644C-59.819,68.36 -59.778,67.096 -59.778,65.849C-59.778,64.76 -59.76,63.281 -59.72,61.413C-59.682,59.545 -59.644,57.501 -59.603,55.283C-59.565,53.065 -59.545,50.788 -59.545,48.453L-59.545,18.914C-59.545,17.513 -59.565,16.074 -59.603,14.594C-59.644,13.117 -59.72,11.716 -59.837,10.391C-59.954,9.069 -60.149,7.881 -60.421,6.83C-60.694,5.78 -61.063,5.021 -61.53,4.554C-62.697,3.309 -63.943,2.51 -65.266,2.16C-66.59,1.81 -68.302,1.48 -70.403,1.168L-70.403,0L-5.955,0L1.984,19.265L0.817,19.848C-5.488,11.988 -11.404,6.695 -16.93,3.97C-18.255,3.348 -20.706,2.802 -24.286,2.335C-27.866,1.868 -32.224,1.635 -37.362,1.635C-38.996,1.635 -40.689,1.693 -42.44,1.81C-44.192,1.926 -45.458,2.063 -46.235,2.219C-46.392,3.464 -46.527,6.033 -46.644,9.924C-46.76,13.817 -46.819,18.33 -46.819,23.468L-46.819,30.94C-46.819,32.965 -46.8,34.618 -46.76,35.902C-46.722,37.186 -46.702,38.179 -46.702,38.879L-46.702,40.164L-44.367,40.164C-43.2,40.164 -41.856,40.125 -40.339,40.047C-38.821,39.97 -37.304,39.871 -35.786,39.755C-34.268,39.638 -33.004,39.463 -31.991,39.23C-29.656,38.685 -27.711,37.945 -26.154,37.011C-24.597,36.077 -23.333,34.95 -22.359,33.625C-21.387,32.303 -20.607,30.765 -20.023,29.014C-19.44,27.262 -18.915,25.297 -18.448,23.118L-17.046,23.118L-17.046,59.895L-18.448,59.895C-19.072,57.405 -20.023,54.836 -21.308,52.189C-22.592,49.544 -23.935,47.559 -25.336,46.234C-26.582,45.146 -28.08,44.25 -29.831,43.55C-31.583,42.849 -33.625,42.422 -35.961,42.265C-37.128,42.188 -38.103,42.13 -38.88,42.09C-39.658,42.051 -40.438,42.032 -41.215,42.032L-46.585,42.032C-46.742,43.122 -46.819,44.717 -46.819,46.818L-46.819,60.829C-46.819,62.075 -46.8,63.263 -46.76,64.39C-46.722,65.519 -46.702,66.473 -46.702,67.25C-46.625,69.742 -46.489,72.096 -46.293,74.314C-46.1,76.532 -45.652,78.187 -44.951,79.276C-44.251,80.367 -42.577,81.144 -39.93,81.611C-37.285,82.078 -34.405,82.312 -31.29,82.312C-29.968,82.312 -28.275,82.273 -26.212,82.195C-24.15,82.118 -21.991,81.923 -19.732,81.611C-17.241,81.301 -14.945,80.698 -12.843,79.801C-10.741,78.908 -8.719,77.642 -6.773,76.007C-4.827,74.373 -2.94,72.369 -1.109,69.994C0.718,67.621 2.607,64.76 4.553,61.413L5.838,61.763L0,84.063Z" style="fill-rule:nonzero;"/>
            </g>
        </g>
    </g>
</svg>
