<?xml version="1.0" encoding="UTF-8"?><svg version="1.1" width="210px" height="33px" viewBox="0 0 210.0 33.0" xmlns="http://www.w3.org/2000/svg" xmlns:xlink="http://www.w3.org/1999/xlink"><defs><clipPath id="i0"><path d="M706,0 L706,457 L0,457 L0,0 L706,0 Z"></path></clipPath><clipPath id="i1"><path d="M16.8929623,0 L25.1792121,17.9789916 L29.9861525,0 L38.821767,0 L30.2150545,32.3529412 L22.4323889,32.3529412 L13.7798961,13.7268908 L8.83561441,32.3529412 L0,32.3529412 L8.60671248,0 L16.8929623,0 Z"></path></clipPath><clipPath id="i2"><path d="M38.821767,0 L38.821767,32.3529412 L0,32.3529412 L0,0 L38.821767,0 Z"></path></clipPath><clipPath id="i3"><path d="M13.0016295,0 L9.5223202,13.0798319 C9.43075942,13.4187675 9.35445878,13.7731092 9.29341827,14.1428571 C9.23237775,14.512605 9.2018575,14.8361345 9.2018575,15.1134454 C9.2018575,15.9453782 9.43838949,16.592437 9.91145347,17.0546218 C10.3845175,17.5168067 11.0788533,17.7478992 11.994461,17.7478992 C13.2152713,17.7478992 14.1919195,17.355042 14.9244057,16.5693277 C15.6568919,15.7836134 16.2062565,14.6666667 16.5724996,13.2184874 L20.0975893,0 L28.7958625,0 L22.203487,25.0042017 L13.5052137,25.0042017 L14.2376999,22.1386555 C13.3831327,23.0322129 12.3607041,23.8256303 11.1704141,24.5189076 C9.98012405,25.2121849 8.65249287,25.5588235 7.18752053,25.5588235 C4.92902151,25.5588235 3.16647667,24.8886555 1.899886,23.5483193 C0.633295334,22.2079832 0,20.3823529 0,18.0714286 C0,17.3935574 0.0610405141,16.6771709 0.183121542,15.9222689 C0.30520257,15.1673669 0.473063984,14.3893557 0.686705783,13.5882353 L4.30335624,0 L13.0016295,0 Z"></path></clipPath><clipPath id="i4"><path d="M28.7958625,0 L28.7958625,25.5588235 L0,25.5588235 L0,0 L28.7958625,0 Z"></path></clipPath><clipPath id="i5"><path d="M15.7484526,0 L17.9001308,6.05462185 L22.8901928,0 L32.6871953,0 L21.1505381,12.6638655 L26.3695021,25.0042017 L17.3507661,25.0042017 L15.1075272,18.6722689 L9.79700251,25.0042017 L0,25.0042017 L11.8571199,12.0168067 L6.72971668,0 L15.7484526,0 Z"></path></clipPath><clipPath id="i6"><path d="M32.6871953,0 L32.6871953,25.0042017 L0,25.0042017 L0,0 L32.6871953,0 Z"></path></clipPath><clipPath id="i7"><path d="M15.199088,0 L13.5052137,6.33193277 L19.2735423,6.33193277 L17.3965465,13.4033613 L11.6282179,13.4033613 L9.5223202,21.2605042 C9.36971891,21.9383754 9.29341827,22.4467787 9.29341827,22.7857143 C9.29341827,23.8333333 9.94960379,24.3571429 11.2619748,24.3571429 C12.1775826,24.3571429 13.2763118,24.1260504 14.5581626,23.6638655 L12.6353864,30.9663866 C11.8418597,31.2436975 11.0101827,31.4593838 10.1403554,31.6134454 C9.27052807,31.767507 8.39307069,31.8445378 7.50798323,31.8445378 C4.9748019,31.8445378 3.09017602,31.3207283 1.85410561,30.2731092 C0.618035205,29.2254902 0,27.7773109 0,25.9285714 C0,25.4047619 0.0381503213,24.8809524 0.114450964,24.3571429 C0.190751606,23.8333333 0.30520257,23.2633053 0.457803856,22.6470588 L2.92994468,13.4033613 L0,13.4033613 L1.87699581,6.33193277 L4.80694048,6.33193277 L6.50081475,0 L15.199088,0 Z"></path></clipPath><clipPath id="i8"><path d="M19.2735423,0 L19.2735423,31.8445378 L0,31.8445378 L0,0 L19.2735423,0 Z"></path></clipPath><clipPath id="i9"><path d="M32.0004895,0 L30.2608349,6.42436975 L20.4638323,13.3109244 C22.4781693,13.8655462 24.0652227,14.797619 25.2249924,16.1071429 C26.3847622,17.4166667 26.9646471,19.1036415 26.9646471,21.1680672 C26.9646471,22.9243697 26.6212942,24.5343137 25.9345884,25.9978992 C25.2478826,27.4614846 24.2788645,28.7093838 23.0275339,29.7415966 C21.7762034,30.7738095 20.2807108,31.57493 18.5410561,32.144958 C16.8014015,32.714986 14.8938854,33 12.818508,33 C9.85804302,33 7.31723162,32.4607843 5.19607376,31.3823529 C3.0749159,30.3039216 1.34289131,28.7633053 0,26.7605042 L6.04301089,21.7226891 C6.92809835,22.8935574 7.90474657,23.7871148 8.97295557,24.4033613 C10.0411646,25.0196078 11.3230154,25.3277311 12.818508,25.3277311 C13.6120346,25.3277311 14.3368907,25.219888 14.9930763,25.0042017 C15.6492618,24.7885154 16.2138866,24.5035014 16.6869505,24.1491597 C17.1600145,23.7948179 17.5262576,23.3865546 17.7856798,22.9243697 C18.045102,22.4621849 18.1748131,21.9845938 18.1748131,21.4915966 C18.1748131,19.5196078 16.5114591,18.5336134 13.184751,18.5336134 L10.1174652,18.5336134 L9.93434367,13.9117647 L18.9072992,7.25630252 L6.91283822,7.25630252 L8.83561441,0 L32.0004895,0 Z"></path></clipPath><clipPath id="i10"><path d="M36.1733225,0 L27.5339474,36 L0,36 L9.517725,0 L36.1733225,0 Z"></path></clipPath><clipPath id="i11"><path d="M32.0004895,0 L32.0004895,33 L0,33 L0,0 L32.0004895,0 Z"></path></clipPath><linearGradient id="i12" x1="33.4952859px" y1="35px" x2="-2.67803659px" y2="35px" gradientUnits="userSpaceOnUse"><stop stop-color="#3CEEF1" offset="0%"></stop><stop stop-color="#92E81C" offset="100%"></stop></linearGradient><clipPath id="i13"><path d="M21.9288047,0 C24.1262632,0 25.9651087,0.207983193 27.4453411,0.62394958 C28.9255736,1.03991597 30.1158636,1.60994398 31.0162112,2.33403361 C31.9165588,3.05812325 32.5574842,3.89005602 32.9389874,4.82983193 C33.3204906,5.76960784 33.5112422,6.74789916 33.5112422,7.76470588 C33.5112422,7.94703214 33.5063025,8.126955 33.4964229,8.30447447 C34.6198683,7.95434756 35.873194,7.66708867 37.2531139,7.44117647 C38.9469882,7.16386555 40.6942729,7.02521008 42.494968,7.02521008 C46.2184394,7.02521008 48.9881527,7.72619048 50.804108,9.12815126 C51.6290154,9.7649994 52.2665634,10.5147031 52.7167522,11.3772623 C53.160604,10.6182712 53.7250848,9.94582449 54.4086385,9.3592437 C55.3242462,8.57352941 56.4534958,7.94957983 57.7963871,7.48739496 C59.1392784,7.02521008 60.6652912,6.79411765 62.3744256,6.79411765 C64.6329246,6.79411765 66.7006721,7.14845938 68.5776679,7.85714286 C70.4288038,8.55606261 71.9162975,9.3598744 73.040149,10.2685782 C74.0346557,9.42538965 75.1530015,8.70645694 76.3939938,8.11134454 C78.2252093,7.23319328 80.2853266,6.79411765 82.5743459,6.79411765 C84.4055613,6.79411765 85.9849846,7.07913165 87.3126158,7.64915966 C88.640247,8.21918768 89.7313462,8.98179272 90.5859134,9.93697479 C91.4404806,10.8921569 92.0737759,11.9936975 92.4857994,13.2415966 C92.8978228,14.4894958 93.1038346,15.7913165 93.1038346,17.1470588 C93.1038346,18.0098039 93.0199039,18.8802521 92.8520425,19.7584034 C92.684181,20.6365546 92.4476491,21.4761905 92.1424465,22.2773109 L75.7072881,22.2773109 C75.7988488,23.5406162 76.2185024,24.5420168 76.9662487,25.2815126 C77.713995,26.0210084 78.8356144,26.3907563 80.331107,26.3907563 C81.2161945,26.3907563 82.0783917,26.2366947 82.9176988,25.9285714 C83.7570059,25.6204482 84.6497234,25.1120448 85.5958513,24.4033613 L89.6245253,29.210084 C88.3426745,30.3193277 86.8777021,31.2205882 85.2296083,31.9138655 C83.5815144,32.6071429 81.6739983,32.9537815 79.5070601,32.9537815 C77.6758446,32.9537815 76.0277508,32.6918768 74.5627784,32.1680672 C73.0978061,31.6442577 71.8617357,30.8970588 70.8545672,29.9264706 C70.2245619,29.319347 69.6841206,28.6368725 69.2332434,27.879047 C68.800629,28.7667734 68.1998965,29.5646332 67.4331582,30.2731092 C66.5328106,31.105042 65.4111912,31.7598039 64.0682999,32.237395 C62.7254086,32.714986 61.1688755,32.9537815 59.3987006,32.9537815 C57.0181205,32.9537815 54.7596215,32.5686275 52.6232035,31.7983193 C51.6281966,31.4395591 50.7027014,31.0173055 49.8467177,30.5315587 L49.3620259,32.3529412 L40.8010938,32.3529412 L41.4877996,29.6722689 C40.4195906,30.6582633 39.3284914,31.4362745 38.214502,32.0063025 C37.1005126,32.5763305 35.8110318,32.8613445 34.3460594,32.8613445 C32.3012022,32.8613445 30.6378482,32.2528011 29.3559974,31.0357143 C28.7963497,30.5043421 28.3588713,29.8892761 28.0435622,29.1905162 C27.9111635,29.2990522 27.7720315,29.4059253 27.6284627,29.5105042 C26.4229125,30.3886555 24.9045297,31.0819328 23.0733143,31.5903361 C21.2420989,32.0987395 19.0904208,32.3529412 16.61828,32.3529412 L0,32.3529412 L8.60671248,0 L21.9288047,0 Z M40.4348507,21.5378151 C39.0614391,21.5378151 37.9627099,21.8536415 37.1386629,22.4852941 C36.314616,23.1169468 35.9025925,24.0028011 35.9025925,25.1428571 C35.9025925,25.8515406 36.1314945,26.4138655 36.5892983,26.8298319 C37.0471022,27.2457983 37.6422472,27.4537815 38.3747333,27.4537815 C39.5039829,27.4537815 40.5493017,27.022409 41.5106898,26.1596639 C42.4720779,25.2969188 43.1206333,24.2184874 43.4563561,22.9243697 L43.6852581,22.092437 C43.196934,21.9383754 42.6857196,21.807423 42.1516152,21.6995798 C41.6175107,21.5917367 41.0452558,21.5378151 40.4348507,21.5378151 Z M52.8037575,19.4037796 L51.675,23.651 L51.8074803,23.7669977 C52.9173078,24.7066463 54.1658638,25.442577 55.5531482,25.9747899 C57.079161,26.5602241 58.4678327,26.8529412 59.7191633,26.8529412 C60.4516494,26.8529412 61.0010141,26.7142857 61.3672571,26.4369748 C61.7335002,26.1596639 61.9166218,25.789916 61.9166218,25.3277311 C61.9166218,24.8963585 61.6571996,24.5189076 61.1383552,24.1953782 C60.6195108,23.8718487 59.7496835,23.4635854 58.5288732,22.9705882 C57.552225,22.570028 56.6366173,22.1540616 55.7820501,21.7226891 C54.9274829,21.2913165 54.1873667,20.7906162 53.5617014,20.2205882 C53.2815094,19.9653123 53.0288614,19.6930427 52.8037575,19.4037796 Z M18.3121542,19.1806723 L12.1775826,19.1806723 L10.5752691,25.1428571 L17.3049857,25.1428571 C18.8615188,25.1428571 20.0746991,24.8270308 20.9445264,24.1953782 C21.8143537,23.5637255 22.2492674,22.7394958 22.2492674,21.7226891 C22.2492674,20.0280112 20.9368963,19.1806723 18.3121542,19.1806723 Z M33.1073109,10.4238638 C32.7925804,11.3832652 32.2939288,12.2531818 31.6113562,13.0336134 C30.3447656,14.4817927 28.5822207,15.4831933 26.3237217,16.0378151 C27.7581738,16.5616246 28.9255736,17.355042 29.8259212,18.4180672 C30.0527075,18.68583 30.2509316,18.9726537 30.4205932,19.2785383 L30.542,19.511 L30.7257465,19.3710924 C31.6239577,18.7110924 32.6704973,18.2008403 33.8653654,17.8403361 C35.1929965,17.4397759 36.6808591,17.2394958 38.328953,17.2394958 C39.4582025,17.2394958 40.5416716,17.3242297 41.5793603,17.4936975 C42.6170491,17.6631653 43.6242176,17.9019608 44.6008658,18.210084 L44.6924265,17.8865546 C44.7534671,17.6708683 44.8068775,17.4397759 44.8526579,17.1932773 C44.8984383,16.9467787 44.9213285,16.6694678 44.9213285,16.3613445 C44.9213285,15.5602241 44.5932357,14.9131653 43.9370502,14.4201681 C43.2808647,13.9271709 42.1897655,13.6806723 40.6637526,13.6806723 C39.5039829,13.6806723 38.3213229,13.8039216 37.1157727,14.0504202 C35.9102226,14.2969188 34.8649038,14.5896359 33.9798163,14.9285714 L33.1073109,10.4238638 Z M61.9166218,12.894958 C60.4821697,12.894958 59.7649436,13.372549 59.7649436,14.3277311 C59.7649436,14.7591036 60.0167358,15.1288515 60.52032,15.4369748 C61.0239042,15.745098 61.9166218,16.1610644 63.1984726,16.6848739 C64.08356,17.0546218 64.9457573,17.447479 65.7850643,17.8634454 C66.5910893,18.2629169 67.3056341,18.7263269 67.9286988,19.2536754 C68.0971785,18.2913458 68.3637686,17.3346887 68.7257793,16.3844538 C68.8874977,15.9599622 69.0661425,15.5461508 69.2617138,15.1430198 L68.9210208,15.5756303 C67.8528118,14.7745098 66.7006721,14.127451 65.4646016,13.6344538 C64.2285312,13.1414566 63.0458713,12.894958 61.9166218,12.894958 Z M81.9792009,13.2647059 C80.8194311,13.2647059 79.7130718,13.6421569 78.6601229,14.3970588 C77.6071741,15.1519608 76.8212774,16.2843137 76.3024331,17.7941176 L85.1380475,17.7941176 C85.2906488,17.3319328 85.3669494,16.8851541 85.3669494,16.4537815 C85.3669494,15.5910364 85.0922671,14.8438375 84.5429025,14.2121849 C83.9935379,13.5805322 83.1389707,13.2647059 81.9792009,13.2647059 Z M20.8758558,7.21008403 L15.3364292,7.21008403 L13.8714568,12.894958 L19.8686873,12.894958 C21.4557407,12.894958 22.6612908,12.6022409 23.4853378,12.0168067 C24.3093847,11.4313725 24.7214082,10.6302521 24.7214082,9.61344538 C24.7214082,8.87394958 24.4238357,8.28851541 23.8286907,7.85714286 C23.2335457,7.42577031 22.2492674,7.21008403 20.8758558,7.21008403 Z"></path></clipPath><clipPath id="i14"><path d="M93.1038346,0 L93.1038346,32.9537815 L0,32.9537815 L0,0 L93.1038346,0 Z"></path></clipPath></defs><g transform="translate(-160.0 -195.0)"><g clip-path="url(#i0)"><g transform="translate(160.00000000000003 195.0)"><g clip-path="url(#i1)"><g clip-path="url(#i2)"><polygon points="0,0 38.821767,0 38.821767,32.3529412 0,32.3529412 0,0" stroke="none" fill="#031A46"></polygon></g></g><g transform="translate(31.64501666633845 7.348739495798327)"><g clip-path="url(#i3)"><g clip-path="url(#i4)"><polygon points="0,0 28.7958625,0 28.7958625,25.5588235 0,25.5588235 0,0" stroke="none" fill="#031A46"></polygon></g></g></g><g transform="translate(50.700427305022224 7.348739495798327)"><g clip-path="url(#i5)"><g clip-path="url(#i6)"><polygon points="0,0 32.6871953,0 32.6871953,25.0042017 0,25.0042017 0,0" stroke="none" fill="#031A46"></polygon></g></g></g><g transform="translate(76.94335847585802 1.0168067226891289)"><g clip-path="url(#i7)"><g clip-path="url(#i8)"><polygon points="0,0 19.2735423,0 19.2735423,31.8445378 0,31.8445378 0,0" stroke="none" fill="#031A46"></polygon></g></g></g><g transform="translate(87.39205663018151 0.0)"><g clip-path="url(#i9)"><g transform="translate(-2.6780365946874447 -1.0)"><g clip-path="url(#i10)"><g transform="translate(2.6780365900000014 1.0)"><g clip-path="url(#i11)"><polygon points="4.68743622e-09,0 32.0004895,0 32.0004895,33 4.68743622e-09,33 4.68743622e-09,0" stroke="none" fill="url(#i12)"></polygon></g></g></g></g></g></g><g transform="translate(116.89616542318886 0.0)"><g clip-path="url(#i13)"><g clip-path="url(#i14)"><polygon points="0,0 93.1038346,0 93.1038346,32.9537815 0,32.9537815 0,0" stroke="none" fill="#D1E8E1"></polygon></g></g></g></g></g></g></svg>